%TF.GenerationSoftware,KiCad,Pcbnew,7.0.9-1.fc39*%
%TF.CreationDate,2023-11-27T20:11:11+01:00*%
%TF.ProjectId,sis5351a GPS controlled time base,73697335-3335-4316-9120-47505320636f,rev?*%
%TF.SameCoordinates,Original*%
%TF.FileFunction,Paste,Top*%
%TF.FilePolarity,Positive*%
%FSLAX46Y46*%
G04 Gerber Fmt 4.6, Leading zero omitted, Abs format (unit mm)*
G04 Created by KiCad (PCBNEW 7.0.9-1.fc39) date 2023-11-27 20:11:11*
%MOMM*%
%LPD*%
G01*
G04 APERTURE LIST*
G04 Aperture macros list*
%AMRoundRect*
0 Rectangle with rounded corners*
0 $1 Rounding radius*
0 $2 $3 $4 $5 $6 $7 $8 $9 X,Y pos of 4 corners*
0 Add a 4 corners polygon primitive as box body*
4,1,4,$2,$3,$4,$5,$6,$7,$8,$9,$2,$3,0*
0 Add four circle primitives for the rounded corners*
1,1,$1+$1,$2,$3*
1,1,$1+$1,$4,$5*
1,1,$1+$1,$6,$7*
1,1,$1+$1,$8,$9*
0 Add four rect primitives between the rounded corners*
20,1,$1+$1,$2,$3,$4,$5,0*
20,1,$1+$1,$4,$5,$6,$7,0*
20,1,$1+$1,$6,$7,$8,$9,0*
20,1,$1+$1,$8,$9,$2,$3,0*%
G04 Aperture macros list end*
%ADD10C,0.300000*%
%ADD11RoundRect,0.250000X-0.325000X-0.450000X0.325000X-0.450000X0.325000X0.450000X-0.325000X0.450000X0*%
%ADD12RoundRect,0.250000X-0.350000X-0.450000X0.350000X-0.450000X0.350000X0.450000X-0.350000X0.450000X0*%
%ADD13RoundRect,0.250000X-0.650000X0.412500X-0.650000X-0.412500X0.650000X-0.412500X0.650000X0.412500X0*%
%ADD14R,0.500000X2.000000*%
%ADD15R,2.000000X1.700000*%
%ADD16RoundRect,0.250000X-0.475000X0.337500X-0.475000X-0.337500X0.475000X-0.337500X0.475000X0.337500X0*%
%ADD17RoundRect,0.250000X-0.337500X-0.475000X0.337500X-0.475000X0.337500X0.475000X-0.337500X0.475000X0*%
%ADD18R,1.600000X0.550000*%
%ADD19R,0.550000X1.600000*%
%ADD20RoundRect,0.250000X0.450000X-0.350000X0.450000X0.350000X-0.450000X0.350000X-0.450000X-0.350000X0*%
%ADD21RoundRect,0.150000X0.150000X-0.512500X0.150000X0.512500X-0.150000X0.512500X-0.150000X-0.512500X0*%
%ADD22RoundRect,0.250000X-0.412500X-0.650000X0.412500X-0.650000X0.412500X0.650000X-0.412500X0.650000X0*%
%ADD23RoundRect,0.250000X0.350000X0.450000X-0.350000X0.450000X-0.350000X-0.450000X0.350000X-0.450000X0*%
%ADD24R,0.300000X1.400000*%
%ADD25RoundRect,0.150000X0.150000X-0.587500X0.150000X0.587500X-0.150000X0.587500X-0.150000X-0.587500X0*%
%ADD26R,0.450000X1.750000*%
%ADD27R,2.100000X1.800000*%
%ADD28R,1.800000X2.100000*%
G04 APERTURE END LIST*
D10*
X200449171Y-99104510D02*
X201949171Y-99104510D01*
X201949171Y-99104510D02*
X201949171Y-99675939D01*
X201949171Y-99675939D02*
X201877742Y-99818796D01*
X201877742Y-99818796D02*
X201806314Y-99890225D01*
X201806314Y-99890225D02*
X201663457Y-99961653D01*
X201663457Y-99961653D02*
X201449171Y-99961653D01*
X201449171Y-99961653D02*
X201306314Y-99890225D01*
X201306314Y-99890225D02*
X201234885Y-99818796D01*
X201234885Y-99818796D02*
X201163457Y-99675939D01*
X201163457Y-99675939D02*
X201163457Y-99104510D01*
X200449171Y-100604510D02*
X201949171Y-100604510D01*
X201949171Y-100604510D02*
X201949171Y-101175939D01*
X201949171Y-101175939D02*
X201877742Y-101318796D01*
X201877742Y-101318796D02*
X201806314Y-101390225D01*
X201806314Y-101390225D02*
X201663457Y-101461653D01*
X201663457Y-101461653D02*
X201449171Y-101461653D01*
X201449171Y-101461653D02*
X201306314Y-101390225D01*
X201306314Y-101390225D02*
X201234885Y-101318796D01*
X201234885Y-101318796D02*
X201163457Y-101175939D01*
X201163457Y-101175939D02*
X201163457Y-100604510D01*
X200520600Y-102033082D02*
X200449171Y-102247368D01*
X200449171Y-102247368D02*
X200449171Y-102604510D01*
X200449171Y-102604510D02*
X200520600Y-102747368D01*
X200520600Y-102747368D02*
X200592028Y-102818796D01*
X200592028Y-102818796D02*
X200734885Y-102890225D01*
X200734885Y-102890225D02*
X200877742Y-102890225D01*
X200877742Y-102890225D02*
X201020600Y-102818796D01*
X201020600Y-102818796D02*
X201092028Y-102747368D01*
X201092028Y-102747368D02*
X201163457Y-102604510D01*
X201163457Y-102604510D02*
X201234885Y-102318796D01*
X201234885Y-102318796D02*
X201306314Y-102175939D01*
X201306314Y-102175939D02*
X201377742Y-102104510D01*
X201377742Y-102104510D02*
X201520600Y-102033082D01*
X201520600Y-102033082D02*
X201663457Y-102033082D01*
X201663457Y-102033082D02*
X201806314Y-102104510D01*
X201806314Y-102104510D02*
X201877742Y-102175939D01*
X201877742Y-102175939D02*
X201949171Y-102318796D01*
X201949171Y-102318796D02*
X201949171Y-102675939D01*
X201949171Y-102675939D02*
X201877742Y-102890225D01*
X196899171Y-98840225D02*
X196899171Y-99697368D01*
X195399171Y-99268796D02*
X196899171Y-99268796D01*
X195399171Y-100054510D02*
X196399171Y-100840225D01*
X196399171Y-100054510D02*
X195399171Y-100840225D01*
X195399171Y-102054511D02*
X196899171Y-102054511D01*
X195470600Y-102054511D02*
X195399171Y-101911653D01*
X195399171Y-101911653D02*
X195399171Y-101625939D01*
X195399171Y-101625939D02*
X195470600Y-101483082D01*
X195470600Y-101483082D02*
X195542028Y-101411653D01*
X195542028Y-101411653D02*
X195684885Y-101340225D01*
X195684885Y-101340225D02*
X196113457Y-101340225D01*
X196113457Y-101340225D02*
X196256314Y-101411653D01*
X196256314Y-101411653D02*
X196327742Y-101483082D01*
X196327742Y-101483082D02*
X196399171Y-101625939D01*
X196399171Y-101625939D02*
X196399171Y-101911653D01*
X196399171Y-101911653D02*
X196327742Y-102054511D01*
X191949171Y-98890225D02*
X190449171Y-99390225D01*
X190449171Y-99390225D02*
X191949171Y-99890225D01*
X190520600Y-101033082D02*
X190449171Y-100890224D01*
X190449171Y-100890224D02*
X190449171Y-100604510D01*
X190449171Y-100604510D02*
X190520600Y-100461653D01*
X190520600Y-100461653D02*
X190592028Y-100390224D01*
X190592028Y-100390224D02*
X190734885Y-100318796D01*
X190734885Y-100318796D02*
X191163457Y-100318796D01*
X191163457Y-100318796D02*
X191306314Y-100390224D01*
X191306314Y-100390224D02*
X191377742Y-100461653D01*
X191377742Y-100461653D02*
X191449171Y-100604510D01*
X191449171Y-100604510D02*
X191449171Y-100890224D01*
X191449171Y-100890224D02*
X191377742Y-101033082D01*
X190520600Y-102318796D02*
X190449171Y-102175938D01*
X190449171Y-102175938D02*
X190449171Y-101890224D01*
X190449171Y-101890224D02*
X190520600Y-101747367D01*
X190520600Y-101747367D02*
X190592028Y-101675938D01*
X190592028Y-101675938D02*
X190734885Y-101604510D01*
X190734885Y-101604510D02*
X191163457Y-101604510D01*
X191163457Y-101604510D02*
X191306314Y-101675938D01*
X191306314Y-101675938D02*
X191377742Y-101747367D01*
X191377742Y-101747367D02*
X191449171Y-101890224D01*
X191449171Y-101890224D02*
X191449171Y-102175938D01*
X191449171Y-102175938D02*
X191377742Y-102318796D01*
X197899171Y-99961653D02*
X198613457Y-99461653D01*
X197899171Y-99104510D02*
X199399171Y-99104510D01*
X199399171Y-99104510D02*
X199399171Y-99675939D01*
X199399171Y-99675939D02*
X199327742Y-99818796D01*
X199327742Y-99818796D02*
X199256314Y-99890225D01*
X199256314Y-99890225D02*
X199113457Y-99961653D01*
X199113457Y-99961653D02*
X198899171Y-99961653D01*
X198899171Y-99961653D02*
X198756314Y-99890225D01*
X198756314Y-99890225D02*
X198684885Y-99818796D01*
X198684885Y-99818796D02*
X198613457Y-99675939D01*
X198613457Y-99675939D02*
X198613457Y-99104510D01*
X197899171Y-100461653D02*
X198899171Y-101247368D01*
X198899171Y-100461653D02*
X197899171Y-101247368D01*
X197899171Y-102461654D02*
X199399171Y-102461654D01*
X197970600Y-102461654D02*
X197899171Y-102318796D01*
X197899171Y-102318796D02*
X197899171Y-102033082D01*
X197899171Y-102033082D02*
X197970600Y-101890225D01*
X197970600Y-101890225D02*
X198042028Y-101818796D01*
X198042028Y-101818796D02*
X198184885Y-101747368D01*
X198184885Y-101747368D02*
X198613457Y-101747368D01*
X198613457Y-101747368D02*
X198756314Y-101818796D01*
X198756314Y-101818796D02*
X198827742Y-101890225D01*
X198827742Y-101890225D02*
X198899171Y-102033082D01*
X198899171Y-102033082D02*
X198899171Y-102318796D01*
X198899171Y-102318796D02*
X198827742Y-102461654D01*
X194327742Y-99890225D02*
X194399171Y-99747368D01*
X194399171Y-99747368D02*
X194399171Y-99533082D01*
X194399171Y-99533082D02*
X194327742Y-99318796D01*
X194327742Y-99318796D02*
X194184885Y-99175939D01*
X194184885Y-99175939D02*
X194042028Y-99104510D01*
X194042028Y-99104510D02*
X193756314Y-99033082D01*
X193756314Y-99033082D02*
X193542028Y-99033082D01*
X193542028Y-99033082D02*
X193256314Y-99104510D01*
X193256314Y-99104510D02*
X193113457Y-99175939D01*
X193113457Y-99175939D02*
X192970600Y-99318796D01*
X192970600Y-99318796D02*
X192899171Y-99533082D01*
X192899171Y-99533082D02*
X192899171Y-99675939D01*
X192899171Y-99675939D02*
X192970600Y-99890225D01*
X192970600Y-99890225D02*
X193042028Y-99961653D01*
X193042028Y-99961653D02*
X193542028Y-99961653D01*
X193542028Y-99961653D02*
X193542028Y-99675939D01*
X193899171Y-100604510D02*
X192899171Y-100604510D01*
X193756314Y-100604510D02*
X193827742Y-100675939D01*
X193827742Y-100675939D02*
X193899171Y-100818796D01*
X193899171Y-100818796D02*
X193899171Y-101033082D01*
X193899171Y-101033082D02*
X193827742Y-101175939D01*
X193827742Y-101175939D02*
X193684885Y-101247368D01*
X193684885Y-101247368D02*
X192899171Y-101247368D01*
X192899171Y-102604511D02*
X194399171Y-102604511D01*
X192970600Y-102604511D02*
X192899171Y-102461653D01*
X192899171Y-102461653D02*
X192899171Y-102175939D01*
X192899171Y-102175939D02*
X192970600Y-102033082D01*
X192970600Y-102033082D02*
X193042028Y-101961653D01*
X193042028Y-101961653D02*
X193184885Y-101890225D01*
X193184885Y-101890225D02*
X193613457Y-101890225D01*
X193613457Y-101890225D02*
X193756314Y-101961653D01*
X193756314Y-101961653D02*
X193827742Y-102033082D01*
X193827742Y-102033082D02*
X193899171Y-102175939D01*
X193899171Y-102175939D02*
X193899171Y-102461653D01*
X193899171Y-102461653D02*
X193827742Y-102604511D01*
D11*
%TO.C,D1*%
X128600000Y-135800000D03*
X130650000Y-135800000D03*
%TD*%
D12*
%TO.C,R9*%
X166400000Y-130800000D03*
X168400000Y-130800000D03*
%TD*%
D13*
%TO.C,C13*%
X163166400Y-99260300D03*
X163166400Y-102385300D03*
%TD*%
D14*
%TO.C,J1*%
X141600000Y-126825000D03*
X142400000Y-126825000D03*
X143200000Y-126825000D03*
X144000000Y-126825000D03*
X144800000Y-126825000D03*
D15*
X138750000Y-126925000D03*
X138750000Y-132375000D03*
X147650000Y-126925000D03*
X147650000Y-132375000D03*
%TD*%
D16*
%TO.C,C8*%
X201000000Y-84925000D03*
X201000000Y-87000000D03*
%TD*%
D17*
%TO.C,C5*%
X181525000Y-78600000D03*
X183600000Y-78600000D03*
%TD*%
D18*
%TO.C,U3*%
X189171000Y-82467800D03*
X189171000Y-83267800D03*
X189171000Y-84067800D03*
X189171000Y-84867800D03*
X189171000Y-85667800D03*
X189171000Y-86467800D03*
X189171000Y-87267800D03*
X189171000Y-88067800D03*
D19*
X190621000Y-89517800D03*
X191421000Y-89517800D03*
X192221000Y-89517800D03*
X193021000Y-89517800D03*
X193821000Y-89517800D03*
X194621000Y-89517800D03*
X195421000Y-89517800D03*
X196221000Y-89517800D03*
D18*
X197671000Y-88067800D03*
X197671000Y-87267800D03*
X197671000Y-86467800D03*
X197671000Y-85667800D03*
X197671000Y-84867800D03*
X197671000Y-84067800D03*
X197671000Y-83267800D03*
X197671000Y-82467800D03*
D19*
X196221000Y-81017800D03*
X195421000Y-81017800D03*
X194621000Y-81017800D03*
X193821000Y-81017800D03*
X193021000Y-81017800D03*
X192221000Y-81017800D03*
X191421000Y-81017800D03*
X190621000Y-81017800D03*
%TD*%
D20*
%TO.C,R6*%
X134200000Y-131400000D03*
X134200000Y-129400000D03*
%TD*%
D16*
%TO.C,C3*%
X174800000Y-122000000D03*
X174800000Y-124075000D03*
%TD*%
D21*
%TO.C,U2*%
X127200000Y-113600000D03*
X128150000Y-113600000D03*
X129100000Y-113600000D03*
X129100000Y-111325000D03*
X127200000Y-111325000D03*
%TD*%
D22*
%TO.C,C7*%
X180875000Y-82600000D03*
X184000000Y-82600000D03*
%TD*%
D17*
%TO.C,C1*%
X127562500Y-122600000D03*
X129637500Y-122600000D03*
%TD*%
D12*
%TO.C,R8*%
X143600000Y-108400000D03*
X145600000Y-108400000D03*
%TD*%
%TO.C,R2*%
X167400000Y-108200000D03*
X169400000Y-108200000D03*
%TD*%
D23*
%TO.C,R7*%
X150200000Y-108400000D03*
X148200000Y-108400000D03*
%TD*%
D13*
%TO.C,C12*%
X158166400Y-99222800D03*
X158166400Y-102347800D03*
%TD*%
D12*
%TO.C,R1*%
X162000000Y-107800000D03*
X164000000Y-107800000D03*
%TD*%
D23*
%TO.C,R10*%
X163800000Y-130800000D03*
X161800000Y-130800000D03*
%TD*%
D12*
%TO.C,R3*%
X167400000Y-117400000D03*
X169400000Y-117400000D03*
%TD*%
D16*
%TO.C,C9*%
X167166400Y-99785300D03*
X167166400Y-101860300D03*
%TD*%
D12*
%TO.C,R4*%
X162400000Y-117400000D03*
X164400000Y-117400000D03*
%TD*%
D17*
%TO.C,C10*%
X151762500Y-113000000D03*
X153837500Y-113000000D03*
%TD*%
D24*
%TO.C,U1*%
X167200600Y-122176800D03*
X166700600Y-122176800D03*
X166200600Y-122176800D03*
X165700600Y-122176800D03*
X165200600Y-122176800D03*
X165200600Y-126576800D03*
X165700600Y-126576800D03*
X166200600Y-126576800D03*
X166700600Y-126576800D03*
X167200600Y-126576800D03*
%TD*%
D25*
%TO.C,Q2*%
X162511000Y-114735400D03*
X164411000Y-114735400D03*
X163461000Y-112860400D03*
%TD*%
D17*
%TO.C,C11*%
X132600000Y-118000000D03*
X134675000Y-118000000D03*
%TD*%
D16*
%TO.C,C4*%
X171800000Y-122000000D03*
X171800000Y-124075000D03*
%TD*%
D17*
%TO.C,C6*%
X178525000Y-74200000D03*
X180600000Y-74200000D03*
%TD*%
D26*
%TO.C,U5*%
X147150000Y-113200000D03*
X146500000Y-113200000D03*
X145850000Y-113200000D03*
X145200000Y-113200000D03*
X144550000Y-113200000D03*
X143900000Y-113200000D03*
X143250000Y-113200000D03*
X142600000Y-113200000D03*
X141950000Y-113200000D03*
X141300000Y-113200000D03*
X140650000Y-113200000D03*
X140000000Y-113200000D03*
X139350000Y-113200000D03*
X138700000Y-113200000D03*
X138700000Y-120400000D03*
X139350000Y-120400000D03*
X140000000Y-120400000D03*
X140650000Y-120400000D03*
X141300000Y-120400000D03*
X141950000Y-120400000D03*
X142600000Y-120400000D03*
X143250000Y-120400000D03*
X143900000Y-120400000D03*
X144550000Y-120400000D03*
X145200000Y-120400000D03*
X145850000Y-120400000D03*
X146500000Y-120400000D03*
X147150000Y-120400000D03*
%TD*%
D27*
%TO.C,Y1*%
X161500000Y-121200000D03*
X158600000Y-121200000D03*
X158600000Y-123500000D03*
X161500000Y-123500000D03*
%TD*%
D25*
%TO.C,Q1*%
X167461000Y-114672900D03*
X169361000Y-114672900D03*
X168411000Y-112797900D03*
%TD*%
D17*
%TO.C,C2*%
X127525000Y-117800000D03*
X129600000Y-117800000D03*
%TD*%
D28*
%TO.C,Y2*%
X185300000Y-89900000D03*
X185300000Y-87000000D03*
X183000000Y-87000000D03*
X183000000Y-89900000D03*
%TD*%
D11*
%TO.C,D2*%
X133800000Y-135800000D03*
X135850000Y-135800000D03*
%TD*%
D20*
%TO.C,R5*%
X129800000Y-131400000D03*
X129800000Y-129400000D03*
%TD*%
M02*
