%TF.GenerationSoftware,KiCad,Pcbnew,7.0.9-1.fc39*%
%TF.CreationDate,2023-11-27T20:11:11+01:00*%
%TF.ProjectId,sis5351a GPS controlled time base,73697335-3335-4316-9120-47505320636f,rev?*%
%TF.SameCoordinates,Original*%
%TF.FileFunction,Copper,L2,Bot*%
%TF.FilePolarity,Positive*%
%FSLAX46Y46*%
G04 Gerber Fmt 4.6, Leading zero omitted, Abs format (unit mm)*
G04 Created by KiCad (PCBNEW 7.0.9-1.fc39) date 2023-11-27 20:11:11*
%MOMM*%
%LPD*%
G01*
G04 APERTURE LIST*
G04 Aperture macros list*
%AMRoundRect*
0 Rectangle with rounded corners*
0 $1 Rounding radius*
0 $2 $3 $4 $5 $6 $7 $8 $9 X,Y pos of 4 corners*
0 Add a 4 corners polygon primitive as box body*
4,1,4,$2,$3,$4,$5,$6,$7,$8,$9,$2,$3,0*
0 Add four circle primitives for the rounded corners*
1,1,$1+$1,$2,$3*
1,1,$1+$1,$4,$5*
1,1,$1+$1,$6,$7*
1,1,$1+$1,$8,$9*
0 Add four rect primitives between the rounded corners*
20,1,$1+$1,$2,$3,$4,$5,0*
20,1,$1+$1,$4,$5,$6,$7,0*
20,1,$1+$1,$6,$7,$8,$9,0*
20,1,$1+$1,$8,$9,$2,$3,0*%
G04 Aperture macros list end*
%TA.AperFunction,ComponentPad*%
%ADD10R,1.700000X1.700000*%
%TD*%
%TA.AperFunction,ComponentPad*%
%ADD11O,1.700000X1.700000*%
%TD*%
%TA.AperFunction,ComponentPad*%
%ADD12RoundRect,0.200100X0.949900X0.949900X-0.949900X0.949900X-0.949900X-0.949900X0.949900X-0.949900X0*%
%TD*%
%TA.AperFunction,ComponentPad*%
%ADD13C,2.500000*%
%TD*%
%TA.AperFunction,ComponentPad*%
%ADD14C,4.000000*%
%TD*%
%TA.AperFunction,ComponentPad*%
%ADD15R,1.905000X2.000000*%
%TD*%
%TA.AperFunction,ComponentPad*%
%ADD16O,1.905000X2.000000*%
%TD*%
%TA.AperFunction,ViaPad*%
%ADD17C,0.800000*%
%TD*%
%TA.AperFunction,Conductor*%
%ADD18C,0.250000*%
%TD*%
G04 APERTURE END LIST*
D10*
%TO.P,J2,1,Pin_1*%
%TO.N,+5V*%
X191000000Y-97186500D03*
D11*
%TO.P,J2,2,Pin_2*%
%TO.N,GND*%
X193540000Y-97186500D03*
%TO.P,J2,3,Pin_3*%
%TO.N,GPS_Tx*%
X196080000Y-97186500D03*
%TO.P,J2,4,Pin_4*%
%TO.N,GPS_Rx*%
X198620000Y-97186500D03*
%TO.P,J2,5,Pin_5*%
%TO.N,1PPS*%
X201160000Y-97186500D03*
%TD*%
D12*
%TO.P,J7,1,In*%
%TO.N,Net-(J7-In)*%
X155740000Y-130740000D03*
D13*
%TO.P,J7,2,Ext*%
%TO.N,GND*%
X158280000Y-133280000D03*
X158280000Y-128200000D03*
X153200000Y-133280000D03*
X153200000Y-128200000D03*
%TD*%
D14*
%TO.P,REF\u002A\u002A,6*%
%TO.N,N/C*%
X206700000Y-96700000D03*
%TO.P,REF\u002A\u002A,7*%
X186200000Y-96700000D03*
%TD*%
D15*
%TO.P,U4,1,IN*%
%TO.N,Vin*%
X158060000Y-92030000D03*
D16*
%TO.P,U4,2,GND*%
%TO.N,GND*%
X160600000Y-92030000D03*
%TO.P,U4,3,OUT*%
%TO.N,+5V*%
X163140000Y-92030000D03*
%TD*%
D12*
%TO.P,J6,1,In*%
%TO.N,Net-(J6-In)*%
X174060000Y-130540000D03*
D13*
%TO.P,J6,2,Ext*%
%TO.N,GND*%
X176600000Y-133080000D03*
X176600000Y-128000000D03*
X171520000Y-133080000D03*
X171520000Y-128000000D03*
%TD*%
D10*
%TO.P,J4,1,Pin_1*%
%TO.N,MISO*%
X182860000Y-66140000D03*
D11*
%TO.P,J4,2,Pin_2*%
%TO.N,+5V*%
X182860000Y-63600000D03*
%TO.P,J4,3,Pin_3*%
%TO.N,SCK*%
X185400000Y-66140000D03*
%TO.P,J4,4,Pin_4*%
%TO.N,MOSI*%
X185400000Y-63600000D03*
%TO.P,J4,5,Pin_5*%
%TO.N,Reset*%
X187940000Y-66140000D03*
%TO.P,J4,6,Pin_6*%
%TO.N,GND*%
X187940000Y-63600000D03*
%TD*%
D10*
%TO.P,J5,1,Pin_1*%
%TO.N,FAlarm*%
X207600000Y-91360000D03*
D11*
%TO.P,J5,2,Pin_2*%
%TO.N,Fsel*%
X207600000Y-88820000D03*
%TO.P,J5,3,Pin_3*%
%TO.N,D8*%
X207600000Y-86280000D03*
%TO.P,J5,4,Pin_4*%
%TO.N,D9*%
X207600000Y-83740000D03*
%TO.P,J5,5,Pin_5*%
%TO.N,D10*%
X207600000Y-81200000D03*
%TO.P,J5,6,Pin_6*%
%TO.N,A0*%
X207600000Y-78660000D03*
%TO.P,J5,7,Pin_7*%
%TO.N,A1*%
X207600000Y-76120000D03*
%TO.P,J5,8,Pin_8*%
%TO.N,A2*%
X207600000Y-73580000D03*
%TO.P,J5,9,Pin_9*%
%TO.N,A3*%
X207600000Y-71040000D03*
%TO.P,J5,10,Pin_10*%
%TO.N,Vin*%
X207600000Y-68500000D03*
%TO.P,J5,11,Pin_11*%
%TO.N,+5V*%
X207600000Y-65960000D03*
%TO.P,J5,12,Pin_12*%
%TO.N,GND*%
X207600000Y-63420000D03*
%TD*%
D10*
%TO.P,J3,1,Pin_1*%
%TO.N,GND*%
X202600000Y-63600000D03*
D11*
%TO.P,J3,2,Pin_2*%
%TO.N,+5V*%
X200060000Y-63600000D03*
%TO.P,J3,3,Pin_3*%
%TO.N,SDA5*%
X197520000Y-63600000D03*
%TO.P,J3,4,Pin_4*%
%TO.N,SCL5*%
X194980000Y-63600000D03*
%TD*%
D17*
%TO.N,+3V3*%
X166698200Y-106416000D03*
X166542300Y-114704700D03*
%TO.N,GND*%
X180600000Y-72800000D03*
X176200000Y-72800000D03*
X193600000Y-103600000D03*
%TO.N,+5V*%
X182800000Y-59400000D03*
X170992800Y-82600000D03*
%TO.N,Reset*%
X159717000Y-113000000D03*
%TO.N,1PPS*%
X186000000Y-69000000D03*
X190600000Y-79200000D03*
X190600000Y-76400000D03*
%TO.N,SDA5*%
X189539200Y-100283300D03*
%TO.N,SCL5*%
X183032900Y-104224000D03*
%TO.N,MISO*%
X201680200Y-83708300D03*
%TO.N,SCK*%
X190573500Y-87118500D03*
X188689100Y-69201600D03*
%TO.N,FAlarm*%
X194184400Y-82467800D03*
%TO.N,Fsel*%
X196251200Y-83267800D03*
%TO.N,SCL3*%
X165931400Y-120810300D03*
X165512500Y-113607900D03*
%TO.N,Net-(U5-CBUS0)*%
X130096500Y-128165800D03*
X141606800Y-122574700D03*
%TO.N,Net-(U5-CBUS1)*%
X143248400Y-121981800D03*
X137688700Y-129010200D03*
%TO.N,USB_RXD*%
X160064100Y-108400000D03*
X185791400Y-81629000D03*
%TO.N,USB_TXD*%
X186515900Y-78324500D03*
X142375700Y-109136300D03*
%TD*%
D18*
%TO.N,+3V3*%
X166698200Y-114548800D02*
X166542300Y-114704700D01*
X166698200Y-106416000D02*
X166698200Y-114548800D01*
%TO.N,GND*%
X193600000Y-103600000D02*
X193540000Y-103540000D01*
X176200000Y-72800000D02*
X176400000Y-72800000D01*
X207420000Y-63600000D02*
X207600000Y-63420000D01*
X180600000Y-72800000D02*
X176200000Y-72800000D01*
X202600000Y-63600000D02*
X207420000Y-63600000D01*
X193540000Y-97186500D02*
X193600000Y-103600000D01*
%TO.N,+5V*%
X182860000Y-63600000D02*
X182860000Y-59460000D01*
X163140000Y-92030000D02*
X164419400Y-92030000D01*
X164419400Y-92030000D02*
X164419400Y-89173400D01*
X164419400Y-89173400D02*
X170992800Y-82600000D01*
X182860000Y-59460000D02*
X182800000Y-59400000D01*
%TO.N,Reset*%
X187940000Y-67316900D02*
X187940000Y-84146300D01*
X187940000Y-66140000D02*
X187940000Y-67316900D01*
X187940000Y-84146300D02*
X159717000Y-112369300D01*
X159717000Y-112369300D02*
X159717000Y-113000000D01*
%TO.N,1PPS*%
X198170496Y-61949100D02*
X185389199Y-61949100D01*
X208775000Y-92535000D02*
X208775000Y-88333299D01*
X185389199Y-61949100D02*
X184225000Y-63113299D01*
X186000000Y-69000000D02*
X185800000Y-69000000D01*
X208086701Y-87645000D02*
X207113299Y-87645000D01*
X201235000Y-63113299D02*
X200546701Y-62425000D01*
X200546701Y-62425000D02*
X199573299Y-62425000D01*
X183370000Y-69000000D02*
X186000000Y-69000000D01*
X199573299Y-62425000D02*
X199109847Y-62888451D01*
X184225000Y-64086701D02*
X184655451Y-64517153D01*
X207113299Y-87645000D02*
X201235000Y-81766701D01*
X181685000Y-64965000D02*
X181685000Y-67315000D01*
X184035000Y-64965000D02*
X181685000Y-64965000D01*
X184035000Y-65137604D02*
X184035000Y-64965000D01*
X201160000Y-97186500D02*
X205811500Y-92535000D01*
X181685000Y-67315000D02*
X183370000Y-69000000D01*
X199109847Y-62888451D02*
X198170496Y-61949100D01*
X190600000Y-76400000D02*
X190600000Y-79200000D01*
X184655451Y-64517153D02*
X184035000Y-65137604D01*
X184225000Y-63113299D02*
X184225000Y-64086701D01*
X201235000Y-81766701D02*
X201235000Y-63113299D01*
X205811500Y-92535000D02*
X208775000Y-92535000D01*
X208775000Y-88333299D02*
X208086701Y-87645000D01*
%TO.N,SDA5*%
X189539200Y-95000600D02*
X189539200Y-100283300D01*
X193016300Y-69280600D02*
X193016300Y-91523500D01*
X197520000Y-63600000D02*
X197520000Y-64776900D01*
X197520000Y-64776900D02*
X193016300Y-69280600D01*
X193016300Y-91523500D02*
X189539200Y-95000600D01*
%TO.N,SCL5*%
X183032900Y-95687100D02*
X191449600Y-87270400D01*
X191449600Y-68307300D02*
X194980000Y-64776900D01*
X194980000Y-63600000D02*
X194980000Y-64776900D01*
X183032900Y-104224000D02*
X183032900Y-95687100D01*
X191449600Y-87270400D02*
X191449600Y-68307300D01*
%TO.N,MISO*%
X184845900Y-64963100D02*
X190305300Y-64963100D01*
X197984100Y-62399100D02*
X198790000Y-63205000D01*
X192869300Y-62399100D02*
X197984100Y-62399100D01*
X182860000Y-66140000D02*
X184036900Y-66140000D01*
X184036900Y-66140000D02*
X184036900Y-65772100D01*
X190305300Y-64963100D02*
X192869300Y-62399100D01*
X198790000Y-63205000D02*
X198790000Y-80818100D01*
X198790000Y-80818100D02*
X201680200Y-83708300D01*
X184036900Y-65772100D02*
X184845900Y-64963100D01*
%TO.N,SCK*%
X190573500Y-87118500D02*
X188689100Y-85234100D01*
X188689100Y-85234100D02*
X188689100Y-69201600D01*
%TO.N,FAlarm*%
X203076600Y-91360000D02*
X194184400Y-82467800D01*
X207600000Y-91360000D02*
X203076600Y-91360000D01*
%TO.N,Fsel*%
X207600000Y-88820000D02*
X206423100Y-88820000D01*
X201803400Y-88820000D02*
X206423100Y-88820000D01*
X196251200Y-83267800D02*
X201803400Y-88820000D01*
%TO.N,SCL3*%
X165931400Y-120810300D02*
X165512500Y-120391400D01*
X165512500Y-120391400D02*
X165512500Y-113607900D01*
%TO.N,Net-(U5-CBUS0)*%
X130096500Y-128165800D02*
X136015700Y-128165800D01*
X136015700Y-128165800D02*
X141606800Y-122574700D01*
%TO.N,Net-(U5-CBUS1)*%
X137688700Y-129010200D02*
X137688700Y-127541500D01*
X137688700Y-127541500D02*
X143248400Y-121981800D01*
%TO.N,USB_RXD*%
X160064100Y-107356300D02*
X160064100Y-108400000D01*
X185791400Y-81629000D02*
X160064100Y-107356300D01*
%TO.N,USB_TXD*%
X186515900Y-79876600D02*
X157256300Y-109136200D01*
X157256300Y-109136300D02*
X142375700Y-109136300D01*
X186515900Y-78324500D02*
X186515900Y-79876600D01*
X157256300Y-109136200D02*
X157256300Y-109136300D01*
%TD*%
M02*
