%TF.GenerationSoftware,KiCad,Pcbnew,7.0.9-1.fc39*%
%TF.CreationDate,2023-11-27T20:11:11+01:00*%
%TF.ProjectId,sis5351a GPS controlled time base,73697335-3335-4316-9120-47505320636f,rev?*%
%TF.SameCoordinates,Original*%
%TF.FileFunction,Soldermask,Top*%
%TF.FilePolarity,Negative*%
%FSLAX46Y46*%
G04 Gerber Fmt 4.6, Leading zero omitted, Abs format (unit mm)*
G04 Created by KiCad (PCBNEW 7.0.9-1.fc39) date 2023-11-27 20:11:11*
%MOMM*%
%LPD*%
G01*
G04 APERTURE LIST*
G04 Aperture macros list*
%AMRoundRect*
0 Rectangle with rounded corners*
0 $1 Rounding radius*
0 $2 $3 $4 $5 $6 $7 $8 $9 X,Y pos of 4 corners*
0 Add a 4 corners polygon primitive as box body*
4,1,4,$2,$3,$4,$5,$6,$7,$8,$9,$2,$3,0*
0 Add four circle primitives for the rounded corners*
1,1,$1+$1,$2,$3*
1,1,$1+$1,$4,$5*
1,1,$1+$1,$6,$7*
1,1,$1+$1,$8,$9*
0 Add four rect primitives between the rounded corners*
20,1,$1+$1,$2,$3,$4,$5,0*
20,1,$1+$1,$4,$5,$6,$7,0*
20,1,$1+$1,$6,$7,$8,$9,0*
20,1,$1+$1,$8,$9,$2,$3,0*%
G04 Aperture macros list end*
%ADD10RoundRect,0.250000X-0.325000X-0.450000X0.325000X-0.450000X0.325000X0.450000X-0.325000X0.450000X0*%
%ADD11RoundRect,0.250000X-0.350000X-0.450000X0.350000X-0.450000X0.350000X0.450000X-0.350000X0.450000X0*%
%ADD12RoundRect,0.250000X-0.650000X0.412500X-0.650000X-0.412500X0.650000X-0.412500X0.650000X0.412500X0*%
%ADD13C,1.000000*%
%ADD14R,0.500000X2.000000*%
%ADD15R,2.000000X1.700000*%
%ADD16RoundRect,0.250000X-0.475000X0.337500X-0.475000X-0.337500X0.475000X-0.337500X0.475000X0.337500X0*%
%ADD17RoundRect,0.250000X-0.337500X-0.475000X0.337500X-0.475000X0.337500X0.475000X-0.337500X0.475000X0*%
%ADD18R,1.600000X0.550000*%
%ADD19R,0.550000X1.600000*%
%ADD20RoundRect,0.250000X0.450000X-0.350000X0.450000X0.350000X-0.450000X0.350000X-0.450000X-0.350000X0*%
%ADD21R,1.700000X1.700000*%
%ADD22O,1.700000X1.700000*%
%ADD23RoundRect,0.150000X0.150000X-0.512500X0.150000X0.512500X-0.150000X0.512500X-0.150000X-0.512500X0*%
%ADD24RoundRect,0.250000X-0.412500X-0.650000X0.412500X-0.650000X0.412500X0.650000X-0.412500X0.650000X0*%
%ADD25RoundRect,0.250000X0.350000X0.450000X-0.350000X0.450000X-0.350000X-0.450000X0.350000X-0.450000X0*%
%ADD26RoundRect,0.200100X0.949900X0.949900X-0.949900X0.949900X-0.949900X-0.949900X0.949900X-0.949900X0*%
%ADD27C,2.500000*%
%ADD28R,0.300000X1.400000*%
%ADD29C,4.000000*%
%ADD30RoundRect,0.150000X0.150000X-0.587500X0.150000X0.587500X-0.150000X0.587500X-0.150000X-0.587500X0*%
%ADD31O,3.500000X3.500000*%
%ADD32R,1.905000X2.000000*%
%ADD33O,1.905000X2.000000*%
%ADD34R,0.450000X1.750000*%
%ADD35R,2.100000X1.800000*%
%ADD36R,1.800000X2.100000*%
G04 APERTURE END LIST*
D10*
%TO.C,D1*%
X128600000Y-135800000D03*
X130650000Y-135800000D03*
%TD*%
D11*
%TO.C,R9*%
X166400000Y-130800000D03*
X168400000Y-130800000D03*
%TD*%
D12*
%TO.C,C13*%
X163166400Y-99260300D03*
X163166400Y-102385300D03*
%TD*%
D13*
%TO.C,J1*%
X141000000Y-129525000D03*
X145400000Y-129525000D03*
D14*
X141600000Y-126825000D03*
X142400000Y-126825000D03*
X143200000Y-126825000D03*
X144000000Y-126825000D03*
X144800000Y-126825000D03*
D15*
X138750000Y-126925000D03*
X138750000Y-132375000D03*
X147650000Y-126925000D03*
X147650000Y-132375000D03*
%TD*%
D16*
%TO.C,C8*%
X201000000Y-84925000D03*
X201000000Y-87000000D03*
%TD*%
D17*
%TO.C,C5*%
X181525000Y-78600000D03*
X183600000Y-78600000D03*
%TD*%
D18*
%TO.C,U3*%
X189171000Y-82467800D03*
X189171000Y-83267800D03*
X189171000Y-84067800D03*
X189171000Y-84867800D03*
X189171000Y-85667800D03*
X189171000Y-86467800D03*
X189171000Y-87267800D03*
X189171000Y-88067800D03*
D19*
X190621000Y-89517800D03*
X191421000Y-89517800D03*
X192221000Y-89517800D03*
X193021000Y-89517800D03*
X193821000Y-89517800D03*
X194621000Y-89517800D03*
X195421000Y-89517800D03*
X196221000Y-89517800D03*
D18*
X197671000Y-88067800D03*
X197671000Y-87267800D03*
X197671000Y-86467800D03*
X197671000Y-85667800D03*
X197671000Y-84867800D03*
X197671000Y-84067800D03*
X197671000Y-83267800D03*
X197671000Y-82467800D03*
D19*
X196221000Y-81017800D03*
X195421000Y-81017800D03*
X194621000Y-81017800D03*
X193821000Y-81017800D03*
X193021000Y-81017800D03*
X192221000Y-81017800D03*
X191421000Y-81017800D03*
X190621000Y-81017800D03*
%TD*%
D20*
%TO.C,R6*%
X134200000Y-131400000D03*
X134200000Y-129400000D03*
%TD*%
D21*
%TO.C,J2*%
X191000000Y-97186500D03*
D22*
X193540000Y-97186500D03*
X196080000Y-97186500D03*
X198620000Y-97186500D03*
X201160000Y-97186500D03*
%TD*%
D16*
%TO.C,C3*%
X174800000Y-122000000D03*
X174800000Y-124075000D03*
%TD*%
D23*
%TO.C,U2*%
X127200000Y-113600000D03*
X128150000Y-113600000D03*
X129100000Y-113600000D03*
X129100000Y-111325000D03*
X127200000Y-111325000D03*
%TD*%
D24*
%TO.C,C7*%
X180875000Y-82600000D03*
X184000000Y-82600000D03*
%TD*%
D17*
%TO.C,C1*%
X127562500Y-122600000D03*
X129637500Y-122600000D03*
%TD*%
D11*
%TO.C,R8*%
X143600000Y-108400000D03*
X145600000Y-108400000D03*
%TD*%
%TO.C,R2*%
X167400000Y-108200000D03*
X169400000Y-108200000D03*
%TD*%
D25*
%TO.C,R7*%
X150200000Y-108400000D03*
X148200000Y-108400000D03*
%TD*%
D12*
%TO.C,C12*%
X158166400Y-99222800D03*
X158166400Y-102347800D03*
%TD*%
D11*
%TO.C,R1*%
X162000000Y-107800000D03*
X164000000Y-107800000D03*
%TD*%
D25*
%TO.C,R10*%
X163800000Y-130800000D03*
X161800000Y-130800000D03*
%TD*%
D11*
%TO.C,R3*%
X167400000Y-117400000D03*
X169400000Y-117400000D03*
%TD*%
D16*
%TO.C,C9*%
X167166400Y-99785300D03*
X167166400Y-101860300D03*
%TD*%
D26*
%TO.C,J7*%
X155740000Y-130740000D03*
D27*
X158280000Y-133280000D03*
X158280000Y-128200000D03*
X153200000Y-133280000D03*
X153200000Y-128200000D03*
%TD*%
D11*
%TO.C,R4*%
X162400000Y-117400000D03*
X164400000Y-117400000D03*
%TD*%
D17*
%TO.C,C10*%
X151762500Y-113000000D03*
X153837500Y-113000000D03*
%TD*%
D28*
%TO.C,U1*%
X167200600Y-122176800D03*
X166700600Y-122176800D03*
X166200600Y-122176800D03*
X165700600Y-122176800D03*
X165200600Y-122176800D03*
X165200600Y-126576800D03*
X165700600Y-126576800D03*
X166200600Y-126576800D03*
X166700600Y-126576800D03*
X167200600Y-126576800D03*
%TD*%
D29*
%TO.C,REF\u002A\u002A*%
X206700000Y-96700000D03*
X186200000Y-96700000D03*
%TD*%
D30*
%TO.C,Q2*%
X162511000Y-114735400D03*
X164411000Y-114735400D03*
X163461000Y-112860400D03*
%TD*%
D17*
%TO.C,C11*%
X132600000Y-118000000D03*
X134675000Y-118000000D03*
%TD*%
D16*
%TO.C,C4*%
X171800000Y-122000000D03*
X171800000Y-124075000D03*
%TD*%
D31*
%TO.C,U4*%
X160600000Y-75370000D03*
D32*
X158060000Y-92030000D03*
D33*
X160600000Y-92030000D03*
X163140000Y-92030000D03*
%TD*%
D17*
%TO.C,C6*%
X178525000Y-74200000D03*
X180600000Y-74200000D03*
%TD*%
D26*
%TO.C,J6*%
X174060000Y-130540000D03*
D27*
X176600000Y-133080000D03*
X176600000Y-128000000D03*
X171520000Y-133080000D03*
X171520000Y-128000000D03*
%TD*%
D34*
%TO.C,U5*%
X147150000Y-113200000D03*
X146500000Y-113200000D03*
X145850000Y-113200000D03*
X145200000Y-113200000D03*
X144550000Y-113200000D03*
X143900000Y-113200000D03*
X143250000Y-113200000D03*
X142600000Y-113200000D03*
X141950000Y-113200000D03*
X141300000Y-113200000D03*
X140650000Y-113200000D03*
X140000000Y-113200000D03*
X139350000Y-113200000D03*
X138700000Y-113200000D03*
X138700000Y-120400000D03*
X139350000Y-120400000D03*
X140000000Y-120400000D03*
X140650000Y-120400000D03*
X141300000Y-120400000D03*
X141950000Y-120400000D03*
X142600000Y-120400000D03*
X143250000Y-120400000D03*
X143900000Y-120400000D03*
X144550000Y-120400000D03*
X145200000Y-120400000D03*
X145850000Y-120400000D03*
X146500000Y-120400000D03*
X147150000Y-120400000D03*
%TD*%
D35*
%TO.C,Y1*%
X161500000Y-121200000D03*
X158600000Y-121200000D03*
X158600000Y-123500000D03*
X161500000Y-123500000D03*
%TD*%
D21*
%TO.C,J4*%
X182860000Y-66140000D03*
D22*
X182860000Y-63600000D03*
X185400000Y-66140000D03*
X185400000Y-63600000D03*
X187940000Y-66140000D03*
X187940000Y-63600000D03*
%TD*%
D30*
%TO.C,Q1*%
X167461000Y-114672900D03*
X169361000Y-114672900D03*
X168411000Y-112797900D03*
%TD*%
D21*
%TO.C,J5*%
X207600000Y-91360000D03*
D22*
X207600000Y-88820000D03*
X207600000Y-86280000D03*
X207600000Y-83740000D03*
X207600000Y-81200000D03*
X207600000Y-78660000D03*
X207600000Y-76120000D03*
X207600000Y-73580000D03*
X207600000Y-71040000D03*
X207600000Y-68500000D03*
X207600000Y-65960000D03*
X207600000Y-63420000D03*
%TD*%
D17*
%TO.C,C2*%
X127525000Y-117800000D03*
X129600000Y-117800000D03*
%TD*%
D36*
%TO.C,Y2*%
X185300000Y-89900000D03*
X185300000Y-87000000D03*
X183000000Y-87000000D03*
X183000000Y-89900000D03*
%TD*%
D10*
%TO.C,D2*%
X133800000Y-135800000D03*
X135850000Y-135800000D03*
%TD*%
D21*
%TO.C,J3*%
X202600000Y-63600000D03*
D22*
X200060000Y-63600000D03*
X197520000Y-63600000D03*
X194980000Y-63600000D03*
%TD*%
D20*
%TO.C,R5*%
X129800000Y-131400000D03*
X129800000Y-129400000D03*
%TD*%
M02*
