M48
; DRILL file {KiCad 8.0.3} date 2024-07-02T16:04:21+0200
; FORMAT={-:-/ absolute / inch / decimal}
; #@! TF.CreationDate,2024-07-02T16:04:21+02:00
; #@! TF.GenerationSoftware,Kicad,Pcbnew,8.0.3
; #@! TF.FileFunction,Plated,1,2,PTH
FMAT,2
INCH
; #@! TA.AperFunction,Plated,PTH,ViaDrill
T1C0.0157
; #@! TA.AperFunction,Plated,PTH,ComponentDrill
T2C0.0197
; #@! TA.AperFunction,Plated,PTH,ComponentDrill
T3C0.0394
; #@! TA.AperFunction,Plated,PTH,ComponentDrill
T4C0.0433
; #@! TA.AperFunction,Plated,PTH,ComponentDrill
T5C0.0591
; #@! TA.AperFunction,Plated,PTH,ComponentDrill
T6C0.0669
; #@! TA.AperFunction,Plated,PTH,ComponentDrill
T7C0.1181
%
G90
G05
T1
X5.1219Y-5.0459
X5.4208Y-5.0791
X5.5728Y-4.9567
X5.5751Y-4.8258
X5.5866Y-5.0768
X5.6053Y-4.2967
X5.6397Y-4.8024
X6.2881Y-4.4488
X6.3017Y-4.2677
X6.4469Y-4.7598
X6.4469Y-4.8858
X6.5162Y-4.4728
X6.5327Y-4.7563
X6.5568Y-4.5159
X6.5629Y-4.1896
X6.6181Y-4.3366
X6.732Y-3.252
X6.7598Y-4.2598
X6.9469Y-2.7933
X7.1949Y-3.4213
X7.1969Y-2.3386
X7.2303Y-2.7913
X7.3146Y-3.2137
X7.3228Y-2.7165
X7.3268Y-3.2795
X7.3406Y-4.252
X7.3431Y-3.0836
X7.4287Y-2.7245
X7.5029Y-3.4299
X7.5039Y-3.0079
X7.5039Y-3.1181
X7.624Y-4.252
X7.6451Y-3.2468
X7.7264Y-3.2783
X7.9402Y-3.2956
T3
X7.1992Y-2.5039
X7.1992Y-2.6039
X7.2992Y-2.5039
X7.2992Y-2.6039
X7.3992Y-2.5039
X7.3992Y-2.6039
X7.5209Y-3.9488
X7.6209Y-3.9488
X7.6764Y-2.5039
X7.7209Y-3.9488
X7.7764Y-2.5039
X7.8209Y-3.9488
X7.8764Y-2.5039
X7.9209Y-3.9488
X7.9764Y-2.5039
X8.1732Y-2.4969
X8.1732Y-2.5969
X8.1732Y-2.6969
X8.1732Y-2.7969
X8.1732Y-2.8969
X8.1732Y-2.9969
X8.1732Y-3.0969
X8.1732Y-3.1969
X8.1732Y-3.2969
X8.1732Y-3.3969
X8.1732Y-3.4969
X8.1732Y-3.5969
T4
X6.2228Y-3.6232
X6.3228Y-3.6232
X6.4228Y-3.6232
T5
X6.1299Y-5.1988
X6.8528Y-5.2008
T6
X6.0299Y-5.0988
X6.0299Y-5.2988
X6.2299Y-5.0988
X6.2299Y-5.2988
X6.7528Y-5.1008
X6.7528Y-5.3008
X6.9528Y-5.1008
X6.9528Y-5.3008
T7
X5.063Y-2.3465
X5.2756Y-4.8976
X7.3352Y-3.9559
X8.1423Y-3.9559
X8.3307Y-2.3465
X8.3465Y-4.8976
T2
G00X5.4921Y-5.3445
M15
G01X5.4921Y-5.3169
M16
G05
G00X5.752Y-5.3445
M15
G01X5.752Y-5.3169
M16
G05
M30
