%TF.GenerationSoftware,KiCad,Pcbnew,8.0.3-1.fc40*%
%TF.CreationDate,2024-07-02T21:04:11+02:00*%
%TF.ProjectId,sis5351a GPS controlled time base,73697335-3335-4316-9120-47505320636f,rev?*%
%TF.SameCoordinates,Original*%
%TF.FileFunction,Drillmap*%
%TF.FilePolarity,Positive*%
%FSLAX45Y45*%
G04 Gerber Fmt 4.5, Leading zero omitted, Abs format (unit mm)*
G04 Created by KiCad (PCBNEW 8.0.3-1.fc40) date 2024-07-02 21:04:11*
%MOMM*%
%LPD*%
G01*
G04 APERTURE LIST*
%ADD10C,0.100000*%
%ADD11C,0.200000*%
%ADD12C,0.350000*%
G04 APERTURE END LIST*
D10*
X12460160Y-5511700D02*
X21548540Y-5511700D01*
X21548540Y-13757040D01*
X12460160Y-13757040D01*
X12460160Y-5511700D01*
D11*
D12*
X15885000Y-7362000D02*
X16235000Y-7712000D01*
X16235000Y-7362000D02*
X15885000Y-7712000D01*
D11*
X12715937Y-14073524D02*
X12715937Y-13873524D01*
X12715937Y-13873524D02*
X12763556Y-13873524D01*
X12763556Y-13873524D02*
X12792127Y-13883048D01*
X12792127Y-13883048D02*
X12811175Y-13902095D01*
X12811175Y-13902095D02*
X12820699Y-13921143D01*
X12820699Y-13921143D02*
X12830222Y-13959238D01*
X12830222Y-13959238D02*
X12830222Y-13987809D01*
X12830222Y-13987809D02*
X12820699Y-14025905D01*
X12820699Y-14025905D02*
X12811175Y-14044952D01*
X12811175Y-14044952D02*
X12792127Y-14064000D01*
X12792127Y-14064000D02*
X12763556Y-14073524D01*
X12763556Y-14073524D02*
X12715937Y-14073524D01*
X12915937Y-14073524D02*
X12915937Y-13940190D01*
X12915937Y-13978286D02*
X12925461Y-13959238D01*
X12925461Y-13959238D02*
X12934984Y-13949714D01*
X12934984Y-13949714D02*
X12954032Y-13940190D01*
X12954032Y-13940190D02*
X12973080Y-13940190D01*
X13039746Y-14073524D02*
X13039746Y-13940190D01*
X13039746Y-13873524D02*
X13030222Y-13883048D01*
X13030222Y-13883048D02*
X13039746Y-13892571D01*
X13039746Y-13892571D02*
X13049270Y-13883048D01*
X13049270Y-13883048D02*
X13039746Y-13873524D01*
X13039746Y-13873524D02*
X13039746Y-13892571D01*
X13163556Y-14073524D02*
X13144508Y-14064000D01*
X13144508Y-14064000D02*
X13134984Y-14044952D01*
X13134984Y-14044952D02*
X13134984Y-13873524D01*
X13268318Y-14073524D02*
X13249270Y-14064000D01*
X13249270Y-14064000D02*
X13239746Y-14044952D01*
X13239746Y-14044952D02*
X13239746Y-13873524D01*
X13496889Y-14073524D02*
X13496889Y-13873524D01*
X13496889Y-13873524D02*
X13563556Y-14016381D01*
X13563556Y-14016381D02*
X13630222Y-13873524D01*
X13630222Y-13873524D02*
X13630222Y-14073524D01*
X13811175Y-14073524D02*
X13811175Y-13968762D01*
X13811175Y-13968762D02*
X13801651Y-13949714D01*
X13801651Y-13949714D02*
X13782603Y-13940190D01*
X13782603Y-13940190D02*
X13744508Y-13940190D01*
X13744508Y-13940190D02*
X13725461Y-13949714D01*
X13811175Y-14064000D02*
X13792127Y-14073524D01*
X13792127Y-14073524D02*
X13744508Y-14073524D01*
X13744508Y-14073524D02*
X13725461Y-14064000D01*
X13725461Y-14064000D02*
X13715937Y-14044952D01*
X13715937Y-14044952D02*
X13715937Y-14025905D01*
X13715937Y-14025905D02*
X13725461Y-14006857D01*
X13725461Y-14006857D02*
X13744508Y-13997333D01*
X13744508Y-13997333D02*
X13792127Y-13997333D01*
X13792127Y-13997333D02*
X13811175Y-13987809D01*
X13906413Y-13940190D02*
X13906413Y-14140190D01*
X13906413Y-13949714D02*
X13925461Y-13940190D01*
X13925461Y-13940190D02*
X13963556Y-13940190D01*
X13963556Y-13940190D02*
X13982603Y-13949714D01*
X13982603Y-13949714D02*
X13992127Y-13959238D01*
X13992127Y-13959238D02*
X14001651Y-13978286D01*
X14001651Y-13978286D02*
X14001651Y-14035428D01*
X14001651Y-14035428D02*
X13992127Y-14054476D01*
X13992127Y-14054476D02*
X13982603Y-14064000D01*
X13982603Y-14064000D02*
X13963556Y-14073524D01*
X13963556Y-14073524D02*
X13925461Y-14073524D01*
X13925461Y-14073524D02*
X13906413Y-14064000D01*
X14087365Y-14054476D02*
X14096889Y-14064000D01*
X14096889Y-14064000D02*
X14087365Y-14073524D01*
X14087365Y-14073524D02*
X14077842Y-14064000D01*
X14077842Y-14064000D02*
X14087365Y-14054476D01*
X14087365Y-14054476D02*
X14087365Y-14073524D01*
X14087365Y-13949714D02*
X14096889Y-13959238D01*
X14096889Y-13959238D02*
X14087365Y-13968762D01*
X14087365Y-13968762D02*
X14077842Y-13959238D01*
X14077842Y-13959238D02*
X14087365Y-13949714D01*
X14087365Y-13949714D02*
X14087365Y-13968762D01*
X12255160Y-14302040D02*
X12455160Y-14502040D01*
X12455160Y-14302040D02*
X12255160Y-14502040D01*
X12696889Y-14293524D02*
X12820699Y-14293524D01*
X12820699Y-14293524D02*
X12754032Y-14369714D01*
X12754032Y-14369714D02*
X12782603Y-14369714D01*
X12782603Y-14369714D02*
X12801651Y-14379238D01*
X12801651Y-14379238D02*
X12811175Y-14388762D01*
X12811175Y-14388762D02*
X12820699Y-14407809D01*
X12820699Y-14407809D02*
X12820699Y-14455428D01*
X12820699Y-14455428D02*
X12811175Y-14474476D01*
X12811175Y-14474476D02*
X12801651Y-14484000D01*
X12801651Y-14484000D02*
X12782603Y-14493524D01*
X12782603Y-14493524D02*
X12725461Y-14493524D01*
X12725461Y-14493524D02*
X12706413Y-14484000D01*
X12706413Y-14484000D02*
X12696889Y-14474476D01*
X12906413Y-14474476D02*
X12915937Y-14484000D01*
X12915937Y-14484000D02*
X12906413Y-14493524D01*
X12906413Y-14493524D02*
X12896889Y-14484000D01*
X12896889Y-14484000D02*
X12906413Y-14474476D01*
X12906413Y-14474476D02*
X12906413Y-14493524D01*
X13096889Y-14293524D02*
X13001651Y-14293524D01*
X13001651Y-14293524D02*
X12992127Y-14388762D01*
X12992127Y-14388762D02*
X13001651Y-14379238D01*
X13001651Y-14379238D02*
X13020699Y-14369714D01*
X13020699Y-14369714D02*
X13068318Y-14369714D01*
X13068318Y-14369714D02*
X13087365Y-14379238D01*
X13087365Y-14379238D02*
X13096889Y-14388762D01*
X13096889Y-14388762D02*
X13106413Y-14407809D01*
X13106413Y-14407809D02*
X13106413Y-14455428D01*
X13106413Y-14455428D02*
X13096889Y-14474476D01*
X13096889Y-14474476D02*
X13087365Y-14484000D01*
X13087365Y-14484000D02*
X13068318Y-14493524D01*
X13068318Y-14493524D02*
X13020699Y-14493524D01*
X13020699Y-14493524D02*
X13001651Y-14484000D01*
X13001651Y-14484000D02*
X12992127Y-14474476D01*
X13230222Y-14293524D02*
X13249270Y-14293524D01*
X13249270Y-14293524D02*
X13268318Y-14303048D01*
X13268318Y-14303048D02*
X13277842Y-14312571D01*
X13277842Y-14312571D02*
X13287365Y-14331619D01*
X13287365Y-14331619D02*
X13296889Y-14369714D01*
X13296889Y-14369714D02*
X13296889Y-14417333D01*
X13296889Y-14417333D02*
X13287365Y-14455428D01*
X13287365Y-14455428D02*
X13277842Y-14474476D01*
X13277842Y-14474476D02*
X13268318Y-14484000D01*
X13268318Y-14484000D02*
X13249270Y-14493524D01*
X13249270Y-14493524D02*
X13230222Y-14493524D01*
X13230222Y-14493524D02*
X13211175Y-14484000D01*
X13211175Y-14484000D02*
X13201651Y-14474476D01*
X13201651Y-14474476D02*
X13192127Y-14455428D01*
X13192127Y-14455428D02*
X13182603Y-14417333D01*
X13182603Y-14417333D02*
X13182603Y-14369714D01*
X13182603Y-14369714D02*
X13192127Y-14331619D01*
X13192127Y-14331619D02*
X13201651Y-14312571D01*
X13201651Y-14312571D02*
X13211175Y-14303048D01*
X13211175Y-14303048D02*
X13230222Y-14293524D01*
X13420699Y-14293524D02*
X13439746Y-14293524D01*
X13439746Y-14293524D02*
X13458794Y-14303048D01*
X13458794Y-14303048D02*
X13468318Y-14312571D01*
X13468318Y-14312571D02*
X13477842Y-14331619D01*
X13477842Y-14331619D02*
X13487365Y-14369714D01*
X13487365Y-14369714D02*
X13487365Y-14417333D01*
X13487365Y-14417333D02*
X13477842Y-14455428D01*
X13477842Y-14455428D02*
X13468318Y-14474476D01*
X13468318Y-14474476D02*
X13458794Y-14484000D01*
X13458794Y-14484000D02*
X13439746Y-14493524D01*
X13439746Y-14493524D02*
X13420699Y-14493524D01*
X13420699Y-14493524D02*
X13401651Y-14484000D01*
X13401651Y-14484000D02*
X13392127Y-14474476D01*
X13392127Y-14474476D02*
X13382603Y-14455428D01*
X13382603Y-14455428D02*
X13373080Y-14417333D01*
X13373080Y-14417333D02*
X13373080Y-14369714D01*
X13373080Y-14369714D02*
X13382603Y-14331619D01*
X13382603Y-14331619D02*
X13392127Y-14312571D01*
X13392127Y-14312571D02*
X13401651Y-14303048D01*
X13401651Y-14303048D02*
X13420699Y-14293524D01*
X13573080Y-14493524D02*
X13573080Y-14360190D01*
X13573080Y-14379238D02*
X13582603Y-14369714D01*
X13582603Y-14369714D02*
X13601651Y-14360190D01*
X13601651Y-14360190D02*
X13630223Y-14360190D01*
X13630223Y-14360190D02*
X13649270Y-14369714D01*
X13649270Y-14369714D02*
X13658794Y-14388762D01*
X13658794Y-14388762D02*
X13658794Y-14493524D01*
X13658794Y-14388762D02*
X13668318Y-14369714D01*
X13668318Y-14369714D02*
X13687365Y-14360190D01*
X13687365Y-14360190D02*
X13715937Y-14360190D01*
X13715937Y-14360190D02*
X13734984Y-14369714D01*
X13734984Y-14369714D02*
X13744508Y-14388762D01*
X13744508Y-14388762D02*
X13744508Y-14493524D01*
X13839746Y-14493524D02*
X13839746Y-14360190D01*
X13839746Y-14379238D02*
X13849270Y-14369714D01*
X13849270Y-14369714D02*
X13868318Y-14360190D01*
X13868318Y-14360190D02*
X13896889Y-14360190D01*
X13896889Y-14360190D02*
X13915937Y-14369714D01*
X13915937Y-14369714D02*
X13925461Y-14388762D01*
X13925461Y-14388762D02*
X13925461Y-14493524D01*
X13925461Y-14388762D02*
X13934984Y-14369714D01*
X13934984Y-14369714D02*
X13954032Y-14360190D01*
X13954032Y-14360190D02*
X13982603Y-14360190D01*
X13982603Y-14360190D02*
X14001651Y-14369714D01*
X14001651Y-14369714D02*
X14011175Y-14388762D01*
X14011175Y-14388762D02*
X14011175Y-14493524D01*
X14401651Y-14284000D02*
X14230223Y-14541143D01*
X14658794Y-14293524D02*
X14677842Y-14293524D01*
X14677842Y-14293524D02*
X14696889Y-14303048D01*
X14696889Y-14303048D02*
X14706413Y-14312571D01*
X14706413Y-14312571D02*
X14715937Y-14331619D01*
X14715937Y-14331619D02*
X14725461Y-14369714D01*
X14725461Y-14369714D02*
X14725461Y-14417333D01*
X14725461Y-14417333D02*
X14715937Y-14455428D01*
X14715937Y-14455428D02*
X14706413Y-14474476D01*
X14706413Y-14474476D02*
X14696889Y-14484000D01*
X14696889Y-14484000D02*
X14677842Y-14493524D01*
X14677842Y-14493524D02*
X14658794Y-14493524D01*
X14658794Y-14493524D02*
X14639746Y-14484000D01*
X14639746Y-14484000D02*
X14630223Y-14474476D01*
X14630223Y-14474476D02*
X14620699Y-14455428D01*
X14620699Y-14455428D02*
X14611175Y-14417333D01*
X14611175Y-14417333D02*
X14611175Y-14369714D01*
X14611175Y-14369714D02*
X14620699Y-14331619D01*
X14620699Y-14331619D02*
X14630223Y-14312571D01*
X14630223Y-14312571D02*
X14639746Y-14303048D01*
X14639746Y-14303048D02*
X14658794Y-14293524D01*
X14811175Y-14474476D02*
X14820699Y-14484000D01*
X14820699Y-14484000D02*
X14811175Y-14493524D01*
X14811175Y-14493524D02*
X14801651Y-14484000D01*
X14801651Y-14484000D02*
X14811175Y-14474476D01*
X14811175Y-14474476D02*
X14811175Y-14493524D01*
X15011175Y-14493524D02*
X14896889Y-14493524D01*
X14954032Y-14493524D02*
X14954032Y-14293524D01*
X14954032Y-14293524D02*
X14934985Y-14322095D01*
X14934985Y-14322095D02*
X14915937Y-14341143D01*
X14915937Y-14341143D02*
X14896889Y-14350667D01*
X15077842Y-14293524D02*
X15201651Y-14293524D01*
X15201651Y-14293524D02*
X15134985Y-14369714D01*
X15134985Y-14369714D02*
X15163556Y-14369714D01*
X15163556Y-14369714D02*
X15182604Y-14379238D01*
X15182604Y-14379238D02*
X15192127Y-14388762D01*
X15192127Y-14388762D02*
X15201651Y-14407809D01*
X15201651Y-14407809D02*
X15201651Y-14455428D01*
X15201651Y-14455428D02*
X15192127Y-14474476D01*
X15192127Y-14474476D02*
X15182604Y-14484000D01*
X15182604Y-14484000D02*
X15163556Y-14493524D01*
X15163556Y-14493524D02*
X15106413Y-14493524D01*
X15106413Y-14493524D02*
X15087366Y-14484000D01*
X15087366Y-14484000D02*
X15077842Y-14474476D01*
X15268318Y-14293524D02*
X15401651Y-14293524D01*
X15401651Y-14293524D02*
X15315937Y-14493524D01*
X15506413Y-14379238D02*
X15487366Y-14369714D01*
X15487366Y-14369714D02*
X15477842Y-14360190D01*
X15477842Y-14360190D02*
X15468318Y-14341143D01*
X15468318Y-14341143D02*
X15468318Y-14331619D01*
X15468318Y-14331619D02*
X15477842Y-14312571D01*
X15477842Y-14312571D02*
X15487366Y-14303048D01*
X15487366Y-14303048D02*
X15506413Y-14293524D01*
X15506413Y-14293524D02*
X15544508Y-14293524D01*
X15544508Y-14293524D02*
X15563556Y-14303048D01*
X15563556Y-14303048D02*
X15573080Y-14312571D01*
X15573080Y-14312571D02*
X15582604Y-14331619D01*
X15582604Y-14331619D02*
X15582604Y-14341143D01*
X15582604Y-14341143D02*
X15573080Y-14360190D01*
X15573080Y-14360190D02*
X15563556Y-14369714D01*
X15563556Y-14369714D02*
X15544508Y-14379238D01*
X15544508Y-14379238D02*
X15506413Y-14379238D01*
X15506413Y-14379238D02*
X15487366Y-14388762D01*
X15487366Y-14388762D02*
X15477842Y-14398286D01*
X15477842Y-14398286D02*
X15468318Y-14417333D01*
X15468318Y-14417333D02*
X15468318Y-14455428D01*
X15468318Y-14455428D02*
X15477842Y-14474476D01*
X15477842Y-14474476D02*
X15487366Y-14484000D01*
X15487366Y-14484000D02*
X15506413Y-14493524D01*
X15506413Y-14493524D02*
X15544508Y-14493524D01*
X15544508Y-14493524D02*
X15563556Y-14484000D01*
X15563556Y-14484000D02*
X15573080Y-14474476D01*
X15573080Y-14474476D02*
X15582604Y-14455428D01*
X15582604Y-14455428D02*
X15582604Y-14417333D01*
X15582604Y-14417333D02*
X15573080Y-14398286D01*
X15573080Y-14398286D02*
X15563556Y-14388762D01*
X15563556Y-14388762D02*
X15544508Y-14379238D01*
X15658794Y-14293524D02*
X15658794Y-14331619D01*
X15734985Y-14293524D02*
X15734985Y-14331619D01*
X16030223Y-14569714D02*
X16020699Y-14560190D01*
X16020699Y-14560190D02*
X16001651Y-14531619D01*
X16001651Y-14531619D02*
X15992128Y-14512571D01*
X15992128Y-14512571D02*
X15982604Y-14484000D01*
X15982604Y-14484000D02*
X15973080Y-14436381D01*
X15973080Y-14436381D02*
X15973080Y-14398286D01*
X15973080Y-14398286D02*
X15982604Y-14350667D01*
X15982604Y-14350667D02*
X15992128Y-14322095D01*
X15992128Y-14322095D02*
X16001651Y-14303048D01*
X16001651Y-14303048D02*
X16020699Y-14274476D01*
X16020699Y-14274476D02*
X16030223Y-14264952D01*
X16211175Y-14493524D02*
X16096889Y-14493524D01*
X16154032Y-14493524D02*
X16154032Y-14293524D01*
X16154032Y-14293524D02*
X16134985Y-14322095D01*
X16134985Y-14322095D02*
X16115937Y-14341143D01*
X16115937Y-14341143D02*
X16096889Y-14350667D01*
X16449270Y-14493524D02*
X16449270Y-14293524D01*
X16534985Y-14493524D02*
X16534985Y-14388762D01*
X16534985Y-14388762D02*
X16525461Y-14369714D01*
X16525461Y-14369714D02*
X16506413Y-14360190D01*
X16506413Y-14360190D02*
X16477842Y-14360190D01*
X16477842Y-14360190D02*
X16458794Y-14369714D01*
X16458794Y-14369714D02*
X16449270Y-14379238D01*
X16658794Y-14493524D02*
X16639747Y-14484000D01*
X16639747Y-14484000D02*
X16630223Y-14474476D01*
X16630223Y-14474476D02*
X16620699Y-14455428D01*
X16620699Y-14455428D02*
X16620699Y-14398286D01*
X16620699Y-14398286D02*
X16630223Y-14379238D01*
X16630223Y-14379238D02*
X16639747Y-14369714D01*
X16639747Y-14369714D02*
X16658794Y-14360190D01*
X16658794Y-14360190D02*
X16687366Y-14360190D01*
X16687366Y-14360190D02*
X16706413Y-14369714D01*
X16706413Y-14369714D02*
X16715937Y-14379238D01*
X16715937Y-14379238D02*
X16725461Y-14398286D01*
X16725461Y-14398286D02*
X16725461Y-14455428D01*
X16725461Y-14455428D02*
X16715937Y-14474476D01*
X16715937Y-14474476D02*
X16706413Y-14484000D01*
X16706413Y-14484000D02*
X16687366Y-14493524D01*
X16687366Y-14493524D02*
X16658794Y-14493524D01*
X16839747Y-14493524D02*
X16820699Y-14484000D01*
X16820699Y-14484000D02*
X16811175Y-14464952D01*
X16811175Y-14464952D02*
X16811175Y-14293524D01*
X16992128Y-14484000D02*
X16973080Y-14493524D01*
X16973080Y-14493524D02*
X16934985Y-14493524D01*
X16934985Y-14493524D02*
X16915937Y-14484000D01*
X16915937Y-14484000D02*
X16906413Y-14464952D01*
X16906413Y-14464952D02*
X16906413Y-14388762D01*
X16906413Y-14388762D02*
X16915937Y-14369714D01*
X16915937Y-14369714D02*
X16934985Y-14360190D01*
X16934985Y-14360190D02*
X16973080Y-14360190D01*
X16973080Y-14360190D02*
X16992128Y-14369714D01*
X16992128Y-14369714D02*
X17001652Y-14388762D01*
X17001652Y-14388762D02*
X17001652Y-14407809D01*
X17001652Y-14407809D02*
X16906413Y-14426857D01*
X17068318Y-14569714D02*
X17077842Y-14560190D01*
X17077842Y-14560190D02*
X17096890Y-14531619D01*
X17096890Y-14531619D02*
X17106413Y-14512571D01*
X17106413Y-14512571D02*
X17115937Y-14484000D01*
X17115937Y-14484000D02*
X17125461Y-14436381D01*
X17125461Y-14436381D02*
X17125461Y-14398286D01*
X17125461Y-14398286D02*
X17115937Y-14350667D01*
X17115937Y-14350667D02*
X17106413Y-14322095D01*
X17106413Y-14322095D02*
X17096890Y-14303048D01*
X17096890Y-14303048D02*
X17077842Y-14274476D01*
X17077842Y-14274476D02*
X17068318Y-14264952D01*
X17430223Y-14569714D02*
X17420699Y-14560190D01*
X17420699Y-14560190D02*
X17401652Y-14531619D01*
X17401652Y-14531619D02*
X17392128Y-14512571D01*
X17392128Y-14512571D02*
X17382604Y-14484000D01*
X17382604Y-14484000D02*
X17373080Y-14436381D01*
X17373080Y-14436381D02*
X17373080Y-14398286D01*
X17373080Y-14398286D02*
X17382604Y-14350667D01*
X17382604Y-14350667D02*
X17392128Y-14322095D01*
X17392128Y-14322095D02*
X17401652Y-14303048D01*
X17401652Y-14303048D02*
X17420699Y-14274476D01*
X17420699Y-14274476D02*
X17430223Y-14264952D01*
X17506413Y-14360190D02*
X17506413Y-14493524D01*
X17506413Y-14379238D02*
X17515937Y-14369714D01*
X17515937Y-14369714D02*
X17534985Y-14360190D01*
X17534985Y-14360190D02*
X17563556Y-14360190D01*
X17563556Y-14360190D02*
X17582604Y-14369714D01*
X17582604Y-14369714D02*
X17592128Y-14388762D01*
X17592128Y-14388762D02*
X17592128Y-14493524D01*
X17715937Y-14493524D02*
X17696890Y-14484000D01*
X17696890Y-14484000D02*
X17687366Y-14474476D01*
X17687366Y-14474476D02*
X17677842Y-14455428D01*
X17677842Y-14455428D02*
X17677842Y-14398286D01*
X17677842Y-14398286D02*
X17687366Y-14379238D01*
X17687366Y-14379238D02*
X17696890Y-14369714D01*
X17696890Y-14369714D02*
X17715937Y-14360190D01*
X17715937Y-14360190D02*
X17744509Y-14360190D01*
X17744509Y-14360190D02*
X17763556Y-14369714D01*
X17763556Y-14369714D02*
X17773080Y-14379238D01*
X17773080Y-14379238D02*
X17782604Y-14398286D01*
X17782604Y-14398286D02*
X17782604Y-14455428D01*
X17782604Y-14455428D02*
X17773080Y-14474476D01*
X17773080Y-14474476D02*
X17763556Y-14484000D01*
X17763556Y-14484000D02*
X17744509Y-14493524D01*
X17744509Y-14493524D02*
X17715937Y-14493524D01*
X17839747Y-14360190D02*
X17915937Y-14360190D01*
X17868318Y-14293524D02*
X17868318Y-14464952D01*
X17868318Y-14464952D02*
X17877842Y-14484000D01*
X17877842Y-14484000D02*
X17896890Y-14493524D01*
X17896890Y-14493524D02*
X17915937Y-14493524D01*
X18134985Y-14360190D02*
X18134985Y-14560190D01*
X18134985Y-14369714D02*
X18154033Y-14360190D01*
X18154033Y-14360190D02*
X18192128Y-14360190D01*
X18192128Y-14360190D02*
X18211175Y-14369714D01*
X18211175Y-14369714D02*
X18220699Y-14379238D01*
X18220699Y-14379238D02*
X18230223Y-14398286D01*
X18230223Y-14398286D02*
X18230223Y-14455428D01*
X18230223Y-14455428D02*
X18220699Y-14474476D01*
X18220699Y-14474476D02*
X18211175Y-14484000D01*
X18211175Y-14484000D02*
X18192128Y-14493524D01*
X18192128Y-14493524D02*
X18154033Y-14493524D01*
X18154033Y-14493524D02*
X18134985Y-14484000D01*
X18344509Y-14493524D02*
X18325461Y-14484000D01*
X18325461Y-14484000D02*
X18315937Y-14464952D01*
X18315937Y-14464952D02*
X18315937Y-14293524D01*
X18506414Y-14493524D02*
X18506414Y-14388762D01*
X18506414Y-14388762D02*
X18496890Y-14369714D01*
X18496890Y-14369714D02*
X18477842Y-14360190D01*
X18477842Y-14360190D02*
X18439747Y-14360190D01*
X18439747Y-14360190D02*
X18420699Y-14369714D01*
X18506414Y-14484000D02*
X18487366Y-14493524D01*
X18487366Y-14493524D02*
X18439747Y-14493524D01*
X18439747Y-14493524D02*
X18420699Y-14484000D01*
X18420699Y-14484000D02*
X18411175Y-14464952D01*
X18411175Y-14464952D02*
X18411175Y-14445905D01*
X18411175Y-14445905D02*
X18420699Y-14426857D01*
X18420699Y-14426857D02*
X18439747Y-14417333D01*
X18439747Y-14417333D02*
X18487366Y-14417333D01*
X18487366Y-14417333D02*
X18506414Y-14407809D01*
X18573080Y-14360190D02*
X18649271Y-14360190D01*
X18601652Y-14293524D02*
X18601652Y-14464952D01*
X18601652Y-14464952D02*
X18611175Y-14484000D01*
X18611175Y-14484000D02*
X18630223Y-14493524D01*
X18630223Y-14493524D02*
X18649271Y-14493524D01*
X18792128Y-14484000D02*
X18773080Y-14493524D01*
X18773080Y-14493524D02*
X18734985Y-14493524D01*
X18734985Y-14493524D02*
X18715937Y-14484000D01*
X18715937Y-14484000D02*
X18706414Y-14464952D01*
X18706414Y-14464952D02*
X18706414Y-14388762D01*
X18706414Y-14388762D02*
X18715937Y-14369714D01*
X18715937Y-14369714D02*
X18734985Y-14360190D01*
X18734985Y-14360190D02*
X18773080Y-14360190D01*
X18773080Y-14360190D02*
X18792128Y-14369714D01*
X18792128Y-14369714D02*
X18801652Y-14388762D01*
X18801652Y-14388762D02*
X18801652Y-14407809D01*
X18801652Y-14407809D02*
X18706414Y-14426857D01*
X18973080Y-14493524D02*
X18973080Y-14293524D01*
X18973080Y-14484000D02*
X18954033Y-14493524D01*
X18954033Y-14493524D02*
X18915937Y-14493524D01*
X18915937Y-14493524D02*
X18896890Y-14484000D01*
X18896890Y-14484000D02*
X18887366Y-14474476D01*
X18887366Y-14474476D02*
X18877842Y-14455428D01*
X18877842Y-14455428D02*
X18877842Y-14398286D01*
X18877842Y-14398286D02*
X18887366Y-14379238D01*
X18887366Y-14379238D02*
X18896890Y-14369714D01*
X18896890Y-14369714D02*
X18915937Y-14360190D01*
X18915937Y-14360190D02*
X18954033Y-14360190D01*
X18954033Y-14360190D02*
X18973080Y-14369714D01*
X19049271Y-14569714D02*
X19058795Y-14560190D01*
X19058795Y-14560190D02*
X19077842Y-14531619D01*
X19077842Y-14531619D02*
X19087366Y-14512571D01*
X19087366Y-14512571D02*
X19096890Y-14484000D01*
X19096890Y-14484000D02*
X19106414Y-14436381D01*
X19106414Y-14436381D02*
X19106414Y-14398286D01*
X19106414Y-14398286D02*
X19096890Y-14350667D01*
X19096890Y-14350667D02*
X19087366Y-14322095D01*
X19087366Y-14322095D02*
X19077842Y-14303048D01*
X19077842Y-14303048D02*
X19058795Y-14274476D01*
X19058795Y-14274476D02*
X19049271Y-14264952D01*
M02*
