%TF.GenerationSoftware,KiCad,Pcbnew,8.0.3-1.fc40*%
%TF.CreationDate,2024-07-02T21:03:53+02:00*%
%TF.ProjectId,sis5351a GPS controlled time base,73697335-3335-4316-9120-47505320636f,rev?*%
%TF.SameCoordinates,Original*%
%TF.FileFunction,Legend,Top*%
%TF.FilePolarity,Positive*%
%FSLAX46Y46*%
G04 Gerber Fmt 4.6, Leading zero omitted, Abs format (unit mm)*
G04 Created by KiCad (PCBNEW 8.0.3-1.fc40) date 2024-07-02 21:03:53*
%MOMM*%
%LPD*%
G01*
G04 APERTURE LIST*
%ADD10C,0.150000*%
%ADD11C,0.200000*%
%ADD12C,0.300000*%
%ADD13C,0.120000*%
G04 APERTURE END LIST*
D10*
X210089160Y-78984104D02*
X210565350Y-78984104D01*
X209993922Y-79269819D02*
X210327255Y-78269819D01*
X210327255Y-78269819D02*
X210660588Y-79269819D01*
X211184398Y-78269819D02*
X211279636Y-78269819D01*
X211279636Y-78269819D02*
X211374874Y-78317438D01*
X211374874Y-78317438D02*
X211422493Y-78365057D01*
X211422493Y-78365057D02*
X211470112Y-78460295D01*
X211470112Y-78460295D02*
X211517731Y-78650771D01*
X211517731Y-78650771D02*
X211517731Y-78888866D01*
X211517731Y-78888866D02*
X211470112Y-79079342D01*
X211470112Y-79079342D02*
X211422493Y-79174580D01*
X211422493Y-79174580D02*
X211374874Y-79222200D01*
X211374874Y-79222200D02*
X211279636Y-79269819D01*
X211279636Y-79269819D02*
X211184398Y-79269819D01*
X211184398Y-79269819D02*
X211089160Y-79222200D01*
X211089160Y-79222200D02*
X211041541Y-79174580D01*
X211041541Y-79174580D02*
X210993922Y-79079342D01*
X210993922Y-79079342D02*
X210946303Y-78888866D01*
X210946303Y-78888866D02*
X210946303Y-78650771D01*
X210946303Y-78650771D02*
X210993922Y-78460295D01*
X210993922Y-78460295D02*
X211041541Y-78365057D01*
X211041541Y-78365057D02*
X211089160Y-78317438D01*
X211089160Y-78317438D02*
X211184398Y-78269819D01*
X209936779Y-91869819D02*
X209936779Y-90869819D01*
X209936779Y-90869819D02*
X210174874Y-90869819D01*
X210174874Y-90869819D02*
X210317731Y-90917438D01*
X210317731Y-90917438D02*
X210412969Y-91012676D01*
X210412969Y-91012676D02*
X210460588Y-91107914D01*
X210460588Y-91107914D02*
X210508207Y-91298390D01*
X210508207Y-91298390D02*
X210508207Y-91441247D01*
X210508207Y-91441247D02*
X210460588Y-91631723D01*
X210460588Y-91631723D02*
X210412969Y-91726961D01*
X210412969Y-91726961D02*
X210317731Y-91822200D01*
X210317731Y-91822200D02*
X210174874Y-91869819D01*
X210174874Y-91869819D02*
X209936779Y-91869819D01*
X210841541Y-90869819D02*
X211460588Y-90869819D01*
X211460588Y-90869819D02*
X211127255Y-91250771D01*
X211127255Y-91250771D02*
X211270112Y-91250771D01*
X211270112Y-91250771D02*
X211365350Y-91298390D01*
X211365350Y-91298390D02*
X211412969Y-91346009D01*
X211412969Y-91346009D02*
X211460588Y-91441247D01*
X211460588Y-91441247D02*
X211460588Y-91679342D01*
X211460588Y-91679342D02*
X211412969Y-91774580D01*
X211412969Y-91774580D02*
X211365350Y-91822200D01*
X211365350Y-91822200D02*
X211270112Y-91869819D01*
X211270112Y-91869819D02*
X210984398Y-91869819D01*
X210984398Y-91869819D02*
X210889160Y-91822200D01*
X210889160Y-91822200D02*
X210841541Y-91774580D01*
X209936779Y-66088866D02*
X210698684Y-66088866D01*
X210317731Y-66469819D02*
X210317731Y-65707914D01*
X211651064Y-65469819D02*
X211174874Y-65469819D01*
X211174874Y-65469819D02*
X211127255Y-65946009D01*
X211127255Y-65946009D02*
X211174874Y-65898390D01*
X211174874Y-65898390D02*
X211270112Y-65850771D01*
X211270112Y-65850771D02*
X211508207Y-65850771D01*
X211508207Y-65850771D02*
X211603445Y-65898390D01*
X211603445Y-65898390D02*
X211651064Y-65946009D01*
X211651064Y-65946009D02*
X211698683Y-66041247D01*
X211698683Y-66041247D02*
X211698683Y-66279342D01*
X211698683Y-66279342D02*
X211651064Y-66374580D01*
X211651064Y-66374580D02*
X211603445Y-66422200D01*
X211603445Y-66422200D02*
X211508207Y-66469819D01*
X211508207Y-66469819D02*
X211270112Y-66469819D01*
X211270112Y-66469819D02*
X211174874Y-66422200D01*
X211174874Y-66422200D02*
X211127255Y-66374580D01*
X211984398Y-65469819D02*
X212317731Y-66469819D01*
X212317731Y-66469819D02*
X212651064Y-65469819D01*
X209936779Y-81869819D02*
X209936779Y-80869819D01*
X209936779Y-80869819D02*
X210174874Y-80869819D01*
X210174874Y-80869819D02*
X210317731Y-80917438D01*
X210317731Y-80917438D02*
X210412969Y-81012676D01*
X210412969Y-81012676D02*
X210460588Y-81107914D01*
X210460588Y-81107914D02*
X210508207Y-81298390D01*
X210508207Y-81298390D02*
X210508207Y-81441247D01*
X210508207Y-81441247D02*
X210460588Y-81631723D01*
X210460588Y-81631723D02*
X210412969Y-81726961D01*
X210412969Y-81726961D02*
X210317731Y-81822200D01*
X210317731Y-81822200D02*
X210174874Y-81869819D01*
X210174874Y-81869819D02*
X209936779Y-81869819D01*
X211460588Y-81869819D02*
X210889160Y-81869819D01*
X211174874Y-81869819D02*
X211174874Y-80869819D01*
X211174874Y-80869819D02*
X211079636Y-81012676D01*
X211079636Y-81012676D02*
X210984398Y-81107914D01*
X210984398Y-81107914D02*
X210889160Y-81155533D01*
X212079636Y-80869819D02*
X212174874Y-80869819D01*
X212174874Y-80869819D02*
X212270112Y-80917438D01*
X212270112Y-80917438D02*
X212317731Y-80965057D01*
X212317731Y-80965057D02*
X212365350Y-81060295D01*
X212365350Y-81060295D02*
X212412969Y-81250771D01*
X212412969Y-81250771D02*
X212412969Y-81488866D01*
X212412969Y-81488866D02*
X212365350Y-81679342D01*
X212365350Y-81679342D02*
X212317731Y-81774580D01*
X212317731Y-81774580D02*
X212270112Y-81822200D01*
X212270112Y-81822200D02*
X212174874Y-81869819D01*
X212174874Y-81869819D02*
X212079636Y-81869819D01*
X212079636Y-81869819D02*
X211984398Y-81822200D01*
X211984398Y-81822200D02*
X211936779Y-81774580D01*
X211936779Y-81774580D02*
X211889160Y-81679342D01*
X211889160Y-81679342D02*
X211841541Y-81488866D01*
X211841541Y-81488866D02*
X211841541Y-81250771D01*
X211841541Y-81250771D02*
X211889160Y-81060295D01*
X211889160Y-81060295D02*
X211936779Y-80965057D01*
X211936779Y-80965057D02*
X211984398Y-80917438D01*
X211984398Y-80917438D02*
X212079636Y-80869819D01*
D11*
X212169673Y-93867219D02*
X212169673Y-92867219D01*
X213360148Y-92819600D02*
X212503006Y-94105314D01*
X213883958Y-92867219D02*
X214074434Y-92867219D01*
X214074434Y-92867219D02*
X214169672Y-92914838D01*
X214169672Y-92914838D02*
X214264910Y-93010076D01*
X214264910Y-93010076D02*
X214312529Y-93200552D01*
X214312529Y-93200552D02*
X214312529Y-93533885D01*
X214312529Y-93533885D02*
X214264910Y-93724361D01*
X214264910Y-93724361D02*
X214169672Y-93819600D01*
X214169672Y-93819600D02*
X214074434Y-93867219D01*
X214074434Y-93867219D02*
X213883958Y-93867219D01*
X213883958Y-93867219D02*
X213788720Y-93819600D01*
X213788720Y-93819600D02*
X213693482Y-93724361D01*
X213693482Y-93724361D02*
X213645863Y-93533885D01*
X213645863Y-93533885D02*
X213645863Y-93200552D01*
X213645863Y-93200552D02*
X213693482Y-93010076D01*
X213693482Y-93010076D02*
X213788720Y-92914838D01*
X213788720Y-92914838D02*
X213883958Y-92867219D01*
D10*
X161436207Y-136172580D02*
X161388588Y-136220200D01*
X161388588Y-136220200D02*
X161245731Y-136267819D01*
X161245731Y-136267819D02*
X161150493Y-136267819D01*
X161150493Y-136267819D02*
X161007636Y-136220200D01*
X161007636Y-136220200D02*
X160912398Y-136124961D01*
X160912398Y-136124961D02*
X160864779Y-136029723D01*
X160864779Y-136029723D02*
X160817160Y-135839247D01*
X160817160Y-135839247D02*
X160817160Y-135696390D01*
X160817160Y-135696390D02*
X160864779Y-135505914D01*
X160864779Y-135505914D02*
X160912398Y-135410676D01*
X160912398Y-135410676D02*
X161007636Y-135315438D01*
X161007636Y-135315438D02*
X161150493Y-135267819D01*
X161150493Y-135267819D02*
X161245731Y-135267819D01*
X161245731Y-135267819D02*
X161388588Y-135315438D01*
X161388588Y-135315438D02*
X161436207Y-135363057D01*
X162340969Y-136267819D02*
X161864779Y-136267819D01*
X161864779Y-136267819D02*
X161864779Y-135267819D01*
X162674303Y-136267819D02*
X162674303Y-135267819D01*
X163245731Y-136267819D02*
X162817160Y-135696390D01*
X163245731Y-135267819D02*
X162674303Y-135839247D01*
X163626684Y-135363057D02*
X163674303Y-135315438D01*
X163674303Y-135315438D02*
X163769541Y-135267819D01*
X163769541Y-135267819D02*
X164007636Y-135267819D01*
X164007636Y-135267819D02*
X164102874Y-135315438D01*
X164102874Y-135315438D02*
X164150493Y-135363057D01*
X164150493Y-135363057D02*
X164198112Y-135458295D01*
X164198112Y-135458295D02*
X164198112Y-135553533D01*
X164198112Y-135553533D02*
X164150493Y-135696390D01*
X164150493Y-135696390D02*
X163579065Y-136267819D01*
X163579065Y-136267819D02*
X164198112Y-136267819D01*
X210089160Y-76584104D02*
X210565350Y-76584104D01*
X209993922Y-76869819D02*
X210327255Y-75869819D01*
X210327255Y-75869819D02*
X210660588Y-76869819D01*
X211517731Y-76869819D02*
X210946303Y-76869819D01*
X211232017Y-76869819D02*
X211232017Y-75869819D01*
X211232017Y-75869819D02*
X211136779Y-76012676D01*
X211136779Y-76012676D02*
X211041541Y-76107914D01*
X211041541Y-76107914D02*
X210946303Y-76155533D01*
X200061133Y-59136779D02*
X200061133Y-59898684D01*
X199680180Y-59517731D02*
X200442085Y-59517731D01*
X200680180Y-60851064D02*
X200680180Y-60374874D01*
X200680180Y-60374874D02*
X200203990Y-60327255D01*
X200203990Y-60327255D02*
X200251609Y-60374874D01*
X200251609Y-60374874D02*
X200299228Y-60470112D01*
X200299228Y-60470112D02*
X200299228Y-60708207D01*
X200299228Y-60708207D02*
X200251609Y-60803445D01*
X200251609Y-60803445D02*
X200203990Y-60851064D01*
X200203990Y-60851064D02*
X200108752Y-60898683D01*
X200108752Y-60898683D02*
X199870657Y-60898683D01*
X199870657Y-60898683D02*
X199775419Y-60851064D01*
X199775419Y-60851064D02*
X199727800Y-60803445D01*
X199727800Y-60803445D02*
X199680180Y-60708207D01*
X199680180Y-60708207D02*
X199680180Y-60470112D01*
X199680180Y-60470112D02*
X199727800Y-60374874D01*
X199727800Y-60374874D02*
X199775419Y-60327255D01*
X200680180Y-61184398D02*
X199680180Y-61517731D01*
X199680180Y-61517731D02*
X200680180Y-61851064D01*
X209993922Y-68069819D02*
X210327255Y-69069819D01*
X210327255Y-69069819D02*
X210660588Y-68069819D01*
X210993922Y-69069819D02*
X210993922Y-68403152D01*
X210993922Y-68069819D02*
X210946303Y-68117438D01*
X210946303Y-68117438D02*
X210993922Y-68165057D01*
X210993922Y-68165057D02*
X211041541Y-68117438D01*
X211041541Y-68117438D02*
X210993922Y-68069819D01*
X210993922Y-68069819D02*
X210993922Y-68165057D01*
X211470112Y-68403152D02*
X211470112Y-69069819D01*
X211470112Y-68498390D02*
X211517731Y-68450771D01*
X211517731Y-68450771D02*
X211612969Y-68403152D01*
X211612969Y-68403152D02*
X211755826Y-68403152D01*
X211755826Y-68403152D02*
X211851064Y-68450771D01*
X211851064Y-68450771D02*
X211898683Y-68546009D01*
X211898683Y-68546009D02*
X211898683Y-69069819D01*
X209936779Y-84269819D02*
X209936779Y-83269819D01*
X209936779Y-83269819D02*
X210174874Y-83269819D01*
X210174874Y-83269819D02*
X210317731Y-83317438D01*
X210317731Y-83317438D02*
X210412969Y-83412676D01*
X210412969Y-83412676D02*
X210460588Y-83507914D01*
X210460588Y-83507914D02*
X210508207Y-83698390D01*
X210508207Y-83698390D02*
X210508207Y-83841247D01*
X210508207Y-83841247D02*
X210460588Y-84031723D01*
X210460588Y-84031723D02*
X210412969Y-84126961D01*
X210412969Y-84126961D02*
X210317731Y-84222200D01*
X210317731Y-84222200D02*
X210174874Y-84269819D01*
X210174874Y-84269819D02*
X209936779Y-84269819D01*
X210984398Y-84269819D02*
X211174874Y-84269819D01*
X211174874Y-84269819D02*
X211270112Y-84222200D01*
X211270112Y-84222200D02*
X211317731Y-84174580D01*
X211317731Y-84174580D02*
X211412969Y-84031723D01*
X211412969Y-84031723D02*
X211460588Y-83841247D01*
X211460588Y-83841247D02*
X211460588Y-83460295D01*
X211460588Y-83460295D02*
X211412969Y-83365057D01*
X211412969Y-83365057D02*
X211365350Y-83317438D01*
X211365350Y-83317438D02*
X211270112Y-83269819D01*
X211270112Y-83269819D02*
X211079636Y-83269819D01*
X211079636Y-83269819D02*
X210984398Y-83317438D01*
X210984398Y-83317438D02*
X210936779Y-83365057D01*
X210936779Y-83365057D02*
X210889160Y-83460295D01*
X210889160Y-83460295D02*
X210889160Y-83698390D01*
X210889160Y-83698390D02*
X210936779Y-83793628D01*
X210936779Y-83793628D02*
X210984398Y-83841247D01*
X210984398Y-83841247D02*
X211079636Y-83888866D01*
X211079636Y-83888866D02*
X211270112Y-83888866D01*
X211270112Y-83888866D02*
X211365350Y-83841247D01*
X211365350Y-83841247D02*
X211412969Y-83793628D01*
X211412969Y-83793628D02*
X211460588Y-83698390D01*
X179978207Y-136172580D02*
X179930588Y-136220200D01*
X179930588Y-136220200D02*
X179787731Y-136267819D01*
X179787731Y-136267819D02*
X179692493Y-136267819D01*
X179692493Y-136267819D02*
X179549636Y-136220200D01*
X179549636Y-136220200D02*
X179454398Y-136124961D01*
X179454398Y-136124961D02*
X179406779Y-136029723D01*
X179406779Y-136029723D02*
X179359160Y-135839247D01*
X179359160Y-135839247D02*
X179359160Y-135696390D01*
X179359160Y-135696390D02*
X179406779Y-135505914D01*
X179406779Y-135505914D02*
X179454398Y-135410676D01*
X179454398Y-135410676D02*
X179549636Y-135315438D01*
X179549636Y-135315438D02*
X179692493Y-135267819D01*
X179692493Y-135267819D02*
X179787731Y-135267819D01*
X179787731Y-135267819D02*
X179930588Y-135315438D01*
X179930588Y-135315438D02*
X179978207Y-135363057D01*
X180882969Y-136267819D02*
X180406779Y-136267819D01*
X180406779Y-136267819D02*
X180406779Y-135267819D01*
X181216303Y-136267819D02*
X181216303Y-135267819D01*
X181787731Y-136267819D02*
X181359160Y-135696390D01*
X181787731Y-135267819D02*
X181216303Y-135839247D01*
X182740112Y-136267819D02*
X182168684Y-136267819D01*
X182454398Y-136267819D02*
X182454398Y-135267819D01*
X182454398Y-135267819D02*
X182359160Y-135410676D01*
X182359160Y-135410676D02*
X182263922Y-135505914D01*
X182263922Y-135505914D02*
X182168684Y-135553533D01*
X198086779Y-58619819D02*
X198086779Y-57619819D01*
X198086779Y-57619819D02*
X198324874Y-57619819D01*
X198324874Y-57619819D02*
X198467731Y-57667438D01*
X198467731Y-57667438D02*
X198562969Y-57762676D01*
X198562969Y-57762676D02*
X198610588Y-57857914D01*
X198610588Y-57857914D02*
X198658207Y-58048390D01*
X198658207Y-58048390D02*
X198658207Y-58191247D01*
X198658207Y-58191247D02*
X198610588Y-58381723D01*
X198610588Y-58381723D02*
X198562969Y-58476961D01*
X198562969Y-58476961D02*
X198467731Y-58572200D01*
X198467731Y-58572200D02*
X198324874Y-58619819D01*
X198324874Y-58619819D02*
X198086779Y-58619819D01*
X199086779Y-58619819D02*
X199086779Y-57619819D01*
X199515350Y-58572200D02*
X199658207Y-58619819D01*
X199658207Y-58619819D02*
X199896302Y-58619819D01*
X199896302Y-58619819D02*
X199991540Y-58572200D01*
X199991540Y-58572200D02*
X200039159Y-58524580D01*
X200039159Y-58524580D02*
X200086778Y-58429342D01*
X200086778Y-58429342D02*
X200086778Y-58334104D01*
X200086778Y-58334104D02*
X200039159Y-58238866D01*
X200039159Y-58238866D02*
X199991540Y-58191247D01*
X199991540Y-58191247D02*
X199896302Y-58143628D01*
X199896302Y-58143628D02*
X199705826Y-58096009D01*
X199705826Y-58096009D02*
X199610588Y-58048390D01*
X199610588Y-58048390D02*
X199562969Y-58000771D01*
X199562969Y-58000771D02*
X199515350Y-57905533D01*
X199515350Y-57905533D02*
X199515350Y-57810295D01*
X199515350Y-57810295D02*
X199562969Y-57715057D01*
X199562969Y-57715057D02*
X199610588Y-57667438D01*
X199610588Y-57667438D02*
X199705826Y-57619819D01*
X199705826Y-57619819D02*
X199943921Y-57619819D01*
X199943921Y-57619819D02*
X200086778Y-57667438D01*
X200515350Y-58619819D02*
X200515350Y-57619819D01*
X200515350Y-57619819D02*
X200896302Y-57619819D01*
X200896302Y-57619819D02*
X200991540Y-57667438D01*
X200991540Y-57667438D02*
X201039159Y-57715057D01*
X201039159Y-57715057D02*
X201086778Y-57810295D01*
X201086778Y-57810295D02*
X201086778Y-57953152D01*
X201086778Y-57953152D02*
X201039159Y-58048390D01*
X201039159Y-58048390D02*
X200991540Y-58096009D01*
X200991540Y-58096009D02*
X200896302Y-58143628D01*
X200896302Y-58143628D02*
X200515350Y-58143628D01*
X201991540Y-58619819D02*
X201515350Y-58619819D01*
X201515350Y-58619819D02*
X201515350Y-57619819D01*
X197127800Y-59189160D02*
X197080180Y-59332017D01*
X197080180Y-59332017D02*
X197080180Y-59570112D01*
X197080180Y-59570112D02*
X197127800Y-59665350D01*
X197127800Y-59665350D02*
X197175419Y-59712969D01*
X197175419Y-59712969D02*
X197270657Y-59760588D01*
X197270657Y-59760588D02*
X197365895Y-59760588D01*
X197365895Y-59760588D02*
X197461133Y-59712969D01*
X197461133Y-59712969D02*
X197508752Y-59665350D01*
X197508752Y-59665350D02*
X197556371Y-59570112D01*
X197556371Y-59570112D02*
X197603990Y-59379636D01*
X197603990Y-59379636D02*
X197651609Y-59284398D01*
X197651609Y-59284398D02*
X197699228Y-59236779D01*
X197699228Y-59236779D02*
X197794466Y-59189160D01*
X197794466Y-59189160D02*
X197889704Y-59189160D01*
X197889704Y-59189160D02*
X197984942Y-59236779D01*
X197984942Y-59236779D02*
X198032561Y-59284398D01*
X198032561Y-59284398D02*
X198080180Y-59379636D01*
X198080180Y-59379636D02*
X198080180Y-59617731D01*
X198080180Y-59617731D02*
X198032561Y-59760588D01*
X197080180Y-60189160D02*
X198080180Y-60189160D01*
X198080180Y-60189160D02*
X198080180Y-60427255D01*
X198080180Y-60427255D02*
X198032561Y-60570112D01*
X198032561Y-60570112D02*
X197937323Y-60665350D01*
X197937323Y-60665350D02*
X197842085Y-60712969D01*
X197842085Y-60712969D02*
X197651609Y-60760588D01*
X197651609Y-60760588D02*
X197508752Y-60760588D01*
X197508752Y-60760588D02*
X197318276Y-60712969D01*
X197318276Y-60712969D02*
X197223038Y-60665350D01*
X197223038Y-60665350D02*
X197127800Y-60570112D01*
X197127800Y-60570112D02*
X197080180Y-60427255D01*
X197080180Y-60427255D02*
X197080180Y-60189160D01*
X197365895Y-61141541D02*
X197365895Y-61617731D01*
X197080180Y-61046303D02*
X198080180Y-61379636D01*
X198080180Y-61379636D02*
X197080180Y-61712969D01*
X210660588Y-62917438D02*
X210565350Y-62869819D01*
X210565350Y-62869819D02*
X210422493Y-62869819D01*
X210422493Y-62869819D02*
X210279636Y-62917438D01*
X210279636Y-62917438D02*
X210184398Y-63012676D01*
X210184398Y-63012676D02*
X210136779Y-63107914D01*
X210136779Y-63107914D02*
X210089160Y-63298390D01*
X210089160Y-63298390D02*
X210089160Y-63441247D01*
X210089160Y-63441247D02*
X210136779Y-63631723D01*
X210136779Y-63631723D02*
X210184398Y-63726961D01*
X210184398Y-63726961D02*
X210279636Y-63822200D01*
X210279636Y-63822200D02*
X210422493Y-63869819D01*
X210422493Y-63869819D02*
X210517731Y-63869819D01*
X210517731Y-63869819D02*
X210660588Y-63822200D01*
X210660588Y-63822200D02*
X210708207Y-63774580D01*
X210708207Y-63774580D02*
X210708207Y-63441247D01*
X210708207Y-63441247D02*
X210517731Y-63441247D01*
X211136779Y-63869819D02*
X211136779Y-62869819D01*
X211136779Y-62869819D02*
X211708207Y-63869819D01*
X211708207Y-63869819D02*
X211708207Y-62869819D01*
X212184398Y-63869819D02*
X212184398Y-62869819D01*
X212184398Y-62869819D02*
X212422493Y-62869819D01*
X212422493Y-62869819D02*
X212565350Y-62917438D01*
X212565350Y-62917438D02*
X212660588Y-63012676D01*
X212660588Y-63012676D02*
X212708207Y-63107914D01*
X212708207Y-63107914D02*
X212755826Y-63298390D01*
X212755826Y-63298390D02*
X212755826Y-63441247D01*
X212755826Y-63441247D02*
X212708207Y-63631723D01*
X212708207Y-63631723D02*
X212660588Y-63726961D01*
X212660588Y-63726961D02*
X212565350Y-63822200D01*
X212565350Y-63822200D02*
X212422493Y-63869819D01*
X212422493Y-63869819D02*
X212184398Y-63869819D01*
X209936779Y-89469819D02*
X209936779Y-88469819D01*
X209936779Y-88469819D02*
X210174874Y-88469819D01*
X210174874Y-88469819D02*
X210317731Y-88517438D01*
X210317731Y-88517438D02*
X210412969Y-88612676D01*
X210412969Y-88612676D02*
X210460588Y-88707914D01*
X210460588Y-88707914D02*
X210508207Y-88898390D01*
X210508207Y-88898390D02*
X210508207Y-89041247D01*
X210508207Y-89041247D02*
X210460588Y-89231723D01*
X210460588Y-89231723D02*
X210412969Y-89326961D01*
X210412969Y-89326961D02*
X210317731Y-89422200D01*
X210317731Y-89422200D02*
X210174874Y-89469819D01*
X210174874Y-89469819D02*
X209936779Y-89469819D01*
X211365350Y-88803152D02*
X211365350Y-89469819D01*
X211127255Y-88422200D02*
X210889160Y-89136485D01*
X210889160Y-89136485D02*
X211508207Y-89136485D01*
X210089160Y-73784104D02*
X210565350Y-73784104D01*
X209993922Y-74069819D02*
X210327255Y-73069819D01*
X210327255Y-73069819D02*
X210660588Y-74069819D01*
X210946303Y-73165057D02*
X210993922Y-73117438D01*
X210993922Y-73117438D02*
X211089160Y-73069819D01*
X211089160Y-73069819D02*
X211327255Y-73069819D01*
X211327255Y-73069819D02*
X211422493Y-73117438D01*
X211422493Y-73117438D02*
X211470112Y-73165057D01*
X211470112Y-73165057D02*
X211517731Y-73260295D01*
X211517731Y-73260295D02*
X211517731Y-73355533D01*
X211517731Y-73355533D02*
X211470112Y-73498390D01*
X211470112Y-73498390D02*
X210898684Y-74069819D01*
X210898684Y-74069819D02*
X211517731Y-74069819D01*
X194627800Y-59189160D02*
X194580180Y-59332017D01*
X194580180Y-59332017D02*
X194580180Y-59570112D01*
X194580180Y-59570112D02*
X194627800Y-59665350D01*
X194627800Y-59665350D02*
X194675419Y-59712969D01*
X194675419Y-59712969D02*
X194770657Y-59760588D01*
X194770657Y-59760588D02*
X194865895Y-59760588D01*
X194865895Y-59760588D02*
X194961133Y-59712969D01*
X194961133Y-59712969D02*
X195008752Y-59665350D01*
X195008752Y-59665350D02*
X195056371Y-59570112D01*
X195056371Y-59570112D02*
X195103990Y-59379636D01*
X195103990Y-59379636D02*
X195151609Y-59284398D01*
X195151609Y-59284398D02*
X195199228Y-59236779D01*
X195199228Y-59236779D02*
X195294466Y-59189160D01*
X195294466Y-59189160D02*
X195389704Y-59189160D01*
X195389704Y-59189160D02*
X195484942Y-59236779D01*
X195484942Y-59236779D02*
X195532561Y-59284398D01*
X195532561Y-59284398D02*
X195580180Y-59379636D01*
X195580180Y-59379636D02*
X195580180Y-59617731D01*
X195580180Y-59617731D02*
X195532561Y-59760588D01*
X194580180Y-60665350D02*
X194580180Y-60189160D01*
X194580180Y-60189160D02*
X195580180Y-60189160D01*
X194675419Y-61570112D02*
X194627800Y-61522493D01*
X194627800Y-61522493D02*
X194580180Y-61379636D01*
X194580180Y-61379636D02*
X194580180Y-61284398D01*
X194580180Y-61284398D02*
X194627800Y-61141541D01*
X194627800Y-61141541D02*
X194723038Y-61046303D01*
X194723038Y-61046303D02*
X194818276Y-60998684D01*
X194818276Y-60998684D02*
X195008752Y-60951065D01*
X195008752Y-60951065D02*
X195151609Y-60951065D01*
X195151609Y-60951065D02*
X195342085Y-60998684D01*
X195342085Y-60998684D02*
X195437323Y-61046303D01*
X195437323Y-61046303D02*
X195532561Y-61141541D01*
X195532561Y-61141541D02*
X195580180Y-61284398D01*
X195580180Y-61284398D02*
X195580180Y-61379636D01*
X195580180Y-61379636D02*
X195532561Y-61522493D01*
X195532561Y-61522493D02*
X195484942Y-61570112D01*
X210089160Y-71384104D02*
X210565350Y-71384104D01*
X209993922Y-71669819D02*
X210327255Y-70669819D01*
X210327255Y-70669819D02*
X210660588Y-71669819D01*
X210898684Y-70669819D02*
X211517731Y-70669819D01*
X211517731Y-70669819D02*
X211184398Y-71050771D01*
X211184398Y-71050771D02*
X211327255Y-71050771D01*
X211327255Y-71050771D02*
X211422493Y-71098390D01*
X211422493Y-71098390D02*
X211470112Y-71146009D01*
X211470112Y-71146009D02*
X211517731Y-71241247D01*
X211517731Y-71241247D02*
X211517731Y-71479342D01*
X211517731Y-71479342D02*
X211470112Y-71574580D01*
X211470112Y-71574580D02*
X211422493Y-71622200D01*
X211422493Y-71622200D02*
X211327255Y-71669819D01*
X211327255Y-71669819D02*
X211041541Y-71669819D01*
X211041541Y-71669819D02*
X210946303Y-71622200D01*
X210946303Y-71622200D02*
X210898684Y-71574580D01*
X209936779Y-86869819D02*
X209936779Y-85869819D01*
X209936779Y-85869819D02*
X210174874Y-85869819D01*
X210174874Y-85869819D02*
X210317731Y-85917438D01*
X210317731Y-85917438D02*
X210412969Y-86012676D01*
X210412969Y-86012676D02*
X210460588Y-86107914D01*
X210460588Y-86107914D02*
X210508207Y-86298390D01*
X210508207Y-86298390D02*
X210508207Y-86441247D01*
X210508207Y-86441247D02*
X210460588Y-86631723D01*
X210460588Y-86631723D02*
X210412969Y-86726961D01*
X210412969Y-86726961D02*
X210317731Y-86822200D01*
X210317731Y-86822200D02*
X210174874Y-86869819D01*
X210174874Y-86869819D02*
X209936779Y-86869819D01*
X211079636Y-86298390D02*
X210984398Y-86250771D01*
X210984398Y-86250771D02*
X210936779Y-86203152D01*
X210936779Y-86203152D02*
X210889160Y-86107914D01*
X210889160Y-86107914D02*
X210889160Y-86060295D01*
X210889160Y-86060295D02*
X210936779Y-85965057D01*
X210936779Y-85965057D02*
X210984398Y-85917438D01*
X210984398Y-85917438D02*
X211079636Y-85869819D01*
X211079636Y-85869819D02*
X211270112Y-85869819D01*
X211270112Y-85869819D02*
X211365350Y-85917438D01*
X211365350Y-85917438D02*
X211412969Y-85965057D01*
X211412969Y-85965057D02*
X211460588Y-86060295D01*
X211460588Y-86060295D02*
X211460588Y-86107914D01*
X211460588Y-86107914D02*
X211412969Y-86203152D01*
X211412969Y-86203152D02*
X211365350Y-86250771D01*
X211365350Y-86250771D02*
X211270112Y-86298390D01*
X211270112Y-86298390D02*
X211079636Y-86298390D01*
X211079636Y-86298390D02*
X210984398Y-86346009D01*
X210984398Y-86346009D02*
X210936779Y-86393628D01*
X210936779Y-86393628D02*
X210889160Y-86488866D01*
X210889160Y-86488866D02*
X210889160Y-86679342D01*
X210889160Y-86679342D02*
X210936779Y-86774580D01*
X210936779Y-86774580D02*
X210984398Y-86822200D01*
X210984398Y-86822200D02*
X211079636Y-86869819D01*
X211079636Y-86869819D02*
X211270112Y-86869819D01*
X211270112Y-86869819D02*
X211365350Y-86822200D01*
X211365350Y-86822200D02*
X211412969Y-86774580D01*
X211412969Y-86774580D02*
X211460588Y-86679342D01*
X211460588Y-86679342D02*
X211460588Y-86488866D01*
X211460588Y-86488866D02*
X211412969Y-86393628D01*
X211412969Y-86393628D02*
X211365350Y-86346009D01*
X211365350Y-86346009D02*
X211270112Y-86298390D01*
X203032561Y-59660588D02*
X203080180Y-59565350D01*
X203080180Y-59565350D02*
X203080180Y-59422493D01*
X203080180Y-59422493D02*
X203032561Y-59279636D01*
X203032561Y-59279636D02*
X202937323Y-59184398D01*
X202937323Y-59184398D02*
X202842085Y-59136779D01*
X202842085Y-59136779D02*
X202651609Y-59089160D01*
X202651609Y-59089160D02*
X202508752Y-59089160D01*
X202508752Y-59089160D02*
X202318276Y-59136779D01*
X202318276Y-59136779D02*
X202223038Y-59184398D01*
X202223038Y-59184398D02*
X202127800Y-59279636D01*
X202127800Y-59279636D02*
X202080180Y-59422493D01*
X202080180Y-59422493D02*
X202080180Y-59517731D01*
X202080180Y-59517731D02*
X202127800Y-59660588D01*
X202127800Y-59660588D02*
X202175419Y-59708207D01*
X202175419Y-59708207D02*
X202508752Y-59708207D01*
X202508752Y-59708207D02*
X202508752Y-59517731D01*
X202080180Y-60136779D02*
X203080180Y-60136779D01*
X203080180Y-60136779D02*
X202080180Y-60708207D01*
X202080180Y-60708207D02*
X203080180Y-60708207D01*
X202080180Y-61184398D02*
X203080180Y-61184398D01*
X203080180Y-61184398D02*
X203080180Y-61422493D01*
X203080180Y-61422493D02*
X203032561Y-61565350D01*
X203032561Y-61565350D02*
X202937323Y-61660588D01*
X202937323Y-61660588D02*
X202842085Y-61708207D01*
X202842085Y-61708207D02*
X202651609Y-61755826D01*
X202651609Y-61755826D02*
X202508752Y-61755826D01*
X202508752Y-61755826D02*
X202318276Y-61708207D01*
X202318276Y-61708207D02*
X202223038Y-61660588D01*
X202223038Y-61660588D02*
X202127800Y-61565350D01*
X202127800Y-61565350D02*
X202080180Y-61422493D01*
X202080180Y-61422493D02*
X202080180Y-61184398D01*
X128886905Y-134604819D02*
X128886905Y-133604819D01*
X128886905Y-133604819D02*
X129125000Y-133604819D01*
X129125000Y-133604819D02*
X129267857Y-133652438D01*
X129267857Y-133652438D02*
X129363095Y-133747676D01*
X129363095Y-133747676D02*
X129410714Y-133842914D01*
X129410714Y-133842914D02*
X129458333Y-134033390D01*
X129458333Y-134033390D02*
X129458333Y-134176247D01*
X129458333Y-134176247D02*
X129410714Y-134366723D01*
X129410714Y-134366723D02*
X129363095Y-134461961D01*
X129363095Y-134461961D02*
X129267857Y-134557200D01*
X129267857Y-134557200D02*
X129125000Y-134604819D01*
X129125000Y-134604819D02*
X128886905Y-134604819D01*
X130410714Y-134604819D02*
X129839286Y-134604819D01*
X130125000Y-134604819D02*
X130125000Y-133604819D01*
X130125000Y-133604819D02*
X130029762Y-133747676D01*
X130029762Y-133747676D02*
X129934524Y-133842914D01*
X129934524Y-133842914D02*
X129839286Y-133890533D01*
X170910819Y-133278666D02*
X170434628Y-133611999D01*
X170910819Y-133850094D02*
X169910819Y-133850094D01*
X169910819Y-133850094D02*
X169910819Y-133469142D01*
X169910819Y-133469142D02*
X169958438Y-133373904D01*
X169958438Y-133373904D02*
X170006057Y-133326285D01*
X170006057Y-133326285D02*
X170101295Y-133278666D01*
X170101295Y-133278666D02*
X170244152Y-133278666D01*
X170244152Y-133278666D02*
X170339390Y-133326285D01*
X170339390Y-133326285D02*
X170387009Y-133373904D01*
X170387009Y-133373904D02*
X170434628Y-133469142D01*
X170434628Y-133469142D02*
X170434628Y-133850094D01*
X170910819Y-132802475D02*
X170910819Y-132611999D01*
X170910819Y-132611999D02*
X170863200Y-132516761D01*
X170863200Y-132516761D02*
X170815580Y-132469142D01*
X170815580Y-132469142D02*
X170672723Y-132373904D01*
X170672723Y-132373904D02*
X170482247Y-132326285D01*
X170482247Y-132326285D02*
X170101295Y-132326285D01*
X170101295Y-132326285D02*
X170006057Y-132373904D01*
X170006057Y-132373904D02*
X169958438Y-132421523D01*
X169958438Y-132421523D02*
X169910819Y-132516761D01*
X169910819Y-132516761D02*
X169910819Y-132707237D01*
X169910819Y-132707237D02*
X169958438Y-132802475D01*
X169958438Y-132802475D02*
X170006057Y-132850094D01*
X170006057Y-132850094D02*
X170101295Y-132897713D01*
X170101295Y-132897713D02*
X170339390Y-132897713D01*
X170339390Y-132897713D02*
X170434628Y-132850094D01*
X170434628Y-132850094D02*
X170482247Y-132802475D01*
X170482247Y-132802475D02*
X170529866Y-132707237D01*
X170529866Y-132707237D02*
X170529866Y-132516761D01*
X170529866Y-132516761D02*
X170482247Y-132421523D01*
X170482247Y-132421523D02*
X170434628Y-132373904D01*
X170434628Y-132373904D02*
X170339390Y-132326285D01*
X165275980Y-101465657D02*
X165323600Y-101513276D01*
X165323600Y-101513276D02*
X165371219Y-101656133D01*
X165371219Y-101656133D02*
X165371219Y-101751371D01*
X165371219Y-101751371D02*
X165323600Y-101894228D01*
X165323600Y-101894228D02*
X165228361Y-101989466D01*
X165228361Y-101989466D02*
X165133123Y-102037085D01*
X165133123Y-102037085D02*
X164942647Y-102084704D01*
X164942647Y-102084704D02*
X164799790Y-102084704D01*
X164799790Y-102084704D02*
X164609314Y-102037085D01*
X164609314Y-102037085D02*
X164514076Y-101989466D01*
X164514076Y-101989466D02*
X164418838Y-101894228D01*
X164418838Y-101894228D02*
X164371219Y-101751371D01*
X164371219Y-101751371D02*
X164371219Y-101656133D01*
X164371219Y-101656133D02*
X164418838Y-101513276D01*
X164418838Y-101513276D02*
X164466457Y-101465657D01*
X165371219Y-100513276D02*
X165371219Y-101084704D01*
X165371219Y-100798990D02*
X164371219Y-100798990D01*
X164371219Y-100798990D02*
X164514076Y-100894228D01*
X164514076Y-100894228D02*
X164609314Y-100989466D01*
X164609314Y-100989466D02*
X164656933Y-101084704D01*
X164371219Y-100179942D02*
X164371219Y-99560895D01*
X164371219Y-99560895D02*
X164752171Y-99894228D01*
X164752171Y-99894228D02*
X164752171Y-99751371D01*
X164752171Y-99751371D02*
X164799790Y-99656133D01*
X164799790Y-99656133D02*
X164847409Y-99608514D01*
X164847409Y-99608514D02*
X164942647Y-99560895D01*
X164942647Y-99560895D02*
X165180742Y-99560895D01*
X165180742Y-99560895D02*
X165275980Y-99608514D01*
X165275980Y-99608514D02*
X165323600Y-99656133D01*
X165323600Y-99656133D02*
X165371219Y-99751371D01*
X165371219Y-99751371D02*
X165371219Y-100037085D01*
X165371219Y-100037085D02*
X165323600Y-100132323D01*
X165323600Y-100132323D02*
X165275980Y-100179942D01*
X142466666Y-130354819D02*
X142466666Y-131069104D01*
X142466666Y-131069104D02*
X142419047Y-131211961D01*
X142419047Y-131211961D02*
X142323809Y-131307200D01*
X142323809Y-131307200D02*
X142180952Y-131354819D01*
X142180952Y-131354819D02*
X142085714Y-131354819D01*
X143466666Y-131354819D02*
X142895238Y-131354819D01*
X143180952Y-131354819D02*
X143180952Y-130354819D01*
X143180952Y-130354819D02*
X143085714Y-130497676D01*
X143085714Y-130497676D02*
X142990476Y-130592914D01*
X142990476Y-130592914D02*
X142895238Y-130640533D01*
X203039580Y-86129166D02*
X203087200Y-86176785D01*
X203087200Y-86176785D02*
X203134819Y-86319642D01*
X203134819Y-86319642D02*
X203134819Y-86414880D01*
X203134819Y-86414880D02*
X203087200Y-86557737D01*
X203087200Y-86557737D02*
X202991961Y-86652975D01*
X202991961Y-86652975D02*
X202896723Y-86700594D01*
X202896723Y-86700594D02*
X202706247Y-86748213D01*
X202706247Y-86748213D02*
X202563390Y-86748213D01*
X202563390Y-86748213D02*
X202372914Y-86700594D01*
X202372914Y-86700594D02*
X202277676Y-86652975D01*
X202277676Y-86652975D02*
X202182438Y-86557737D01*
X202182438Y-86557737D02*
X202134819Y-86414880D01*
X202134819Y-86414880D02*
X202134819Y-86319642D01*
X202134819Y-86319642D02*
X202182438Y-86176785D01*
X202182438Y-86176785D02*
X202230057Y-86129166D01*
X202563390Y-85557737D02*
X202515771Y-85652975D01*
X202515771Y-85652975D02*
X202468152Y-85700594D01*
X202468152Y-85700594D02*
X202372914Y-85748213D01*
X202372914Y-85748213D02*
X202325295Y-85748213D01*
X202325295Y-85748213D02*
X202230057Y-85700594D01*
X202230057Y-85700594D02*
X202182438Y-85652975D01*
X202182438Y-85652975D02*
X202134819Y-85557737D01*
X202134819Y-85557737D02*
X202134819Y-85367261D01*
X202134819Y-85367261D02*
X202182438Y-85272023D01*
X202182438Y-85272023D02*
X202230057Y-85224404D01*
X202230057Y-85224404D02*
X202325295Y-85176785D01*
X202325295Y-85176785D02*
X202372914Y-85176785D01*
X202372914Y-85176785D02*
X202468152Y-85224404D01*
X202468152Y-85224404D02*
X202515771Y-85272023D01*
X202515771Y-85272023D02*
X202563390Y-85367261D01*
X202563390Y-85367261D02*
X202563390Y-85557737D01*
X202563390Y-85557737D02*
X202611009Y-85652975D01*
X202611009Y-85652975D02*
X202658628Y-85700594D01*
X202658628Y-85700594D02*
X202753866Y-85748213D01*
X202753866Y-85748213D02*
X202944342Y-85748213D01*
X202944342Y-85748213D02*
X203039580Y-85700594D01*
X203039580Y-85700594D02*
X203087200Y-85652975D01*
X203087200Y-85652975D02*
X203134819Y-85557737D01*
X203134819Y-85557737D02*
X203134819Y-85367261D01*
X203134819Y-85367261D02*
X203087200Y-85272023D01*
X203087200Y-85272023D02*
X203039580Y-85224404D01*
X203039580Y-85224404D02*
X202944342Y-85176785D01*
X202944342Y-85176785D02*
X202753866Y-85176785D01*
X202753866Y-85176785D02*
X202658628Y-85224404D01*
X202658628Y-85224404D02*
X202611009Y-85272023D01*
X202611009Y-85272023D02*
X202563390Y-85367261D01*
X182395833Y-77279580D02*
X182348214Y-77327200D01*
X182348214Y-77327200D02*
X182205357Y-77374819D01*
X182205357Y-77374819D02*
X182110119Y-77374819D01*
X182110119Y-77374819D02*
X181967262Y-77327200D01*
X181967262Y-77327200D02*
X181872024Y-77231961D01*
X181872024Y-77231961D02*
X181824405Y-77136723D01*
X181824405Y-77136723D02*
X181776786Y-76946247D01*
X181776786Y-76946247D02*
X181776786Y-76803390D01*
X181776786Y-76803390D02*
X181824405Y-76612914D01*
X181824405Y-76612914D02*
X181872024Y-76517676D01*
X181872024Y-76517676D02*
X181967262Y-76422438D01*
X181967262Y-76422438D02*
X182110119Y-76374819D01*
X182110119Y-76374819D02*
X182205357Y-76374819D01*
X182205357Y-76374819D02*
X182348214Y-76422438D01*
X182348214Y-76422438D02*
X182395833Y-76470057D01*
X183300595Y-76374819D02*
X182824405Y-76374819D01*
X182824405Y-76374819D02*
X182776786Y-76851009D01*
X182776786Y-76851009D02*
X182824405Y-76803390D01*
X182824405Y-76803390D02*
X182919643Y-76755771D01*
X182919643Y-76755771D02*
X183157738Y-76755771D01*
X183157738Y-76755771D02*
X183252976Y-76803390D01*
X183252976Y-76803390D02*
X183300595Y-76851009D01*
X183300595Y-76851009D02*
X183348214Y-76946247D01*
X183348214Y-76946247D02*
X183348214Y-77184342D01*
X183348214Y-77184342D02*
X183300595Y-77279580D01*
X183300595Y-77279580D02*
X183252976Y-77327200D01*
X183252976Y-77327200D02*
X183157738Y-77374819D01*
X183157738Y-77374819D02*
X182919643Y-77374819D01*
X182919643Y-77374819D02*
X182824405Y-77327200D01*
X182824405Y-77327200D02*
X182776786Y-77279580D01*
X161917142Y-127711580D02*
X161869523Y-127759200D01*
X161869523Y-127759200D02*
X161726666Y-127806819D01*
X161726666Y-127806819D02*
X161631428Y-127806819D01*
X161631428Y-127806819D02*
X161488571Y-127759200D01*
X161488571Y-127759200D02*
X161393333Y-127663961D01*
X161393333Y-127663961D02*
X161345714Y-127568723D01*
X161345714Y-127568723D02*
X161298095Y-127378247D01*
X161298095Y-127378247D02*
X161298095Y-127235390D01*
X161298095Y-127235390D02*
X161345714Y-127044914D01*
X161345714Y-127044914D02*
X161393333Y-126949676D01*
X161393333Y-126949676D02*
X161488571Y-126854438D01*
X161488571Y-126854438D02*
X161631428Y-126806819D01*
X161631428Y-126806819D02*
X161726666Y-126806819D01*
X161726666Y-126806819D02*
X161869523Y-126854438D01*
X161869523Y-126854438D02*
X161917142Y-126902057D01*
X162869523Y-127806819D02*
X162298095Y-127806819D01*
X162583809Y-127806819D02*
X162583809Y-126806819D01*
X162583809Y-126806819D02*
X162488571Y-126949676D01*
X162488571Y-126949676D02*
X162393333Y-127044914D01*
X162393333Y-127044914D02*
X162298095Y-127092533D01*
X163345714Y-127806819D02*
X163536190Y-127806819D01*
X163536190Y-127806819D02*
X163631428Y-127759200D01*
X163631428Y-127759200D02*
X163679047Y-127711580D01*
X163679047Y-127711580D02*
X163774285Y-127568723D01*
X163774285Y-127568723D02*
X163821904Y-127378247D01*
X163821904Y-127378247D02*
X163821904Y-126997295D01*
X163821904Y-126997295D02*
X163774285Y-126902057D01*
X163774285Y-126902057D02*
X163726666Y-126854438D01*
X163726666Y-126854438D02*
X163631428Y-126806819D01*
X163631428Y-126806819D02*
X163440952Y-126806819D01*
X163440952Y-126806819D02*
X163345714Y-126854438D01*
X163345714Y-126854438D02*
X163298095Y-126902057D01*
X163298095Y-126902057D02*
X163250476Y-126997295D01*
X163250476Y-126997295D02*
X163250476Y-127235390D01*
X163250476Y-127235390D02*
X163298095Y-127330628D01*
X163298095Y-127330628D02*
X163345714Y-127378247D01*
X163345714Y-127378247D02*
X163440952Y-127425866D01*
X163440952Y-127425866D02*
X163631428Y-127425866D01*
X163631428Y-127425866D02*
X163726666Y-127378247D01*
X163726666Y-127378247D02*
X163774285Y-127330628D01*
X163774285Y-127330628D02*
X163821904Y-127235390D01*
X192659095Y-78672619D02*
X192659095Y-79482142D01*
X192659095Y-79482142D02*
X192706714Y-79577380D01*
X192706714Y-79577380D02*
X192754333Y-79625000D01*
X192754333Y-79625000D02*
X192849571Y-79672619D01*
X192849571Y-79672619D02*
X193040047Y-79672619D01*
X193040047Y-79672619D02*
X193135285Y-79625000D01*
X193135285Y-79625000D02*
X193182904Y-79577380D01*
X193182904Y-79577380D02*
X193230523Y-79482142D01*
X193230523Y-79482142D02*
X193230523Y-78672619D01*
X193611476Y-78672619D02*
X194230523Y-78672619D01*
X194230523Y-78672619D02*
X193897190Y-79053571D01*
X193897190Y-79053571D02*
X194040047Y-79053571D01*
X194040047Y-79053571D02*
X194135285Y-79101190D01*
X194135285Y-79101190D02*
X194182904Y-79148809D01*
X194182904Y-79148809D02*
X194230523Y-79244047D01*
X194230523Y-79244047D02*
X194230523Y-79482142D01*
X194230523Y-79482142D02*
X194182904Y-79577380D01*
X194182904Y-79577380D02*
X194135285Y-79625000D01*
X194135285Y-79625000D02*
X194040047Y-79672619D01*
X194040047Y-79672619D02*
X193754333Y-79672619D01*
X193754333Y-79672619D02*
X193659095Y-79625000D01*
X193659095Y-79625000D02*
X193611476Y-79577380D01*
X133004819Y-130566666D02*
X132528628Y-130899999D01*
X133004819Y-131138094D02*
X132004819Y-131138094D01*
X132004819Y-131138094D02*
X132004819Y-130757142D01*
X132004819Y-130757142D02*
X132052438Y-130661904D01*
X132052438Y-130661904D02*
X132100057Y-130614285D01*
X132100057Y-130614285D02*
X132195295Y-130566666D01*
X132195295Y-130566666D02*
X132338152Y-130566666D01*
X132338152Y-130566666D02*
X132433390Y-130614285D01*
X132433390Y-130614285D02*
X132481009Y-130661904D01*
X132481009Y-130661904D02*
X132528628Y-130757142D01*
X132528628Y-130757142D02*
X132528628Y-131138094D01*
X132004819Y-129709523D02*
X132004819Y-129899999D01*
X132004819Y-129899999D02*
X132052438Y-129995237D01*
X132052438Y-129995237D02*
X132100057Y-130042856D01*
X132100057Y-130042856D02*
X132242914Y-130138094D01*
X132242914Y-130138094D02*
X132433390Y-130185713D01*
X132433390Y-130185713D02*
X132814342Y-130185713D01*
X132814342Y-130185713D02*
X132909580Y-130138094D01*
X132909580Y-130138094D02*
X132957200Y-130090475D01*
X132957200Y-130090475D02*
X133004819Y-129995237D01*
X133004819Y-129995237D02*
X133004819Y-129804761D01*
X133004819Y-129804761D02*
X132957200Y-129709523D01*
X132957200Y-129709523D02*
X132909580Y-129661904D01*
X132909580Y-129661904D02*
X132814342Y-129614285D01*
X132814342Y-129614285D02*
X132576247Y-129614285D01*
X132576247Y-129614285D02*
X132481009Y-129661904D01*
X132481009Y-129661904D02*
X132433390Y-129709523D01*
X132433390Y-129709523D02*
X132385771Y-129804761D01*
X132385771Y-129804761D02*
X132385771Y-129995237D01*
X132385771Y-129995237D02*
X132433390Y-130090475D01*
X132433390Y-130090475D02*
X132481009Y-130138094D01*
X132481009Y-130138094D02*
X132576247Y-130185713D01*
X146169142Y-130817580D02*
X146121523Y-130865200D01*
X146121523Y-130865200D02*
X145978666Y-130912819D01*
X145978666Y-130912819D02*
X145883428Y-130912819D01*
X145883428Y-130912819D02*
X145740571Y-130865200D01*
X145740571Y-130865200D02*
X145645333Y-130769961D01*
X145645333Y-130769961D02*
X145597714Y-130674723D01*
X145597714Y-130674723D02*
X145550095Y-130484247D01*
X145550095Y-130484247D02*
X145550095Y-130341390D01*
X145550095Y-130341390D02*
X145597714Y-130150914D01*
X145597714Y-130150914D02*
X145645333Y-130055676D01*
X145645333Y-130055676D02*
X145740571Y-129960438D01*
X145740571Y-129960438D02*
X145883428Y-129912819D01*
X145883428Y-129912819D02*
X145978666Y-129912819D01*
X145978666Y-129912819D02*
X146121523Y-129960438D01*
X146121523Y-129960438D02*
X146169142Y-130008057D01*
X147121523Y-130912819D02*
X146550095Y-130912819D01*
X146835809Y-130912819D02*
X146835809Y-129912819D01*
X146835809Y-129912819D02*
X146740571Y-130055676D01*
X146740571Y-130055676D02*
X146645333Y-130150914D01*
X146645333Y-130150914D02*
X146550095Y-130198533D01*
X147454857Y-129912819D02*
X148121523Y-129912819D01*
X148121523Y-129912819D02*
X147692952Y-130912819D01*
X199096666Y-95768319D02*
X199096666Y-96482604D01*
X199096666Y-96482604D02*
X199049047Y-96625461D01*
X199049047Y-96625461D02*
X198953809Y-96720700D01*
X198953809Y-96720700D02*
X198810952Y-96768319D01*
X198810952Y-96768319D02*
X198715714Y-96768319D01*
X199525238Y-95863557D02*
X199572857Y-95815938D01*
X199572857Y-95815938D02*
X199668095Y-95768319D01*
X199668095Y-95768319D02*
X199906190Y-95768319D01*
X199906190Y-95768319D02*
X200001428Y-95815938D01*
X200001428Y-95815938D02*
X200049047Y-95863557D01*
X200049047Y-95863557D02*
X200096666Y-95958795D01*
X200096666Y-95958795D02*
X200096666Y-96054033D01*
X200096666Y-96054033D02*
X200049047Y-96196890D01*
X200049047Y-96196890D02*
X199477619Y-96768319D01*
X199477619Y-96768319D02*
X200096666Y-96768319D01*
X176839580Y-123204166D02*
X176887200Y-123251785D01*
X176887200Y-123251785D02*
X176934819Y-123394642D01*
X176934819Y-123394642D02*
X176934819Y-123489880D01*
X176934819Y-123489880D02*
X176887200Y-123632737D01*
X176887200Y-123632737D02*
X176791961Y-123727975D01*
X176791961Y-123727975D02*
X176696723Y-123775594D01*
X176696723Y-123775594D02*
X176506247Y-123823213D01*
X176506247Y-123823213D02*
X176363390Y-123823213D01*
X176363390Y-123823213D02*
X176172914Y-123775594D01*
X176172914Y-123775594D02*
X176077676Y-123727975D01*
X176077676Y-123727975D02*
X175982438Y-123632737D01*
X175982438Y-123632737D02*
X175934819Y-123489880D01*
X175934819Y-123489880D02*
X175934819Y-123394642D01*
X175934819Y-123394642D02*
X175982438Y-123251785D01*
X175982438Y-123251785D02*
X176030057Y-123204166D01*
X175934819Y-122870832D02*
X175934819Y-122251785D01*
X175934819Y-122251785D02*
X176315771Y-122585118D01*
X176315771Y-122585118D02*
X176315771Y-122442261D01*
X176315771Y-122442261D02*
X176363390Y-122347023D01*
X176363390Y-122347023D02*
X176411009Y-122299404D01*
X176411009Y-122299404D02*
X176506247Y-122251785D01*
X176506247Y-122251785D02*
X176744342Y-122251785D01*
X176744342Y-122251785D02*
X176839580Y-122299404D01*
X176839580Y-122299404D02*
X176887200Y-122347023D01*
X176887200Y-122347023D02*
X176934819Y-122442261D01*
X176934819Y-122442261D02*
X176934819Y-122727975D01*
X176934819Y-122727975D02*
X176887200Y-122823213D01*
X176887200Y-122823213D02*
X176839580Y-122870832D01*
X126238095Y-108854819D02*
X126238095Y-109664342D01*
X126238095Y-109664342D02*
X126285714Y-109759580D01*
X126285714Y-109759580D02*
X126333333Y-109807200D01*
X126333333Y-109807200D02*
X126428571Y-109854819D01*
X126428571Y-109854819D02*
X126619047Y-109854819D01*
X126619047Y-109854819D02*
X126714285Y-109807200D01*
X126714285Y-109807200D02*
X126761904Y-109759580D01*
X126761904Y-109759580D02*
X126809523Y-109664342D01*
X126809523Y-109664342D02*
X126809523Y-108854819D01*
X127238095Y-108950057D02*
X127285714Y-108902438D01*
X127285714Y-108902438D02*
X127380952Y-108854819D01*
X127380952Y-108854819D02*
X127619047Y-108854819D01*
X127619047Y-108854819D02*
X127714285Y-108902438D01*
X127714285Y-108902438D02*
X127761904Y-108950057D01*
X127761904Y-108950057D02*
X127809523Y-109045295D01*
X127809523Y-109045295D02*
X127809523Y-109140533D01*
X127809523Y-109140533D02*
X127761904Y-109283390D01*
X127761904Y-109283390D02*
X127190476Y-109854819D01*
X127190476Y-109854819D02*
X127809523Y-109854819D01*
X183279580Y-92030357D02*
X183327200Y-92077976D01*
X183327200Y-92077976D02*
X183374819Y-92220833D01*
X183374819Y-92220833D02*
X183374819Y-92316071D01*
X183374819Y-92316071D02*
X183327200Y-92458928D01*
X183327200Y-92458928D02*
X183231961Y-92554166D01*
X183231961Y-92554166D02*
X183136723Y-92601785D01*
X183136723Y-92601785D02*
X182946247Y-92649404D01*
X182946247Y-92649404D02*
X182803390Y-92649404D01*
X182803390Y-92649404D02*
X182612914Y-92601785D01*
X182612914Y-92601785D02*
X182517676Y-92554166D01*
X182517676Y-92554166D02*
X182422438Y-92458928D01*
X182422438Y-92458928D02*
X182374819Y-92316071D01*
X182374819Y-92316071D02*
X182374819Y-92220833D01*
X182374819Y-92220833D02*
X182422438Y-92077976D01*
X182422438Y-92077976D02*
X182470057Y-92030357D01*
X183374819Y-91077976D02*
X183374819Y-91649404D01*
X183374819Y-91363690D02*
X182374819Y-91363690D01*
X182374819Y-91363690D02*
X182517676Y-91458928D01*
X182517676Y-91458928D02*
X182612914Y-91554166D01*
X182612914Y-91554166D02*
X182660533Y-91649404D01*
X182708152Y-90220833D02*
X183374819Y-90220833D01*
X182327200Y-90458928D02*
X183041485Y-90697023D01*
X183041485Y-90697023D02*
X183041485Y-90077976D01*
X182270833Y-81209580D02*
X182223214Y-81257200D01*
X182223214Y-81257200D02*
X182080357Y-81304819D01*
X182080357Y-81304819D02*
X181985119Y-81304819D01*
X181985119Y-81304819D02*
X181842262Y-81257200D01*
X181842262Y-81257200D02*
X181747024Y-81161961D01*
X181747024Y-81161961D02*
X181699405Y-81066723D01*
X181699405Y-81066723D02*
X181651786Y-80876247D01*
X181651786Y-80876247D02*
X181651786Y-80733390D01*
X181651786Y-80733390D02*
X181699405Y-80542914D01*
X181699405Y-80542914D02*
X181747024Y-80447676D01*
X181747024Y-80447676D02*
X181842262Y-80352438D01*
X181842262Y-80352438D02*
X181985119Y-80304819D01*
X181985119Y-80304819D02*
X182080357Y-80304819D01*
X182080357Y-80304819D02*
X182223214Y-80352438D01*
X182223214Y-80352438D02*
X182270833Y-80400057D01*
X182604167Y-80304819D02*
X183270833Y-80304819D01*
X183270833Y-80304819D02*
X182842262Y-81304819D01*
X128433333Y-121279580D02*
X128385714Y-121327200D01*
X128385714Y-121327200D02*
X128242857Y-121374819D01*
X128242857Y-121374819D02*
X128147619Y-121374819D01*
X128147619Y-121374819D02*
X128004762Y-121327200D01*
X128004762Y-121327200D02*
X127909524Y-121231961D01*
X127909524Y-121231961D02*
X127861905Y-121136723D01*
X127861905Y-121136723D02*
X127814286Y-120946247D01*
X127814286Y-120946247D02*
X127814286Y-120803390D01*
X127814286Y-120803390D02*
X127861905Y-120612914D01*
X127861905Y-120612914D02*
X127909524Y-120517676D01*
X127909524Y-120517676D02*
X128004762Y-120422438D01*
X128004762Y-120422438D02*
X128147619Y-120374819D01*
X128147619Y-120374819D02*
X128242857Y-120374819D01*
X128242857Y-120374819D02*
X128385714Y-120422438D01*
X128385714Y-120422438D02*
X128433333Y-120470057D01*
X129385714Y-121374819D02*
X128814286Y-121374819D01*
X129100000Y-121374819D02*
X129100000Y-120374819D01*
X129100000Y-120374819D02*
X129004762Y-120517676D01*
X129004762Y-120517676D02*
X128909524Y-120612914D01*
X128909524Y-120612914D02*
X128814286Y-120660533D01*
X144433333Y-107204819D02*
X144100000Y-106728628D01*
X143861905Y-107204819D02*
X143861905Y-106204819D01*
X143861905Y-106204819D02*
X144242857Y-106204819D01*
X144242857Y-106204819D02*
X144338095Y-106252438D01*
X144338095Y-106252438D02*
X144385714Y-106300057D01*
X144385714Y-106300057D02*
X144433333Y-106395295D01*
X144433333Y-106395295D02*
X144433333Y-106538152D01*
X144433333Y-106538152D02*
X144385714Y-106633390D01*
X144385714Y-106633390D02*
X144338095Y-106681009D01*
X144338095Y-106681009D02*
X144242857Y-106728628D01*
X144242857Y-106728628D02*
X143861905Y-106728628D01*
X145004762Y-106633390D02*
X144909524Y-106585771D01*
X144909524Y-106585771D02*
X144861905Y-106538152D01*
X144861905Y-106538152D02*
X144814286Y-106442914D01*
X144814286Y-106442914D02*
X144814286Y-106395295D01*
X144814286Y-106395295D02*
X144861905Y-106300057D01*
X144861905Y-106300057D02*
X144909524Y-106252438D01*
X144909524Y-106252438D02*
X145004762Y-106204819D01*
X145004762Y-106204819D02*
X145195238Y-106204819D01*
X145195238Y-106204819D02*
X145290476Y-106252438D01*
X145290476Y-106252438D02*
X145338095Y-106300057D01*
X145338095Y-106300057D02*
X145385714Y-106395295D01*
X145385714Y-106395295D02*
X145385714Y-106442914D01*
X145385714Y-106442914D02*
X145338095Y-106538152D01*
X145338095Y-106538152D02*
X145290476Y-106585771D01*
X145290476Y-106585771D02*
X145195238Y-106633390D01*
X145195238Y-106633390D02*
X145004762Y-106633390D01*
X145004762Y-106633390D02*
X144909524Y-106681009D01*
X144909524Y-106681009D02*
X144861905Y-106728628D01*
X144861905Y-106728628D02*
X144814286Y-106823866D01*
X144814286Y-106823866D02*
X144814286Y-107014342D01*
X144814286Y-107014342D02*
X144861905Y-107109580D01*
X144861905Y-107109580D02*
X144909524Y-107157200D01*
X144909524Y-107157200D02*
X145004762Y-107204819D01*
X145004762Y-107204819D02*
X145195238Y-107204819D01*
X145195238Y-107204819D02*
X145290476Y-107157200D01*
X145290476Y-107157200D02*
X145338095Y-107109580D01*
X145338095Y-107109580D02*
X145385714Y-107014342D01*
X145385714Y-107014342D02*
X145385714Y-106823866D01*
X145385714Y-106823866D02*
X145338095Y-106728628D01*
X145338095Y-106728628D02*
X145290476Y-106681009D01*
X145290476Y-106681009D02*
X145195238Y-106633390D01*
X168233333Y-107004819D02*
X167900000Y-106528628D01*
X167661905Y-107004819D02*
X167661905Y-106004819D01*
X167661905Y-106004819D02*
X168042857Y-106004819D01*
X168042857Y-106004819D02*
X168138095Y-106052438D01*
X168138095Y-106052438D02*
X168185714Y-106100057D01*
X168185714Y-106100057D02*
X168233333Y-106195295D01*
X168233333Y-106195295D02*
X168233333Y-106338152D01*
X168233333Y-106338152D02*
X168185714Y-106433390D01*
X168185714Y-106433390D02*
X168138095Y-106481009D01*
X168138095Y-106481009D02*
X168042857Y-106528628D01*
X168042857Y-106528628D02*
X167661905Y-106528628D01*
X168614286Y-106100057D02*
X168661905Y-106052438D01*
X168661905Y-106052438D02*
X168757143Y-106004819D01*
X168757143Y-106004819D02*
X168995238Y-106004819D01*
X168995238Y-106004819D02*
X169090476Y-106052438D01*
X169090476Y-106052438D02*
X169138095Y-106100057D01*
X169138095Y-106100057D02*
X169185714Y-106195295D01*
X169185714Y-106195295D02*
X169185714Y-106290533D01*
X169185714Y-106290533D02*
X169138095Y-106433390D01*
X169138095Y-106433390D02*
X168566667Y-107004819D01*
X168566667Y-107004819D02*
X169185714Y-107004819D01*
X149033333Y-107254819D02*
X148700000Y-106778628D01*
X148461905Y-107254819D02*
X148461905Y-106254819D01*
X148461905Y-106254819D02*
X148842857Y-106254819D01*
X148842857Y-106254819D02*
X148938095Y-106302438D01*
X148938095Y-106302438D02*
X148985714Y-106350057D01*
X148985714Y-106350057D02*
X149033333Y-106445295D01*
X149033333Y-106445295D02*
X149033333Y-106588152D01*
X149033333Y-106588152D02*
X148985714Y-106683390D01*
X148985714Y-106683390D02*
X148938095Y-106731009D01*
X148938095Y-106731009D02*
X148842857Y-106778628D01*
X148842857Y-106778628D02*
X148461905Y-106778628D01*
X149366667Y-106254819D02*
X150033333Y-106254819D01*
X150033333Y-106254819D02*
X149604762Y-107254819D01*
X186639580Y-87755357D02*
X186687200Y-87802976D01*
X186687200Y-87802976D02*
X186734819Y-87945833D01*
X186734819Y-87945833D02*
X186734819Y-88041071D01*
X186734819Y-88041071D02*
X186687200Y-88183928D01*
X186687200Y-88183928D02*
X186591961Y-88279166D01*
X186591961Y-88279166D02*
X186496723Y-88326785D01*
X186496723Y-88326785D02*
X186306247Y-88374404D01*
X186306247Y-88374404D02*
X186163390Y-88374404D01*
X186163390Y-88374404D02*
X185972914Y-88326785D01*
X185972914Y-88326785D02*
X185877676Y-88279166D01*
X185877676Y-88279166D02*
X185782438Y-88183928D01*
X185782438Y-88183928D02*
X185734819Y-88041071D01*
X185734819Y-88041071D02*
X185734819Y-87945833D01*
X185734819Y-87945833D02*
X185782438Y-87802976D01*
X185782438Y-87802976D02*
X185830057Y-87755357D01*
X186734819Y-86802976D02*
X186734819Y-87374404D01*
X186734819Y-87088690D02*
X185734819Y-87088690D01*
X185734819Y-87088690D02*
X185877676Y-87183928D01*
X185877676Y-87183928D02*
X185972914Y-87279166D01*
X185972914Y-87279166D02*
X186020533Y-87374404D01*
X185734819Y-85898214D02*
X185734819Y-86374404D01*
X185734819Y-86374404D02*
X186211009Y-86422023D01*
X186211009Y-86422023D02*
X186163390Y-86374404D01*
X186163390Y-86374404D02*
X186115771Y-86279166D01*
X186115771Y-86279166D02*
X186115771Y-86041071D01*
X186115771Y-86041071D02*
X186163390Y-85945833D01*
X186163390Y-85945833D02*
X186211009Y-85898214D01*
X186211009Y-85898214D02*
X186306247Y-85850595D01*
X186306247Y-85850595D02*
X186544342Y-85850595D01*
X186544342Y-85850595D02*
X186639580Y-85898214D01*
X186639580Y-85898214D02*
X186687200Y-85945833D01*
X186687200Y-85945833D02*
X186734819Y-86041071D01*
X186734819Y-86041071D02*
X186734819Y-86279166D01*
X186734819Y-86279166D02*
X186687200Y-86374404D01*
X186687200Y-86374404D02*
X186639580Y-86422023D01*
X160275980Y-101428157D02*
X160323600Y-101475776D01*
X160323600Y-101475776D02*
X160371219Y-101618633D01*
X160371219Y-101618633D02*
X160371219Y-101713871D01*
X160371219Y-101713871D02*
X160323600Y-101856728D01*
X160323600Y-101856728D02*
X160228361Y-101951966D01*
X160228361Y-101951966D02*
X160133123Y-101999585D01*
X160133123Y-101999585D02*
X159942647Y-102047204D01*
X159942647Y-102047204D02*
X159799790Y-102047204D01*
X159799790Y-102047204D02*
X159609314Y-101999585D01*
X159609314Y-101999585D02*
X159514076Y-101951966D01*
X159514076Y-101951966D02*
X159418838Y-101856728D01*
X159418838Y-101856728D02*
X159371219Y-101713871D01*
X159371219Y-101713871D02*
X159371219Y-101618633D01*
X159371219Y-101618633D02*
X159418838Y-101475776D01*
X159418838Y-101475776D02*
X159466457Y-101428157D01*
X160371219Y-100475776D02*
X160371219Y-101047204D01*
X160371219Y-100761490D02*
X159371219Y-100761490D01*
X159371219Y-100761490D02*
X159514076Y-100856728D01*
X159514076Y-100856728D02*
X159609314Y-100951966D01*
X159609314Y-100951966D02*
X159656933Y-101047204D01*
X159466457Y-100094823D02*
X159418838Y-100047204D01*
X159418838Y-100047204D02*
X159371219Y-99951966D01*
X159371219Y-99951966D02*
X159371219Y-99713871D01*
X159371219Y-99713871D02*
X159418838Y-99618633D01*
X159418838Y-99618633D02*
X159466457Y-99571014D01*
X159466457Y-99571014D02*
X159561695Y-99523395D01*
X159561695Y-99523395D02*
X159656933Y-99523395D01*
X159656933Y-99523395D02*
X159799790Y-99571014D01*
X159799790Y-99571014D02*
X160371219Y-100142442D01*
X160371219Y-100142442D02*
X160371219Y-99523395D01*
X166997142Y-131071580D02*
X166949523Y-131119200D01*
X166949523Y-131119200D02*
X166806666Y-131166819D01*
X166806666Y-131166819D02*
X166711428Y-131166819D01*
X166711428Y-131166819D02*
X166568571Y-131119200D01*
X166568571Y-131119200D02*
X166473333Y-131023961D01*
X166473333Y-131023961D02*
X166425714Y-130928723D01*
X166425714Y-130928723D02*
X166378095Y-130738247D01*
X166378095Y-130738247D02*
X166378095Y-130595390D01*
X166378095Y-130595390D02*
X166425714Y-130404914D01*
X166425714Y-130404914D02*
X166473333Y-130309676D01*
X166473333Y-130309676D02*
X166568571Y-130214438D01*
X166568571Y-130214438D02*
X166711428Y-130166819D01*
X166711428Y-130166819D02*
X166806666Y-130166819D01*
X166806666Y-130166819D02*
X166949523Y-130214438D01*
X166949523Y-130214438D02*
X166997142Y-130262057D01*
X167949523Y-131166819D02*
X167378095Y-131166819D01*
X167663809Y-131166819D02*
X167663809Y-130166819D01*
X167663809Y-130166819D02*
X167568571Y-130309676D01*
X167568571Y-130309676D02*
X167473333Y-130404914D01*
X167473333Y-130404914D02*
X167378095Y-130452533D01*
X168520952Y-130595390D02*
X168425714Y-130547771D01*
X168425714Y-130547771D02*
X168378095Y-130500152D01*
X168378095Y-130500152D02*
X168330476Y-130404914D01*
X168330476Y-130404914D02*
X168330476Y-130357295D01*
X168330476Y-130357295D02*
X168378095Y-130262057D01*
X168378095Y-130262057D02*
X168425714Y-130214438D01*
X168425714Y-130214438D02*
X168520952Y-130166819D01*
X168520952Y-130166819D02*
X168711428Y-130166819D01*
X168711428Y-130166819D02*
X168806666Y-130214438D01*
X168806666Y-130214438D02*
X168854285Y-130262057D01*
X168854285Y-130262057D02*
X168901904Y-130357295D01*
X168901904Y-130357295D02*
X168901904Y-130404914D01*
X168901904Y-130404914D02*
X168854285Y-130500152D01*
X168854285Y-130500152D02*
X168806666Y-130547771D01*
X168806666Y-130547771D02*
X168711428Y-130595390D01*
X168711428Y-130595390D02*
X168520952Y-130595390D01*
X168520952Y-130595390D02*
X168425714Y-130643009D01*
X168425714Y-130643009D02*
X168378095Y-130690628D01*
X168378095Y-130690628D02*
X168330476Y-130785866D01*
X168330476Y-130785866D02*
X168330476Y-130976342D01*
X168330476Y-130976342D02*
X168378095Y-131071580D01*
X168378095Y-131071580D02*
X168425714Y-131119200D01*
X168425714Y-131119200D02*
X168520952Y-131166819D01*
X168520952Y-131166819D02*
X168711428Y-131166819D01*
X168711428Y-131166819D02*
X168806666Y-131119200D01*
X168806666Y-131119200D02*
X168854285Y-131071580D01*
X168854285Y-131071580D02*
X168901904Y-130976342D01*
X168901904Y-130976342D02*
X168901904Y-130785866D01*
X168901904Y-130785866D02*
X168854285Y-130690628D01*
X168854285Y-130690628D02*
X168806666Y-130643009D01*
X168806666Y-130643009D02*
X168711428Y-130595390D01*
X162833333Y-106604819D02*
X162500000Y-106128628D01*
X162261905Y-106604819D02*
X162261905Y-105604819D01*
X162261905Y-105604819D02*
X162642857Y-105604819D01*
X162642857Y-105604819D02*
X162738095Y-105652438D01*
X162738095Y-105652438D02*
X162785714Y-105700057D01*
X162785714Y-105700057D02*
X162833333Y-105795295D01*
X162833333Y-105795295D02*
X162833333Y-105938152D01*
X162833333Y-105938152D02*
X162785714Y-106033390D01*
X162785714Y-106033390D02*
X162738095Y-106081009D01*
X162738095Y-106081009D02*
X162642857Y-106128628D01*
X162642857Y-106128628D02*
X162261905Y-106128628D01*
X163785714Y-106604819D02*
X163214286Y-106604819D01*
X163500000Y-106604819D02*
X163500000Y-105604819D01*
X163500000Y-105604819D02*
X163404762Y-105747676D01*
X163404762Y-105747676D02*
X163309524Y-105842914D01*
X163309524Y-105842914D02*
X163214286Y-105890533D01*
X160348819Y-133738857D02*
X159872628Y-134072190D01*
X160348819Y-134310285D02*
X159348819Y-134310285D01*
X159348819Y-134310285D02*
X159348819Y-133929333D01*
X159348819Y-133929333D02*
X159396438Y-133834095D01*
X159396438Y-133834095D02*
X159444057Y-133786476D01*
X159444057Y-133786476D02*
X159539295Y-133738857D01*
X159539295Y-133738857D02*
X159682152Y-133738857D01*
X159682152Y-133738857D02*
X159777390Y-133786476D01*
X159777390Y-133786476D02*
X159825009Y-133834095D01*
X159825009Y-133834095D02*
X159872628Y-133929333D01*
X159872628Y-133929333D02*
X159872628Y-134310285D01*
X160348819Y-132786476D02*
X160348819Y-133357904D01*
X160348819Y-133072190D02*
X159348819Y-133072190D01*
X159348819Y-133072190D02*
X159491676Y-133167428D01*
X159491676Y-133167428D02*
X159586914Y-133262666D01*
X159586914Y-133262666D02*
X159634533Y-133357904D01*
X159348819Y-132167428D02*
X159348819Y-132072190D01*
X159348819Y-132072190D02*
X159396438Y-131976952D01*
X159396438Y-131976952D02*
X159444057Y-131929333D01*
X159444057Y-131929333D02*
X159539295Y-131881714D01*
X159539295Y-131881714D02*
X159729771Y-131834095D01*
X159729771Y-131834095D02*
X159967866Y-131834095D01*
X159967866Y-131834095D02*
X160158342Y-131881714D01*
X160158342Y-131881714D02*
X160253580Y-131929333D01*
X160253580Y-131929333D02*
X160301200Y-131976952D01*
X160301200Y-131976952D02*
X160348819Y-132072190D01*
X160348819Y-132072190D02*
X160348819Y-132167428D01*
X160348819Y-132167428D02*
X160301200Y-132262666D01*
X160301200Y-132262666D02*
X160253580Y-132310285D01*
X160253580Y-132310285D02*
X160158342Y-132357904D01*
X160158342Y-132357904D02*
X159967866Y-132405523D01*
X159967866Y-132405523D02*
X159729771Y-132405523D01*
X159729771Y-132405523D02*
X159539295Y-132357904D01*
X159539295Y-132357904D02*
X159444057Y-132310285D01*
X159444057Y-132310285D02*
X159396438Y-132262666D01*
X159396438Y-132262666D02*
X159348819Y-132167428D01*
X171233333Y-118054819D02*
X170900000Y-117578628D01*
X170661905Y-118054819D02*
X170661905Y-117054819D01*
X170661905Y-117054819D02*
X171042857Y-117054819D01*
X171042857Y-117054819D02*
X171138095Y-117102438D01*
X171138095Y-117102438D02*
X171185714Y-117150057D01*
X171185714Y-117150057D02*
X171233333Y-117245295D01*
X171233333Y-117245295D02*
X171233333Y-117388152D01*
X171233333Y-117388152D02*
X171185714Y-117483390D01*
X171185714Y-117483390D02*
X171138095Y-117531009D01*
X171138095Y-117531009D02*
X171042857Y-117578628D01*
X171042857Y-117578628D02*
X170661905Y-117578628D01*
X171566667Y-117054819D02*
X172185714Y-117054819D01*
X172185714Y-117054819D02*
X171852381Y-117435771D01*
X171852381Y-117435771D02*
X171995238Y-117435771D01*
X171995238Y-117435771D02*
X172090476Y-117483390D01*
X172090476Y-117483390D02*
X172138095Y-117531009D01*
X172138095Y-117531009D02*
X172185714Y-117626247D01*
X172185714Y-117626247D02*
X172185714Y-117864342D01*
X172185714Y-117864342D02*
X172138095Y-117959580D01*
X172138095Y-117959580D02*
X172090476Y-118007200D01*
X172090476Y-118007200D02*
X171995238Y-118054819D01*
X171995238Y-118054819D02*
X171709524Y-118054819D01*
X171709524Y-118054819D02*
X171614286Y-118007200D01*
X171614286Y-118007200D02*
X171566667Y-117959580D01*
X169205980Y-100989466D02*
X169253600Y-101037085D01*
X169253600Y-101037085D02*
X169301219Y-101179942D01*
X169301219Y-101179942D02*
X169301219Y-101275180D01*
X169301219Y-101275180D02*
X169253600Y-101418037D01*
X169253600Y-101418037D02*
X169158361Y-101513275D01*
X169158361Y-101513275D02*
X169063123Y-101560894D01*
X169063123Y-101560894D02*
X168872647Y-101608513D01*
X168872647Y-101608513D02*
X168729790Y-101608513D01*
X168729790Y-101608513D02*
X168539314Y-101560894D01*
X168539314Y-101560894D02*
X168444076Y-101513275D01*
X168444076Y-101513275D02*
X168348838Y-101418037D01*
X168348838Y-101418037D02*
X168301219Y-101275180D01*
X168301219Y-101275180D02*
X168301219Y-101179942D01*
X168301219Y-101179942D02*
X168348838Y-101037085D01*
X168348838Y-101037085D02*
X168396457Y-100989466D01*
X169301219Y-100513275D02*
X169301219Y-100322799D01*
X169301219Y-100322799D02*
X169253600Y-100227561D01*
X169253600Y-100227561D02*
X169205980Y-100179942D01*
X169205980Y-100179942D02*
X169063123Y-100084704D01*
X169063123Y-100084704D02*
X168872647Y-100037085D01*
X168872647Y-100037085D02*
X168491695Y-100037085D01*
X168491695Y-100037085D02*
X168396457Y-100084704D01*
X168396457Y-100084704D02*
X168348838Y-100132323D01*
X168348838Y-100132323D02*
X168301219Y-100227561D01*
X168301219Y-100227561D02*
X168301219Y-100418037D01*
X168301219Y-100418037D02*
X168348838Y-100513275D01*
X168348838Y-100513275D02*
X168396457Y-100560894D01*
X168396457Y-100560894D02*
X168491695Y-100608513D01*
X168491695Y-100608513D02*
X168729790Y-100608513D01*
X168729790Y-100608513D02*
X168825028Y-100560894D01*
X168825028Y-100560894D02*
X168872647Y-100513275D01*
X168872647Y-100513275D02*
X168920266Y-100418037D01*
X168920266Y-100418037D02*
X168920266Y-100227561D01*
X168920266Y-100227561D02*
X168872647Y-100132323D01*
X168872647Y-100132323D02*
X168825028Y-100084704D01*
X168825028Y-100084704D02*
X168729790Y-100037085D01*
X155368666Y-125946819D02*
X155368666Y-126661104D01*
X155368666Y-126661104D02*
X155321047Y-126803961D01*
X155321047Y-126803961D02*
X155225809Y-126899200D01*
X155225809Y-126899200D02*
X155082952Y-126946819D01*
X155082952Y-126946819D02*
X154987714Y-126946819D01*
X155749619Y-125946819D02*
X156416285Y-125946819D01*
X156416285Y-125946819D02*
X155987714Y-126946819D01*
X160033333Y-117854819D02*
X159700000Y-117378628D01*
X159461905Y-117854819D02*
X159461905Y-116854819D01*
X159461905Y-116854819D02*
X159842857Y-116854819D01*
X159842857Y-116854819D02*
X159938095Y-116902438D01*
X159938095Y-116902438D02*
X159985714Y-116950057D01*
X159985714Y-116950057D02*
X160033333Y-117045295D01*
X160033333Y-117045295D02*
X160033333Y-117188152D01*
X160033333Y-117188152D02*
X159985714Y-117283390D01*
X159985714Y-117283390D02*
X159938095Y-117331009D01*
X159938095Y-117331009D02*
X159842857Y-117378628D01*
X159842857Y-117378628D02*
X159461905Y-117378628D01*
X160890476Y-117188152D02*
X160890476Y-117854819D01*
X160652381Y-116807200D02*
X160414286Y-117521485D01*
X160414286Y-117521485D02*
X161033333Y-117521485D01*
X152157142Y-111679580D02*
X152109523Y-111727200D01*
X152109523Y-111727200D02*
X151966666Y-111774819D01*
X151966666Y-111774819D02*
X151871428Y-111774819D01*
X151871428Y-111774819D02*
X151728571Y-111727200D01*
X151728571Y-111727200D02*
X151633333Y-111631961D01*
X151633333Y-111631961D02*
X151585714Y-111536723D01*
X151585714Y-111536723D02*
X151538095Y-111346247D01*
X151538095Y-111346247D02*
X151538095Y-111203390D01*
X151538095Y-111203390D02*
X151585714Y-111012914D01*
X151585714Y-111012914D02*
X151633333Y-110917676D01*
X151633333Y-110917676D02*
X151728571Y-110822438D01*
X151728571Y-110822438D02*
X151871428Y-110774819D01*
X151871428Y-110774819D02*
X151966666Y-110774819D01*
X151966666Y-110774819D02*
X152109523Y-110822438D01*
X152109523Y-110822438D02*
X152157142Y-110870057D01*
X153109523Y-111774819D02*
X152538095Y-111774819D01*
X152823809Y-111774819D02*
X152823809Y-110774819D01*
X152823809Y-110774819D02*
X152728571Y-110917676D01*
X152728571Y-110917676D02*
X152633333Y-111012914D01*
X152633333Y-111012914D02*
X152538095Y-111060533D01*
X153728571Y-110774819D02*
X153823809Y-110774819D01*
X153823809Y-110774819D02*
X153919047Y-110822438D01*
X153919047Y-110822438D02*
X153966666Y-110870057D01*
X153966666Y-110870057D02*
X154014285Y-110965295D01*
X154014285Y-110965295D02*
X154061904Y-111155771D01*
X154061904Y-111155771D02*
X154061904Y-111393866D01*
X154061904Y-111393866D02*
X154014285Y-111584342D01*
X154014285Y-111584342D02*
X153966666Y-111679580D01*
X153966666Y-111679580D02*
X153919047Y-111727200D01*
X153919047Y-111727200D02*
X153823809Y-111774819D01*
X153823809Y-111774819D02*
X153728571Y-111774819D01*
X153728571Y-111774819D02*
X153633333Y-111727200D01*
X153633333Y-111727200D02*
X153585714Y-111679580D01*
X153585714Y-111679580D02*
X153538095Y-111584342D01*
X153538095Y-111584342D02*
X153490476Y-111393866D01*
X153490476Y-111393866D02*
X153490476Y-111155771D01*
X153490476Y-111155771D02*
X153538095Y-110965295D01*
X153538095Y-110965295D02*
X153585714Y-110870057D01*
X153585714Y-110870057D02*
X153633333Y-110822438D01*
X153633333Y-110822438D02*
X153728571Y-110774819D01*
X168255419Y-125138704D02*
X169064942Y-125138704D01*
X169064942Y-125138704D02*
X169160180Y-125091085D01*
X169160180Y-125091085D02*
X169207800Y-125043466D01*
X169207800Y-125043466D02*
X169255419Y-124948228D01*
X169255419Y-124948228D02*
X169255419Y-124757752D01*
X169255419Y-124757752D02*
X169207800Y-124662514D01*
X169207800Y-124662514D02*
X169160180Y-124614895D01*
X169160180Y-124614895D02*
X169064942Y-124567276D01*
X169064942Y-124567276D02*
X168255419Y-124567276D01*
X169255419Y-123567276D02*
X169255419Y-124138704D01*
X169255419Y-123852990D02*
X168255419Y-123852990D01*
X168255419Y-123852990D02*
X168398276Y-123948228D01*
X168398276Y-123948228D02*
X168493514Y-124043466D01*
X168493514Y-124043466D02*
X168541133Y-124138704D01*
D12*
X200564171Y-102384510D02*
X202064171Y-102384510D01*
X202064171Y-102384510D02*
X202064171Y-102955939D01*
X202064171Y-102955939D02*
X201992742Y-103098796D01*
X201992742Y-103098796D02*
X201921314Y-103170225D01*
X201921314Y-103170225D02*
X201778457Y-103241653D01*
X201778457Y-103241653D02*
X201564171Y-103241653D01*
X201564171Y-103241653D02*
X201421314Y-103170225D01*
X201421314Y-103170225D02*
X201349885Y-103098796D01*
X201349885Y-103098796D02*
X201278457Y-102955939D01*
X201278457Y-102955939D02*
X201278457Y-102384510D01*
X200564171Y-103884510D02*
X202064171Y-103884510D01*
X202064171Y-103884510D02*
X202064171Y-104455939D01*
X202064171Y-104455939D02*
X201992742Y-104598796D01*
X201992742Y-104598796D02*
X201921314Y-104670225D01*
X201921314Y-104670225D02*
X201778457Y-104741653D01*
X201778457Y-104741653D02*
X201564171Y-104741653D01*
X201564171Y-104741653D02*
X201421314Y-104670225D01*
X201421314Y-104670225D02*
X201349885Y-104598796D01*
X201349885Y-104598796D02*
X201278457Y-104455939D01*
X201278457Y-104455939D02*
X201278457Y-103884510D01*
X200635600Y-105313082D02*
X200564171Y-105527368D01*
X200564171Y-105527368D02*
X200564171Y-105884510D01*
X200564171Y-105884510D02*
X200635600Y-106027368D01*
X200635600Y-106027368D02*
X200707028Y-106098796D01*
X200707028Y-106098796D02*
X200849885Y-106170225D01*
X200849885Y-106170225D02*
X200992742Y-106170225D01*
X200992742Y-106170225D02*
X201135600Y-106098796D01*
X201135600Y-106098796D02*
X201207028Y-106027368D01*
X201207028Y-106027368D02*
X201278457Y-105884510D01*
X201278457Y-105884510D02*
X201349885Y-105598796D01*
X201349885Y-105598796D02*
X201421314Y-105455939D01*
X201421314Y-105455939D02*
X201492742Y-105384510D01*
X201492742Y-105384510D02*
X201635600Y-105313082D01*
X201635600Y-105313082D02*
X201778457Y-105313082D01*
X201778457Y-105313082D02*
X201921314Y-105384510D01*
X201921314Y-105384510D02*
X201992742Y-105455939D01*
X201992742Y-105455939D02*
X202064171Y-105598796D01*
X202064171Y-105598796D02*
X202064171Y-105955939D01*
X202064171Y-105955939D02*
X201992742Y-106170225D01*
X197014171Y-102120225D02*
X197014171Y-102977368D01*
X195514171Y-102548796D02*
X197014171Y-102548796D01*
X195514171Y-103334510D02*
X196514171Y-104120225D01*
X196514171Y-103334510D02*
X195514171Y-104120225D01*
X195514171Y-105334511D02*
X197014171Y-105334511D01*
X195585600Y-105334511D02*
X195514171Y-105191653D01*
X195514171Y-105191653D02*
X195514171Y-104905939D01*
X195514171Y-104905939D02*
X195585600Y-104763082D01*
X195585600Y-104763082D02*
X195657028Y-104691653D01*
X195657028Y-104691653D02*
X195799885Y-104620225D01*
X195799885Y-104620225D02*
X196228457Y-104620225D01*
X196228457Y-104620225D02*
X196371314Y-104691653D01*
X196371314Y-104691653D02*
X196442742Y-104763082D01*
X196442742Y-104763082D02*
X196514171Y-104905939D01*
X196514171Y-104905939D02*
X196514171Y-105191653D01*
X196514171Y-105191653D02*
X196442742Y-105334511D01*
X192064171Y-102170225D02*
X190564171Y-102670225D01*
X190564171Y-102670225D02*
X192064171Y-103170225D01*
X190635600Y-104313082D02*
X190564171Y-104170224D01*
X190564171Y-104170224D02*
X190564171Y-103884510D01*
X190564171Y-103884510D02*
X190635600Y-103741653D01*
X190635600Y-103741653D02*
X190707028Y-103670224D01*
X190707028Y-103670224D02*
X190849885Y-103598796D01*
X190849885Y-103598796D02*
X191278457Y-103598796D01*
X191278457Y-103598796D02*
X191421314Y-103670224D01*
X191421314Y-103670224D02*
X191492742Y-103741653D01*
X191492742Y-103741653D02*
X191564171Y-103884510D01*
X191564171Y-103884510D02*
X191564171Y-104170224D01*
X191564171Y-104170224D02*
X191492742Y-104313082D01*
X190635600Y-105598796D02*
X190564171Y-105455938D01*
X190564171Y-105455938D02*
X190564171Y-105170224D01*
X190564171Y-105170224D02*
X190635600Y-105027367D01*
X190635600Y-105027367D02*
X190707028Y-104955938D01*
X190707028Y-104955938D02*
X190849885Y-104884510D01*
X190849885Y-104884510D02*
X191278457Y-104884510D01*
X191278457Y-104884510D02*
X191421314Y-104955938D01*
X191421314Y-104955938D02*
X191492742Y-105027367D01*
X191492742Y-105027367D02*
X191564171Y-105170224D01*
X191564171Y-105170224D02*
X191564171Y-105455938D01*
X191564171Y-105455938D02*
X191492742Y-105598796D01*
X198014171Y-103241653D02*
X198728457Y-102741653D01*
X198014171Y-102384510D02*
X199514171Y-102384510D01*
X199514171Y-102384510D02*
X199514171Y-102955939D01*
X199514171Y-102955939D02*
X199442742Y-103098796D01*
X199442742Y-103098796D02*
X199371314Y-103170225D01*
X199371314Y-103170225D02*
X199228457Y-103241653D01*
X199228457Y-103241653D02*
X199014171Y-103241653D01*
X199014171Y-103241653D02*
X198871314Y-103170225D01*
X198871314Y-103170225D02*
X198799885Y-103098796D01*
X198799885Y-103098796D02*
X198728457Y-102955939D01*
X198728457Y-102955939D02*
X198728457Y-102384510D01*
X198014171Y-103741653D02*
X199014171Y-104527368D01*
X199014171Y-103741653D02*
X198014171Y-104527368D01*
X198014171Y-105741654D02*
X199514171Y-105741654D01*
X198085600Y-105741654D02*
X198014171Y-105598796D01*
X198014171Y-105598796D02*
X198014171Y-105313082D01*
X198014171Y-105313082D02*
X198085600Y-105170225D01*
X198085600Y-105170225D02*
X198157028Y-105098796D01*
X198157028Y-105098796D02*
X198299885Y-105027368D01*
X198299885Y-105027368D02*
X198728457Y-105027368D01*
X198728457Y-105027368D02*
X198871314Y-105098796D01*
X198871314Y-105098796D02*
X198942742Y-105170225D01*
X198942742Y-105170225D02*
X199014171Y-105313082D01*
X199014171Y-105313082D02*
X199014171Y-105598796D01*
X199014171Y-105598796D02*
X198942742Y-105741654D01*
X194442742Y-103170225D02*
X194514171Y-103027368D01*
X194514171Y-103027368D02*
X194514171Y-102813082D01*
X194514171Y-102813082D02*
X194442742Y-102598796D01*
X194442742Y-102598796D02*
X194299885Y-102455939D01*
X194299885Y-102455939D02*
X194157028Y-102384510D01*
X194157028Y-102384510D02*
X193871314Y-102313082D01*
X193871314Y-102313082D02*
X193657028Y-102313082D01*
X193657028Y-102313082D02*
X193371314Y-102384510D01*
X193371314Y-102384510D02*
X193228457Y-102455939D01*
X193228457Y-102455939D02*
X193085600Y-102598796D01*
X193085600Y-102598796D02*
X193014171Y-102813082D01*
X193014171Y-102813082D02*
X193014171Y-102955939D01*
X193014171Y-102955939D02*
X193085600Y-103170225D01*
X193085600Y-103170225D02*
X193157028Y-103241653D01*
X193157028Y-103241653D02*
X193657028Y-103241653D01*
X193657028Y-103241653D02*
X193657028Y-102955939D01*
X194014171Y-103884510D02*
X193014171Y-103884510D01*
X193871314Y-103884510D02*
X193942742Y-103955939D01*
X193942742Y-103955939D02*
X194014171Y-104098796D01*
X194014171Y-104098796D02*
X194014171Y-104313082D01*
X194014171Y-104313082D02*
X193942742Y-104455939D01*
X193942742Y-104455939D02*
X193799885Y-104527368D01*
X193799885Y-104527368D02*
X193014171Y-104527368D01*
X193014171Y-105884511D02*
X194514171Y-105884511D01*
X193085600Y-105884511D02*
X193014171Y-105741653D01*
X193014171Y-105741653D02*
X193014171Y-105455939D01*
X193014171Y-105455939D02*
X193085600Y-105313082D01*
X193085600Y-105313082D02*
X193157028Y-105241653D01*
X193157028Y-105241653D02*
X193299885Y-105170225D01*
X193299885Y-105170225D02*
X193728457Y-105170225D01*
X193728457Y-105170225D02*
X193871314Y-105241653D01*
X193871314Y-105241653D02*
X193942742Y-105313082D01*
X193942742Y-105313082D02*
X194014171Y-105455939D01*
X194014171Y-105455939D02*
X194014171Y-105741653D01*
X194014171Y-105741653D02*
X193942742Y-105884511D01*
D10*
X162904761Y-111750057D02*
X162809523Y-111702438D01*
X162809523Y-111702438D02*
X162714285Y-111607200D01*
X162714285Y-111607200D02*
X162571428Y-111464342D01*
X162571428Y-111464342D02*
X162476190Y-111416723D01*
X162476190Y-111416723D02*
X162380952Y-111416723D01*
X162428571Y-111654819D02*
X162333333Y-111607200D01*
X162333333Y-111607200D02*
X162238095Y-111511961D01*
X162238095Y-111511961D02*
X162190476Y-111321485D01*
X162190476Y-111321485D02*
X162190476Y-110988152D01*
X162190476Y-110988152D02*
X162238095Y-110797676D01*
X162238095Y-110797676D02*
X162333333Y-110702438D01*
X162333333Y-110702438D02*
X162428571Y-110654819D01*
X162428571Y-110654819D02*
X162619047Y-110654819D01*
X162619047Y-110654819D02*
X162714285Y-110702438D01*
X162714285Y-110702438D02*
X162809523Y-110797676D01*
X162809523Y-110797676D02*
X162857142Y-110988152D01*
X162857142Y-110988152D02*
X162857142Y-111321485D01*
X162857142Y-111321485D02*
X162809523Y-111511961D01*
X162809523Y-111511961D02*
X162714285Y-111607200D01*
X162714285Y-111607200D02*
X162619047Y-111654819D01*
X162619047Y-111654819D02*
X162428571Y-111654819D01*
X163238095Y-110750057D02*
X163285714Y-110702438D01*
X163285714Y-110702438D02*
X163380952Y-110654819D01*
X163380952Y-110654819D02*
X163619047Y-110654819D01*
X163619047Y-110654819D02*
X163714285Y-110702438D01*
X163714285Y-110702438D02*
X163761904Y-110750057D01*
X163761904Y-110750057D02*
X163809523Y-110845295D01*
X163809523Y-110845295D02*
X163809523Y-110940533D01*
X163809523Y-110940533D02*
X163761904Y-111083390D01*
X163761904Y-111083390D02*
X163190476Y-111654819D01*
X163190476Y-111654819D02*
X163809523Y-111654819D01*
X132994642Y-116679580D02*
X132947023Y-116727200D01*
X132947023Y-116727200D02*
X132804166Y-116774819D01*
X132804166Y-116774819D02*
X132708928Y-116774819D01*
X132708928Y-116774819D02*
X132566071Y-116727200D01*
X132566071Y-116727200D02*
X132470833Y-116631961D01*
X132470833Y-116631961D02*
X132423214Y-116536723D01*
X132423214Y-116536723D02*
X132375595Y-116346247D01*
X132375595Y-116346247D02*
X132375595Y-116203390D01*
X132375595Y-116203390D02*
X132423214Y-116012914D01*
X132423214Y-116012914D02*
X132470833Y-115917676D01*
X132470833Y-115917676D02*
X132566071Y-115822438D01*
X132566071Y-115822438D02*
X132708928Y-115774819D01*
X132708928Y-115774819D02*
X132804166Y-115774819D01*
X132804166Y-115774819D02*
X132947023Y-115822438D01*
X132947023Y-115822438D02*
X132994642Y-115870057D01*
X133947023Y-116774819D02*
X133375595Y-116774819D01*
X133661309Y-116774819D02*
X133661309Y-115774819D01*
X133661309Y-115774819D02*
X133566071Y-115917676D01*
X133566071Y-115917676D02*
X133470833Y-116012914D01*
X133470833Y-116012914D02*
X133375595Y-116060533D01*
X134899404Y-116774819D02*
X134327976Y-116774819D01*
X134613690Y-116774819D02*
X134613690Y-115774819D01*
X134613690Y-115774819D02*
X134518452Y-115917676D01*
X134518452Y-115917676D02*
X134423214Y-116012914D01*
X134423214Y-116012914D02*
X134327976Y-116060533D01*
X173839580Y-123204166D02*
X173887200Y-123251785D01*
X173887200Y-123251785D02*
X173934819Y-123394642D01*
X173934819Y-123394642D02*
X173934819Y-123489880D01*
X173934819Y-123489880D02*
X173887200Y-123632737D01*
X173887200Y-123632737D02*
X173791961Y-123727975D01*
X173791961Y-123727975D02*
X173696723Y-123775594D01*
X173696723Y-123775594D02*
X173506247Y-123823213D01*
X173506247Y-123823213D02*
X173363390Y-123823213D01*
X173363390Y-123823213D02*
X173172914Y-123775594D01*
X173172914Y-123775594D02*
X173077676Y-123727975D01*
X173077676Y-123727975D02*
X172982438Y-123632737D01*
X172982438Y-123632737D02*
X172934819Y-123489880D01*
X172934819Y-123489880D02*
X172934819Y-123394642D01*
X172934819Y-123394642D02*
X172982438Y-123251785D01*
X172982438Y-123251785D02*
X173030057Y-123204166D01*
X173268152Y-122347023D02*
X173934819Y-122347023D01*
X172887200Y-122585118D02*
X173601485Y-122823213D01*
X173601485Y-122823213D02*
X173601485Y-122204166D01*
X159838095Y-70904819D02*
X159838095Y-71714342D01*
X159838095Y-71714342D02*
X159885714Y-71809580D01*
X159885714Y-71809580D02*
X159933333Y-71857200D01*
X159933333Y-71857200D02*
X160028571Y-71904819D01*
X160028571Y-71904819D02*
X160219047Y-71904819D01*
X160219047Y-71904819D02*
X160314285Y-71857200D01*
X160314285Y-71857200D02*
X160361904Y-71809580D01*
X160361904Y-71809580D02*
X160409523Y-71714342D01*
X160409523Y-71714342D02*
X160409523Y-70904819D01*
X161314285Y-71238152D02*
X161314285Y-71904819D01*
X161076190Y-70857200D02*
X160838095Y-71571485D01*
X160838095Y-71571485D02*
X161457142Y-71571485D01*
X182483333Y-73829580D02*
X182435714Y-73877200D01*
X182435714Y-73877200D02*
X182292857Y-73924819D01*
X182292857Y-73924819D02*
X182197619Y-73924819D01*
X182197619Y-73924819D02*
X182054762Y-73877200D01*
X182054762Y-73877200D02*
X181959524Y-73781961D01*
X181959524Y-73781961D02*
X181911905Y-73686723D01*
X181911905Y-73686723D02*
X181864286Y-73496247D01*
X181864286Y-73496247D02*
X181864286Y-73353390D01*
X181864286Y-73353390D02*
X181911905Y-73162914D01*
X181911905Y-73162914D02*
X181959524Y-73067676D01*
X181959524Y-73067676D02*
X182054762Y-72972438D01*
X182054762Y-72972438D02*
X182197619Y-72924819D01*
X182197619Y-72924819D02*
X182292857Y-72924819D01*
X182292857Y-72924819D02*
X182435714Y-72972438D01*
X182435714Y-72972438D02*
X182483333Y-73020057D01*
X183340476Y-72924819D02*
X183150000Y-72924819D01*
X183150000Y-72924819D02*
X183054762Y-72972438D01*
X183054762Y-72972438D02*
X183007143Y-73020057D01*
X183007143Y-73020057D02*
X182911905Y-73162914D01*
X182911905Y-73162914D02*
X182864286Y-73353390D01*
X182864286Y-73353390D02*
X182864286Y-73734342D01*
X182864286Y-73734342D02*
X182911905Y-73829580D01*
X182911905Y-73829580D02*
X182959524Y-73877200D01*
X182959524Y-73877200D02*
X183054762Y-73924819D01*
X183054762Y-73924819D02*
X183245238Y-73924819D01*
X183245238Y-73924819D02*
X183340476Y-73877200D01*
X183340476Y-73877200D02*
X183388095Y-73829580D01*
X183388095Y-73829580D02*
X183435714Y-73734342D01*
X183435714Y-73734342D02*
X183435714Y-73496247D01*
X183435714Y-73496247D02*
X183388095Y-73401009D01*
X183388095Y-73401009D02*
X183340476Y-73353390D01*
X183340476Y-73353390D02*
X183245238Y-73305771D01*
X183245238Y-73305771D02*
X183054762Y-73305771D01*
X183054762Y-73305771D02*
X182959524Y-73353390D01*
X182959524Y-73353390D02*
X182911905Y-73401009D01*
X182911905Y-73401009D02*
X182864286Y-73496247D01*
X173616666Y-125804819D02*
X173616666Y-126519104D01*
X173616666Y-126519104D02*
X173569047Y-126661961D01*
X173569047Y-126661961D02*
X173473809Y-126757200D01*
X173473809Y-126757200D02*
X173330952Y-126804819D01*
X173330952Y-126804819D02*
X173235714Y-126804819D01*
X174521428Y-125804819D02*
X174330952Y-125804819D01*
X174330952Y-125804819D02*
X174235714Y-125852438D01*
X174235714Y-125852438D02*
X174188095Y-125900057D01*
X174188095Y-125900057D02*
X174092857Y-126042914D01*
X174092857Y-126042914D02*
X174045238Y-126233390D01*
X174045238Y-126233390D02*
X174045238Y-126614342D01*
X174045238Y-126614342D02*
X174092857Y-126709580D01*
X174092857Y-126709580D02*
X174140476Y-126757200D01*
X174140476Y-126757200D02*
X174235714Y-126804819D01*
X174235714Y-126804819D02*
X174426190Y-126804819D01*
X174426190Y-126804819D02*
X174521428Y-126757200D01*
X174521428Y-126757200D02*
X174569047Y-126709580D01*
X174569047Y-126709580D02*
X174616666Y-126614342D01*
X174616666Y-126614342D02*
X174616666Y-126376247D01*
X174616666Y-126376247D02*
X174569047Y-126281009D01*
X174569047Y-126281009D02*
X174521428Y-126233390D01*
X174521428Y-126233390D02*
X174426190Y-126185771D01*
X174426190Y-126185771D02*
X174235714Y-126185771D01*
X174235714Y-126185771D02*
X174140476Y-126233390D01*
X174140476Y-126233390D02*
X174092857Y-126281009D01*
X174092857Y-126281009D02*
X174045238Y-126376247D01*
X148629819Y-117561904D02*
X149439342Y-117561904D01*
X149439342Y-117561904D02*
X149534580Y-117514285D01*
X149534580Y-117514285D02*
X149582200Y-117466666D01*
X149582200Y-117466666D02*
X149629819Y-117371428D01*
X149629819Y-117371428D02*
X149629819Y-117180952D01*
X149629819Y-117180952D02*
X149582200Y-117085714D01*
X149582200Y-117085714D02*
X149534580Y-117038095D01*
X149534580Y-117038095D02*
X149439342Y-116990476D01*
X149439342Y-116990476D02*
X148629819Y-116990476D01*
X148629819Y-116038095D02*
X148629819Y-116514285D01*
X148629819Y-116514285D02*
X149106009Y-116561904D01*
X149106009Y-116561904D02*
X149058390Y-116514285D01*
X149058390Y-116514285D02*
X149010771Y-116419047D01*
X149010771Y-116419047D02*
X149010771Y-116180952D01*
X149010771Y-116180952D02*
X149058390Y-116085714D01*
X149058390Y-116085714D02*
X149106009Y-116038095D01*
X149106009Y-116038095D02*
X149201247Y-115990476D01*
X149201247Y-115990476D02*
X149439342Y-115990476D01*
X149439342Y-115990476D02*
X149534580Y-116038095D01*
X149534580Y-116038095D02*
X149582200Y-116085714D01*
X149582200Y-116085714D02*
X149629819Y-116180952D01*
X149629819Y-116180952D02*
X149629819Y-116419047D01*
X149629819Y-116419047D02*
X149582200Y-116514285D01*
X149582200Y-116514285D02*
X149534580Y-116561904D01*
X159573809Y-125378628D02*
X159573809Y-125854819D01*
X159240476Y-124854819D02*
X159573809Y-125378628D01*
X159573809Y-125378628D02*
X159907142Y-124854819D01*
X160764285Y-125854819D02*
X160192857Y-125854819D01*
X160478571Y-125854819D02*
X160478571Y-124854819D01*
X160478571Y-124854819D02*
X160383333Y-124997676D01*
X160383333Y-124997676D02*
X160288095Y-125092914D01*
X160288095Y-125092914D02*
X160192857Y-125140533D01*
X185266666Y-59654819D02*
X185266666Y-60369104D01*
X185266666Y-60369104D02*
X185219047Y-60511961D01*
X185219047Y-60511961D02*
X185123809Y-60607200D01*
X185123809Y-60607200D02*
X184980952Y-60654819D01*
X184980952Y-60654819D02*
X184885714Y-60654819D01*
X186171428Y-59988152D02*
X186171428Y-60654819D01*
X185933333Y-59607200D02*
X185695238Y-60321485D01*
X185695238Y-60321485D02*
X186314285Y-60321485D01*
X146169142Y-127515580D02*
X146121523Y-127563200D01*
X146121523Y-127563200D02*
X145978666Y-127610819D01*
X145978666Y-127610819D02*
X145883428Y-127610819D01*
X145883428Y-127610819D02*
X145740571Y-127563200D01*
X145740571Y-127563200D02*
X145645333Y-127467961D01*
X145645333Y-127467961D02*
X145597714Y-127372723D01*
X145597714Y-127372723D02*
X145550095Y-127182247D01*
X145550095Y-127182247D02*
X145550095Y-127039390D01*
X145550095Y-127039390D02*
X145597714Y-126848914D01*
X145597714Y-126848914D02*
X145645333Y-126753676D01*
X145645333Y-126753676D02*
X145740571Y-126658438D01*
X145740571Y-126658438D02*
X145883428Y-126610819D01*
X145883428Y-126610819D02*
X145978666Y-126610819D01*
X145978666Y-126610819D02*
X146121523Y-126658438D01*
X146121523Y-126658438D02*
X146169142Y-126706057D01*
X147121523Y-127610819D02*
X146550095Y-127610819D01*
X146835809Y-127610819D02*
X146835809Y-126610819D01*
X146835809Y-126610819D02*
X146740571Y-126753676D01*
X146740571Y-126753676D02*
X146645333Y-126848914D01*
X146645333Y-126848914D02*
X146550095Y-126896533D01*
X147978666Y-126610819D02*
X147788190Y-126610819D01*
X147788190Y-126610819D02*
X147692952Y-126658438D01*
X147692952Y-126658438D02*
X147645333Y-126706057D01*
X147645333Y-126706057D02*
X147550095Y-126848914D01*
X147550095Y-126848914D02*
X147502476Y-127039390D01*
X147502476Y-127039390D02*
X147502476Y-127420342D01*
X147502476Y-127420342D02*
X147550095Y-127515580D01*
X147550095Y-127515580D02*
X147597714Y-127563200D01*
X147597714Y-127563200D02*
X147692952Y-127610819D01*
X147692952Y-127610819D02*
X147883428Y-127610819D01*
X147883428Y-127610819D02*
X147978666Y-127563200D01*
X147978666Y-127563200D02*
X148026285Y-127515580D01*
X148026285Y-127515580D02*
X148073904Y-127420342D01*
X148073904Y-127420342D02*
X148073904Y-127182247D01*
X148073904Y-127182247D02*
X148026285Y-127087009D01*
X148026285Y-127087009D02*
X147978666Y-127039390D01*
X147978666Y-127039390D02*
X147883428Y-126991771D01*
X147883428Y-126991771D02*
X147692952Y-126991771D01*
X147692952Y-126991771D02*
X147597714Y-127039390D01*
X147597714Y-127039390D02*
X147550095Y-127087009D01*
X147550095Y-127087009D02*
X147502476Y-127182247D01*
X168104761Y-111750057D02*
X168009523Y-111702438D01*
X168009523Y-111702438D02*
X167914285Y-111607200D01*
X167914285Y-111607200D02*
X167771428Y-111464342D01*
X167771428Y-111464342D02*
X167676190Y-111416723D01*
X167676190Y-111416723D02*
X167580952Y-111416723D01*
X167628571Y-111654819D02*
X167533333Y-111607200D01*
X167533333Y-111607200D02*
X167438095Y-111511961D01*
X167438095Y-111511961D02*
X167390476Y-111321485D01*
X167390476Y-111321485D02*
X167390476Y-110988152D01*
X167390476Y-110988152D02*
X167438095Y-110797676D01*
X167438095Y-110797676D02*
X167533333Y-110702438D01*
X167533333Y-110702438D02*
X167628571Y-110654819D01*
X167628571Y-110654819D02*
X167819047Y-110654819D01*
X167819047Y-110654819D02*
X167914285Y-110702438D01*
X167914285Y-110702438D02*
X168009523Y-110797676D01*
X168009523Y-110797676D02*
X168057142Y-110988152D01*
X168057142Y-110988152D02*
X168057142Y-111321485D01*
X168057142Y-111321485D02*
X168009523Y-111511961D01*
X168009523Y-111511961D02*
X167914285Y-111607200D01*
X167914285Y-111607200D02*
X167819047Y-111654819D01*
X167819047Y-111654819D02*
X167628571Y-111654819D01*
X169009523Y-111654819D02*
X168438095Y-111654819D01*
X168723809Y-111654819D02*
X168723809Y-110654819D01*
X168723809Y-110654819D02*
X168628571Y-110797676D01*
X168628571Y-110797676D02*
X168533333Y-110892914D01*
X168533333Y-110892914D02*
X168438095Y-110940533D01*
X210266666Y-92854819D02*
X210266666Y-93569104D01*
X210266666Y-93569104D02*
X210219047Y-93711961D01*
X210219047Y-93711961D02*
X210123809Y-93807200D01*
X210123809Y-93807200D02*
X209980952Y-93854819D01*
X209980952Y-93854819D02*
X209885714Y-93854819D01*
X211219047Y-92854819D02*
X210742857Y-92854819D01*
X210742857Y-92854819D02*
X210695238Y-93331009D01*
X210695238Y-93331009D02*
X210742857Y-93283390D01*
X210742857Y-93283390D02*
X210838095Y-93235771D01*
X210838095Y-93235771D02*
X211076190Y-93235771D01*
X211076190Y-93235771D02*
X211171428Y-93283390D01*
X211171428Y-93283390D02*
X211219047Y-93331009D01*
X211219047Y-93331009D02*
X211266666Y-93426247D01*
X211266666Y-93426247D02*
X211266666Y-93664342D01*
X211266666Y-93664342D02*
X211219047Y-93759580D01*
X211219047Y-93759580D02*
X211171428Y-93807200D01*
X211171428Y-93807200D02*
X211076190Y-93854819D01*
X211076190Y-93854819D02*
X210838095Y-93854819D01*
X210838095Y-93854819D02*
X210742857Y-93807200D01*
X210742857Y-93807200D02*
X210695238Y-93759580D01*
X128395833Y-116479580D02*
X128348214Y-116527200D01*
X128348214Y-116527200D02*
X128205357Y-116574819D01*
X128205357Y-116574819D02*
X128110119Y-116574819D01*
X128110119Y-116574819D02*
X127967262Y-116527200D01*
X127967262Y-116527200D02*
X127872024Y-116431961D01*
X127872024Y-116431961D02*
X127824405Y-116336723D01*
X127824405Y-116336723D02*
X127776786Y-116146247D01*
X127776786Y-116146247D02*
X127776786Y-116003390D01*
X127776786Y-116003390D02*
X127824405Y-115812914D01*
X127824405Y-115812914D02*
X127872024Y-115717676D01*
X127872024Y-115717676D02*
X127967262Y-115622438D01*
X127967262Y-115622438D02*
X128110119Y-115574819D01*
X128110119Y-115574819D02*
X128205357Y-115574819D01*
X128205357Y-115574819D02*
X128348214Y-115622438D01*
X128348214Y-115622438D02*
X128395833Y-115670057D01*
X128776786Y-115670057D02*
X128824405Y-115622438D01*
X128824405Y-115622438D02*
X128919643Y-115574819D01*
X128919643Y-115574819D02*
X129157738Y-115574819D01*
X129157738Y-115574819D02*
X129252976Y-115622438D01*
X129252976Y-115622438D02*
X129300595Y-115670057D01*
X129300595Y-115670057D02*
X129348214Y-115765295D01*
X129348214Y-115765295D02*
X129348214Y-115860533D01*
X129348214Y-115860533D02*
X129300595Y-116003390D01*
X129300595Y-116003390D02*
X128729167Y-116574819D01*
X128729167Y-116574819D02*
X129348214Y-116574819D01*
X176428628Y-89226190D02*
X176904819Y-89226190D01*
X175904819Y-89559523D02*
X176428628Y-89226190D01*
X176428628Y-89226190D02*
X175904819Y-88892857D01*
X176000057Y-88607142D02*
X175952438Y-88559523D01*
X175952438Y-88559523D02*
X175904819Y-88464285D01*
X175904819Y-88464285D02*
X175904819Y-88226190D01*
X175904819Y-88226190D02*
X175952438Y-88130952D01*
X175952438Y-88130952D02*
X176000057Y-88083333D01*
X176000057Y-88083333D02*
X176095295Y-88035714D01*
X176095295Y-88035714D02*
X176190533Y-88035714D01*
X176190533Y-88035714D02*
X176333390Y-88083333D01*
X176333390Y-88083333D02*
X176904819Y-88654761D01*
X176904819Y-88654761D02*
X176904819Y-88035714D01*
X134086905Y-134604819D02*
X134086905Y-133604819D01*
X134086905Y-133604819D02*
X134325000Y-133604819D01*
X134325000Y-133604819D02*
X134467857Y-133652438D01*
X134467857Y-133652438D02*
X134563095Y-133747676D01*
X134563095Y-133747676D02*
X134610714Y-133842914D01*
X134610714Y-133842914D02*
X134658333Y-134033390D01*
X134658333Y-134033390D02*
X134658333Y-134176247D01*
X134658333Y-134176247D02*
X134610714Y-134366723D01*
X134610714Y-134366723D02*
X134563095Y-134461961D01*
X134563095Y-134461961D02*
X134467857Y-134557200D01*
X134467857Y-134557200D02*
X134325000Y-134604819D01*
X134325000Y-134604819D02*
X134086905Y-134604819D01*
X135039286Y-133700057D02*
X135086905Y-133652438D01*
X135086905Y-133652438D02*
X135182143Y-133604819D01*
X135182143Y-133604819D02*
X135420238Y-133604819D01*
X135420238Y-133604819D02*
X135515476Y-133652438D01*
X135515476Y-133652438D02*
X135563095Y-133700057D01*
X135563095Y-133700057D02*
X135610714Y-133795295D01*
X135610714Y-133795295D02*
X135610714Y-133890533D01*
X135610714Y-133890533D02*
X135563095Y-134033390D01*
X135563095Y-134033390D02*
X134991667Y-134604819D01*
X134991667Y-134604819D02*
X135610714Y-134604819D01*
X196416666Y-57604819D02*
X196416666Y-58319104D01*
X196416666Y-58319104D02*
X196369047Y-58461961D01*
X196369047Y-58461961D02*
X196273809Y-58557200D01*
X196273809Y-58557200D02*
X196130952Y-58604819D01*
X196130952Y-58604819D02*
X196035714Y-58604819D01*
X196797619Y-57604819D02*
X197416666Y-57604819D01*
X197416666Y-57604819D02*
X197083333Y-57985771D01*
X197083333Y-57985771D02*
X197226190Y-57985771D01*
X197226190Y-57985771D02*
X197321428Y-58033390D01*
X197321428Y-58033390D02*
X197369047Y-58081009D01*
X197369047Y-58081009D02*
X197416666Y-58176247D01*
X197416666Y-58176247D02*
X197416666Y-58414342D01*
X197416666Y-58414342D02*
X197369047Y-58509580D01*
X197369047Y-58509580D02*
X197321428Y-58557200D01*
X197321428Y-58557200D02*
X197226190Y-58604819D01*
X197226190Y-58604819D02*
X196940476Y-58604819D01*
X196940476Y-58604819D02*
X196845238Y-58557200D01*
X196845238Y-58557200D02*
X196797619Y-58509580D01*
X128604819Y-130566666D02*
X128128628Y-130899999D01*
X128604819Y-131138094D02*
X127604819Y-131138094D01*
X127604819Y-131138094D02*
X127604819Y-130757142D01*
X127604819Y-130757142D02*
X127652438Y-130661904D01*
X127652438Y-130661904D02*
X127700057Y-130614285D01*
X127700057Y-130614285D02*
X127795295Y-130566666D01*
X127795295Y-130566666D02*
X127938152Y-130566666D01*
X127938152Y-130566666D02*
X128033390Y-130614285D01*
X128033390Y-130614285D02*
X128081009Y-130661904D01*
X128081009Y-130661904D02*
X128128628Y-130757142D01*
X128128628Y-130757142D02*
X128128628Y-131138094D01*
X127604819Y-129661904D02*
X127604819Y-130138094D01*
X127604819Y-130138094D02*
X128081009Y-130185713D01*
X128081009Y-130185713D02*
X128033390Y-130138094D01*
X128033390Y-130138094D02*
X127985771Y-130042856D01*
X127985771Y-130042856D02*
X127985771Y-129804761D01*
X127985771Y-129804761D02*
X128033390Y-129709523D01*
X128033390Y-129709523D02*
X128081009Y-129661904D01*
X128081009Y-129661904D02*
X128176247Y-129614285D01*
X128176247Y-129614285D02*
X128414342Y-129614285D01*
X128414342Y-129614285D02*
X128509580Y-129661904D01*
X128509580Y-129661904D02*
X128557200Y-129709523D01*
X128557200Y-129709523D02*
X128604819Y-129804761D01*
X128604819Y-129804761D02*
X128604819Y-130042856D01*
X128604819Y-130042856D02*
X128557200Y-130138094D01*
X128557200Y-130138094D02*
X128509580Y-130185713D01*
D13*
%TO.C,D1*%
X127765000Y-134840000D02*
X127765000Y-136760000D01*
X127765000Y-136760000D02*
X130625000Y-136760000D01*
X130625000Y-134840000D02*
X127765000Y-134840000D01*
%TO.C,R9*%
X167921000Y-133339064D02*
X167921000Y-132884936D01*
X169391000Y-133339064D02*
X169391000Y-132884936D01*
%TO.C,C13*%
X162231400Y-98337800D02*
X162231400Y-102422800D01*
X164101400Y-98337800D02*
X162231400Y-98337800D01*
X164101400Y-102422800D02*
X164101400Y-98337800D01*
%TO.C,J1*%
X138540000Y-131990000D02*
X138540000Y-136350000D01*
X138540000Y-131990000D02*
X141040000Y-131990000D01*
X141040000Y-131990000D02*
X141040000Y-131790000D01*
X141700000Y-131790000D02*
X141040000Y-131790000D01*
X144560000Y-131990000D02*
X147060000Y-131990000D01*
X147060000Y-131990000D02*
X147060000Y-136350000D01*
%TO.C,C8*%
X200265000Y-85701248D02*
X200265000Y-86223752D01*
X201735000Y-85701248D02*
X201735000Y-86223752D01*
%TO.C,C5*%
X182301248Y-77865000D02*
X182823752Y-77865000D01*
X182301248Y-79335000D02*
X182823752Y-79335000D01*
%TO.C,C19*%
X162298748Y-128297000D02*
X162821252Y-128297000D01*
X162298748Y-129767000D02*
X162821252Y-129767000D01*
D10*
%TO.C,U3*%
X189796000Y-81642800D02*
X189796000Y-81867800D01*
X189796000Y-81642800D02*
X190121000Y-81642800D01*
X189796000Y-81867800D02*
X188371000Y-81867800D01*
X189796000Y-88892800D02*
X189796000Y-88567800D01*
X189796000Y-88892800D02*
X190121000Y-88892800D01*
X197046000Y-81642800D02*
X196721000Y-81642800D01*
X197046000Y-81642800D02*
X197046000Y-81967800D01*
X197046000Y-88892800D02*
X196721000Y-88892800D01*
X197046000Y-88892800D02*
X197046000Y-88567800D01*
D13*
%TO.C,R6*%
X133465000Y-130627064D02*
X133465000Y-130172936D01*
X134935000Y-130627064D02*
X134935000Y-130172936D01*
%TO.C,C17*%
X147073252Y-128043000D02*
X146550748Y-128043000D01*
X147073252Y-129513000D02*
X146550748Y-129513000D01*
%TO.C,J2*%
X189700000Y-98970000D02*
X191030000Y-98970000D01*
X189700000Y-100300000D02*
X189700000Y-98970000D01*
X192300000Y-98970000D02*
X202520000Y-98970000D01*
X192300000Y-101630000D02*
X192300000Y-98970000D01*
X192300000Y-101630000D02*
X202520000Y-101630000D01*
X202520000Y-101630000D02*
X202520000Y-98970000D01*
%TO.C,C3*%
X174065000Y-122776248D02*
X174065000Y-123298752D01*
X175535000Y-122776248D02*
X175535000Y-123298752D01*
%TO.C,U2*%
X126590000Y-112462500D02*
X126590000Y-111662500D01*
X126590000Y-112462500D02*
X126590000Y-114262500D01*
X129710000Y-112462500D02*
X129710000Y-111662500D01*
X129710000Y-112462500D02*
X129710000Y-113262500D01*
%TO.C,C14*%
X183865000Y-91648752D02*
X183865000Y-91126248D01*
X185335000Y-91648752D02*
X185335000Y-91126248D01*
%TO.C,C7*%
X179952500Y-81665000D02*
X179952500Y-83535000D01*
X179952500Y-83535000D02*
X184037500Y-83535000D01*
X184037500Y-81665000D02*
X179952500Y-81665000D01*
%TO.C,C1*%
X128338748Y-121865000D02*
X128861252Y-121865000D01*
X128338748Y-123335000D02*
X128861252Y-123335000D01*
%TO.C,R8*%
X144372936Y-107665000D02*
X144827064Y-107665000D01*
X144372936Y-109135000D02*
X144827064Y-109135000D01*
%TO.C,R2*%
X168172936Y-107465000D02*
X168627064Y-107465000D01*
X168172936Y-108935000D02*
X168627064Y-108935000D01*
%TO.C,R7*%
X149427064Y-107665000D02*
X148972936Y-107665000D01*
X149427064Y-109135000D02*
X148972936Y-109135000D01*
%TO.C,C15*%
X183865000Y-86851248D02*
X183865000Y-87373752D01*
X185335000Y-86851248D02*
X185335000Y-87373752D01*
%TO.C,C12*%
X157231400Y-98300300D02*
X157231400Y-102385300D01*
X159101400Y-98300300D02*
X157231400Y-98300300D01*
X159101400Y-102385300D02*
X159101400Y-98300300D01*
%TO.C,C18*%
X167901252Y-128297000D02*
X167378748Y-128297000D01*
X167901252Y-129767000D02*
X167378748Y-129767000D01*
%TO.C,R1*%
X162772936Y-107065000D02*
X163227064Y-107065000D01*
X162772936Y-108535000D02*
X163227064Y-108535000D01*
%TO.C,R10*%
X160809000Y-133323064D02*
X160809000Y-132868936D01*
X162279000Y-133323064D02*
X162279000Y-132868936D01*
%TO.C,R3*%
X168172936Y-116665000D02*
X168627064Y-116665000D01*
X168172936Y-118135000D02*
X168627064Y-118135000D01*
%TO.C,C9*%
X166431400Y-100561548D02*
X166431400Y-101084052D01*
X167901400Y-100561548D02*
X167901400Y-101084052D01*
%TO.C,J7*%
X151600000Y-136150000D02*
X151600000Y-127950000D01*
X159300000Y-132050000D02*
X159800000Y-132550000D01*
X159800000Y-127950000D02*
X151600000Y-127950000D01*
X159800000Y-131550000D02*
X159300000Y-132050000D01*
X159800000Y-136150000D02*
X151600000Y-136150000D01*
X159800000Y-136150000D02*
X159800000Y-127950000D01*
%TO.C,R4*%
X163172936Y-116665000D02*
X163627064Y-116665000D01*
X163172936Y-118135000D02*
X163627064Y-118135000D01*
%TO.C,C10*%
X152538748Y-112265000D02*
X153061252Y-112265000D01*
X152538748Y-113735000D02*
X153061252Y-113735000D01*
D10*
%TO.C,U1*%
X164525600Y-122701800D02*
X164525600Y-126051800D01*
X164525600Y-122701800D02*
X164825600Y-122701800D01*
X164525600Y-126051800D02*
X164825600Y-126051800D01*
X167650600Y-122701800D02*
X167650600Y-121476800D01*
X167875600Y-122701800D02*
X167650600Y-122701800D01*
X167875600Y-122701800D02*
X167875600Y-126051800D01*
X167875600Y-126051800D02*
X167575600Y-126051800D01*
%TO.C,REF\u002A\u002A*%
D11*
X186225000Y-145480000D02*
X192525000Y-145480000D01*
X192525000Y-137480000D01*
X186225000Y-137480000D01*
X186225000Y-145480000D01*
D13*
X209215000Y-137480000D02*
X183815000Y-137480000D01*
X183815000Y-98480000D01*
X209215000Y-98480000D01*
X209215000Y-137480000D01*
%TO.C,Q2*%
X161901000Y-113797900D02*
X161901000Y-113147900D01*
X161901000Y-113797900D02*
X161901000Y-115472900D01*
X165021000Y-113797900D02*
X165021000Y-113147900D01*
X165021000Y-113797900D02*
X165021000Y-114447900D01*
%TO.C,C11*%
X133376248Y-117265000D02*
X133898752Y-117265000D01*
X133376248Y-118735000D02*
X133898752Y-118735000D01*
%TO.C,C4*%
X171065000Y-122776248D02*
X171065000Y-123298752D01*
X172535000Y-122776248D02*
X172535000Y-123298752D01*
%TO.C,U4*%
X155480000Y-72450000D02*
X155480000Y-88340000D01*
X155480000Y-72450000D02*
X165720000Y-72450000D01*
X155480000Y-88340000D02*
X165720000Y-88340000D01*
X158060000Y-88340000D02*
X158060000Y-90880000D01*
X160600000Y-88340000D02*
X160600000Y-90880000D01*
X163140000Y-88340000D02*
X163140000Y-90880000D01*
X165720000Y-72450000D02*
X165720000Y-88340000D01*
%TO.C,C6*%
X182388748Y-74415000D02*
X182911252Y-74415000D01*
X182388748Y-75885000D02*
X182911252Y-75885000D01*
%TO.C,J6*%
X169960000Y-136200000D02*
X169960000Y-128000000D01*
X177660000Y-132100000D02*
X178160000Y-132600000D01*
X178160000Y-128000000D02*
X169960000Y-128000000D01*
X178160000Y-131600000D02*
X177660000Y-132100000D01*
X178160000Y-136200000D02*
X169960000Y-136200000D01*
X178160000Y-136200000D02*
X178160000Y-128000000D01*
D10*
%TO.C,U5*%
X137600000Y-113925000D02*
X137600000Y-119675000D01*
X137600000Y-113925000D02*
X138250000Y-113925000D01*
X137600000Y-119675000D02*
X138250000Y-119675000D01*
X147675000Y-113925000D02*
X147675000Y-112325000D01*
X148250000Y-113925000D02*
X147675000Y-113925000D01*
X148250000Y-113925000D02*
X148250000Y-119675000D01*
X148250000Y-119675000D02*
X147600000Y-119675000D01*
D13*
%TO.C,Y1*%
X162750000Y-120100000D02*
X157350000Y-120100000D01*
X162750000Y-124600000D02*
X162750000Y-120100000D01*
%TO.C,J4*%
X181530000Y-62270000D02*
X189270000Y-62270000D01*
X181530000Y-64870000D02*
X181530000Y-62270000D01*
X181530000Y-67470000D02*
X181530000Y-66140000D01*
X182860000Y-67470000D02*
X181530000Y-67470000D01*
X184130000Y-64870000D02*
X181530000Y-64870000D01*
X184130000Y-67470000D02*
X184130000Y-64870000D01*
X184130000Y-67470000D02*
X189270000Y-67470000D01*
X189270000Y-67470000D02*
X189270000Y-62270000D01*
%TO.C,C16*%
X147073252Y-124741000D02*
X146550748Y-124741000D01*
X147073252Y-126211000D02*
X146550748Y-126211000D01*
%TO.C,Q1*%
X166851000Y-113735400D02*
X166851000Y-113085400D01*
X166851000Y-113735400D02*
X166851000Y-115410400D01*
X169971000Y-113735400D02*
X169971000Y-113085400D01*
X169971000Y-113735400D02*
X169971000Y-114385400D01*
%TO.C,J5*%
X206270000Y-90090000D02*
X206270000Y-62090000D01*
X208930000Y-62090000D02*
X206270000Y-62090000D01*
X208930000Y-90090000D02*
X206270000Y-90090000D01*
X208930000Y-90090000D02*
X208930000Y-62090000D01*
X208930000Y-91360000D02*
X208930000Y-92690000D01*
X208930000Y-92690000D02*
X207600000Y-92690000D01*
%TO.C,C2*%
X128301248Y-117065000D02*
X128823752Y-117065000D01*
X128301248Y-118535000D02*
X128823752Y-118535000D01*
%TO.C,Y2*%
X177250000Y-91450000D02*
X181750000Y-91450000D01*
X181750000Y-91450000D02*
X181750000Y-86050000D01*
%TO.C,D2*%
X132965000Y-134840000D02*
X132965000Y-136760000D01*
X132965000Y-136760000D02*
X135825000Y-136760000D01*
X135825000Y-134840000D02*
X132965000Y-134840000D01*
%TO.C,J3*%
X193650000Y-62270000D02*
X193650000Y-64930000D01*
X201330000Y-62270000D02*
X193650000Y-62270000D01*
X201330000Y-62270000D02*
X201330000Y-64930000D01*
X201330000Y-64930000D02*
X193650000Y-64930000D01*
X202600000Y-62270000D02*
X203930000Y-62270000D01*
X203930000Y-62270000D02*
X203930000Y-63600000D01*
%TO.C,R5*%
X129065000Y-130627064D02*
X129065000Y-130172936D01*
X130535000Y-130627064D02*
X130535000Y-130172936D01*
%TD*%
M02*
